%TF.GenerationSoftware,KiCad,Pcbnew,9.0.1*%
%TF.CreationDate,2026-04-22T21:30:40-07:00*%
%TF.ProjectId,MainBoard,4d61696e-426f-4617-9264-2e6b69636164,rev?*%
%TF.SameCoordinates,Original*%
%TF.FileFunction,Paste,Top*%
%TF.FilePolarity,Positive*%
%FSLAX46Y46*%
G04 Gerber Fmt 4.6, Leading zero omitted, Abs format (unit mm)*
G04 Created by KiCad (PCBNEW 9.0.1) date 2026-04-22 21:30:40*
%MOMM*%
%LPD*%
G01*
G04 APERTURE LIST*
G04 Aperture macros list*
%AMRoundRect*
0 Rectangle with rounded corners*
0 $1 Rounding radius*
0 $2 $3 $4 $5 $6 $7 $8 $9 X,Y pos of 4 corners*
0 Add a 4 corners polygon primitive as box body*
4,1,4,$2,$3,$4,$5,$6,$7,$8,$9,$2,$3,0*
0 Add four circle primitives for the rounded corners*
1,1,$1+$1,$2,$3*
1,1,$1+$1,$4,$5*
1,1,$1+$1,$6,$7*
1,1,$1+$1,$8,$9*
0 Add four rect primitives between the rounded corners*
20,1,$1+$1,$2,$3,$4,$5,0*
20,1,$1+$1,$4,$5,$6,$7,0*
20,1,$1+$1,$6,$7,$8,$9,0*
20,1,$1+$1,$8,$9,$2,$3,0*%
G04 Aperture macros list end*
%ADD10RoundRect,0.250000X-0.400000X-1.075000X0.400000X-1.075000X0.400000X1.075000X-0.400000X1.075000X0*%
%ADD11RoundRect,0.250000X1.075000X-0.400000X1.075000X0.400000X-1.075000X0.400000X-1.075000X-0.400000X0*%
%ADD12R,3.500000X1.850000*%
%ADD13RoundRect,0.250000X-1.075000X0.400000X-1.075000X-0.400000X1.075000X-0.400000X1.075000X0.400000X0*%
%ADD14R,0.450000X1.475000*%
%ADD15RoundRect,0.250000X0.400000X1.075000X-0.400000X1.075000X-0.400000X-1.075000X0.400000X-1.075000X0*%
%ADD16RoundRect,0.150000X-0.662500X-0.150000X0.662500X-0.150000X0.662500X0.150000X-0.662500X0.150000X0*%
%ADD17RoundRect,0.250000X0.412500X1.100000X-0.412500X1.100000X-0.412500X-1.100000X0.412500X-1.100000X0*%
%ADD18R,1.850000X0.650000*%
%ADD19R,1.350000X0.900000*%
%ADD20R,2.286000X1.397000*%
%ADD21R,6.180000X5.690000*%
%ADD22RoundRect,0.150000X0.662500X0.150000X-0.662500X0.150000X-0.662500X-0.150000X0.662500X-0.150000X0*%
%ADD23RoundRect,0.250000X1.125000X-1.275000X1.125000X1.275000X-1.125000X1.275000X-1.125000X-1.275000X0*%
%ADD24RoundRect,0.200000X0.200000X-0.900000X0.200000X0.900000X-0.200000X0.900000X-0.200000X-0.900000X0*%
%ADD25RoundRect,0.250000X-1.100000X0.412500X-1.100000X-0.412500X1.100000X-0.412500X1.100000X0.412500X0*%
%ADD26RoundRect,0.150000X0.150000X-0.662500X0.150000X0.662500X-0.150000X0.662500X-0.150000X-0.662500X0*%
%ADD27RoundRect,0.250000X-1.275000X-1.125000X1.275000X-1.125000X1.275000X1.125000X-1.275000X1.125000X0*%
%ADD28RoundRect,0.200000X-0.900000X-0.200000X0.900000X-0.200000X0.900000X0.200000X-0.900000X0.200000X0*%
G04 APERTURE END LIST*
D10*
%TO.C,R15*%
X73150000Y-57525000D03*
X76250000Y-57525000D03*
%TD*%
D11*
%TO.C,R24*%
X64525000Y-26775000D03*
X64525000Y-23675000D03*
%TD*%
D12*
%TO.C,C42*%
X13850000Y-84800000D03*
X19150000Y-84800000D03*
%TD*%
D13*
%TO.C,R1*%
X16500000Y-27900000D03*
X16500000Y-31000000D03*
%TD*%
D12*
%TO.C,C38*%
X54350000Y-99500000D03*
X59650000Y-99500000D03*
%TD*%
%TO.C,C28*%
X48500000Y-73500000D03*
X53800000Y-73500000D03*
%TD*%
D14*
%TO.C,IC1*%
X16925000Y-19062000D03*
X16275000Y-19062000D03*
X15625000Y-19062000D03*
X14975000Y-19062000D03*
X14325000Y-19062000D03*
X13675000Y-19062000D03*
X13025000Y-19062000D03*
X12375000Y-19062000D03*
X11725000Y-19062000D03*
X11075000Y-19062000D03*
X11075000Y-24938000D03*
X11725000Y-24938000D03*
X12375000Y-24938000D03*
X13025000Y-24938000D03*
X13675000Y-24938000D03*
X14325000Y-24938000D03*
X14975000Y-24938000D03*
X15625000Y-24938000D03*
X16275000Y-24938000D03*
X16925000Y-24938000D03*
%TD*%
D15*
%TO.C,R11*%
X90250000Y-57525000D03*
X87150000Y-57525000D03*
%TD*%
D16*
%TO.C,U7*%
X76812500Y-27365000D03*
X76812500Y-28635000D03*
X83187500Y-28635000D03*
X83187500Y-27365000D03*
%TD*%
D17*
%TO.C,C14*%
X67062500Y-77000000D03*
X63937500Y-77000000D03*
%TD*%
D12*
%TO.C,C41*%
X3850000Y-85000000D03*
X9150000Y-85000000D03*
%TD*%
D18*
%TO.C,IC2*%
X23000000Y-19730000D03*
X23000000Y-21000000D03*
X23000000Y-22270000D03*
X23000000Y-23540000D03*
X33650000Y-23540000D03*
X33650000Y-22270000D03*
X33650000Y-21000000D03*
X33650000Y-19730000D03*
%TD*%
D19*
%TO.C,FL2*%
X88725000Y-64165000D03*
X88725000Y-66665000D03*
X93275000Y-66665000D03*
X93275000Y-64165000D03*
%TD*%
D20*
%TO.C,Q1*%
X87101000Y-26214000D03*
X87101000Y-30786000D03*
D21*
X93500000Y-28500000D03*
%TD*%
D22*
%TO.C,U1*%
X84887500Y-48160000D03*
X84887500Y-46890000D03*
X78512500Y-46890000D03*
X78512500Y-48160000D03*
%TD*%
D12*
%TO.C,C33*%
X110350000Y-86000000D03*
X115650000Y-86000000D03*
%TD*%
D15*
%TO.C,R5*%
X90250000Y-47525000D03*
X87150000Y-47525000D03*
%TD*%
D12*
%TO.C,C30*%
X38850000Y-88500000D03*
X44150000Y-88500000D03*
%TD*%
D10*
%TO.C,R16*%
X71450000Y-27995000D03*
X74550000Y-27995000D03*
%TD*%
D16*
%TO.C,U4*%
X76812500Y-19895000D03*
X76812500Y-21165000D03*
X83187500Y-21165000D03*
X83187500Y-19895000D03*
%TD*%
D13*
%TO.C,R22*%
X98000000Y-46900000D03*
X98000000Y-50000000D03*
%TD*%
D15*
%TO.C,R7*%
X90250000Y-52525000D03*
X87150000Y-52525000D03*
%TD*%
D22*
%TO.C,U2*%
X84887500Y-53160000D03*
X84887500Y-51890000D03*
X78512500Y-51890000D03*
X78512500Y-53160000D03*
%TD*%
D10*
%TO.C,R6*%
X73150000Y-47525000D03*
X76250000Y-47525000D03*
%TD*%
D14*
%TO.C,IC3*%
X66925000Y-67062000D03*
X66275000Y-67062000D03*
X65625000Y-67062000D03*
X64975000Y-67062000D03*
X64325000Y-67062000D03*
X63675000Y-67062000D03*
X63025000Y-67062000D03*
X62375000Y-67062000D03*
X61725000Y-67062000D03*
X61075000Y-67062000D03*
X61075000Y-72938000D03*
X61725000Y-72938000D03*
X62375000Y-72938000D03*
X63025000Y-72938000D03*
X63675000Y-72938000D03*
X64325000Y-72938000D03*
X64975000Y-72938000D03*
X65625000Y-72938000D03*
X66275000Y-72938000D03*
X66925000Y-72938000D03*
%TD*%
D18*
%TO.C,IC4*%
X73600000Y-63730000D03*
X73600000Y-65000000D03*
X73600000Y-66270000D03*
X73600000Y-67540000D03*
X84250000Y-67540000D03*
X84250000Y-66270000D03*
X84250000Y-65000000D03*
X84250000Y-63730000D03*
%TD*%
D12*
%TO.C,C34*%
X99350000Y-13000000D03*
X104650000Y-13000000D03*
%TD*%
D16*
%TO.C,U9*%
X76812500Y-35365000D03*
X76812500Y-36635000D03*
X83187500Y-36635000D03*
X83187500Y-35365000D03*
%TD*%
D23*
%TO.C,U12*%
X63000000Y-6350000D03*
X66050000Y-6350000D03*
X63000000Y-3000000D03*
X66050000Y-3000000D03*
D24*
X62245000Y-10975000D03*
X63385000Y-10975000D03*
X65665000Y-10975000D03*
X66805000Y-10975000D03*
%TD*%
D12*
%TO.C,C37*%
X54350000Y-90500000D03*
X59650000Y-90500000D03*
%TD*%
D22*
%TO.C,U3*%
X84887500Y-43160000D03*
X84887500Y-41890000D03*
X78512500Y-41890000D03*
X78512500Y-43160000D03*
%TD*%
D13*
%TO.C,R23*%
X98000000Y-52450000D03*
X98000000Y-55550000D03*
%TD*%
D25*
%TO.C,C26*%
X99000000Y-63437500D03*
X99000000Y-66562500D03*
%TD*%
D12*
%TO.C,C27*%
X48700000Y-82500000D03*
X54000000Y-82500000D03*
%TD*%
D10*
%TO.C,R19*%
X71450000Y-35995000D03*
X74550000Y-35995000D03*
%TD*%
D15*
%TO.C,R9*%
X90250000Y-43000000D03*
X87150000Y-43000000D03*
%TD*%
D20*
%TO.C,Q2*%
X88827000Y-34714000D03*
X88827000Y-39286000D03*
D21*
X95226000Y-37000000D03*
%TD*%
D17*
%TO.C,C18*%
X67000000Y-80500000D03*
X63875000Y-80500000D03*
%TD*%
D12*
%TO.C,C31*%
X58350000Y-40000000D03*
X63650000Y-40000000D03*
%TD*%
%TO.C,C29*%
X38700000Y-79500000D03*
X44000000Y-79500000D03*
%TD*%
%TO.C,C32*%
X58350000Y-48800000D03*
X63650000Y-48800000D03*
%TD*%
D19*
%TO.C,FL1*%
X38050000Y-20385000D03*
X38050000Y-22885000D03*
X42600000Y-22885000D03*
X42600000Y-20385000D03*
%TD*%
D10*
%TO.C,R10*%
X73150000Y-42525000D03*
X76250000Y-42525000D03*
%TD*%
D17*
%TO.C,C13*%
X51562500Y-18000000D03*
X48437500Y-18000000D03*
%TD*%
D10*
%TO.C,R12*%
X71450000Y-20525000D03*
X74550000Y-20525000D03*
%TD*%
D12*
%TO.C,C35*%
X110350000Y-77000000D03*
X115650000Y-77000000D03*
%TD*%
%TO.C,C40*%
X64700000Y-99500000D03*
X70000000Y-99500000D03*
%TD*%
%TO.C,C39*%
X64700000Y-90500000D03*
X70000000Y-90500000D03*
%TD*%
%TO.C,C36*%
X110350000Y-67500000D03*
X115650000Y-67500000D03*
%TD*%
D22*
%TO.C,U6*%
X84887500Y-58160000D03*
X84887500Y-56890000D03*
X78512500Y-56890000D03*
X78512500Y-58160000D03*
%TD*%
D26*
%TO.C,U11*%
X63890000Y-21675000D03*
X65160000Y-21675000D03*
X65160000Y-15300000D03*
X63890000Y-15300000D03*
%TD*%
D10*
%TO.C,R8*%
X73150000Y-52525000D03*
X76250000Y-52525000D03*
%TD*%
D27*
%TO.C,U5*%
X92025000Y-19000000D03*
X92025000Y-22050000D03*
X95375000Y-19000000D03*
X95375000Y-22050000D03*
D28*
X87400000Y-18245000D03*
X87400000Y-19385000D03*
X87400000Y-21665000D03*
X87400000Y-22805000D03*
%TD*%
M02*
