%TF.GenerationSoftware,KiCad,Pcbnew,9.0.1*%
%TF.CreationDate,2026-04-22T21:30:40-07:00*%
%TF.ProjectId,MainBoard,4d61696e-426f-4617-9264-2e6b69636164,rev?*%
%TF.SameCoordinates,Original*%
%TF.FileFunction,Paste,Bot*%
%TF.FilePolarity,Positive*%
%FSLAX46Y46*%
G04 Gerber Fmt 4.6, Leading zero omitted, Abs format (unit mm)*
G04 Created by KiCad (PCBNEW 9.0.1) date 2026-04-22 21:30:40*
%MOMM*%
%LPD*%
G01*
G04 APERTURE LIST*
G04 Aperture macros list*
%AMRoundRect*
0 Rectangle with rounded corners*
0 $1 Rounding radius*
0 $2 $3 $4 $5 $6 $7 $8 $9 X,Y pos of 4 corners*
0 Add a 4 corners polygon primitive as box body*
4,1,4,$2,$3,$4,$5,$6,$7,$8,$9,$2,$3,0*
0 Add four circle primitives for the rounded corners*
1,1,$1+$1,$2,$3*
1,1,$1+$1,$4,$5*
1,1,$1+$1,$6,$7*
1,1,$1+$1,$8,$9*
0 Add four rect primitives between the rounded corners*
20,1,$1+$1,$2,$3,$4,$5,0*
20,1,$1+$1,$4,$5,$6,$7,0*
20,1,$1+$1,$6,$7,$8,$9,0*
20,1,$1+$1,$8,$9,$2,$3,0*%
G04 Aperture macros list end*
%ADD10RoundRect,0.250000X-0.412500X-1.100000X0.412500X-1.100000X0.412500X1.100000X-0.412500X1.100000X0*%
%ADD11RoundRect,0.250000X0.400000X1.075000X-0.400000X1.075000X-0.400000X-1.075000X0.400000X-1.075000X0*%
%ADD12RoundRect,0.250000X-1.075000X0.400000X-1.075000X-0.400000X1.075000X-0.400000X1.075000X0.400000X0*%
%ADD13RoundRect,0.250000X-0.400000X-1.075000X0.400000X-1.075000X0.400000X1.075000X-0.400000X1.075000X0*%
%ADD14RoundRect,0.250000X0.412500X1.100000X-0.412500X1.100000X-0.412500X-1.100000X0.412500X-1.100000X0*%
%ADD15RoundRect,0.250000X-1.100000X0.412500X-1.100000X-0.412500X1.100000X-0.412500X1.100000X0.412500X0*%
%ADD16RoundRect,0.250000X0.900000X-1.000000X0.900000X1.000000X-0.900000X1.000000X-0.900000X-1.000000X0*%
%ADD17RoundRect,0.250000X1.100000X-0.412500X1.100000X0.412500X-1.100000X0.412500X-1.100000X-0.412500X0*%
%ADD18RoundRect,0.250000X1.075000X-0.400000X1.075000X0.400000X-1.075000X0.400000X-1.075000X-0.400000X0*%
%ADD19RoundRect,0.250000X1.000000X0.900000X-1.000000X0.900000X-1.000000X-0.900000X1.000000X-0.900000X0*%
G04 APERTURE END LIST*
D10*
%TO.C,C4*%
X22437500Y-36000000D03*
X25562500Y-36000000D03*
%TD*%
D11*
%TO.C,R14*%
X86550000Y-22025000D03*
X83450000Y-22025000D03*
%TD*%
D12*
%TO.C,R3*%
X66000000Y-76000000D03*
X66000000Y-79100000D03*
%TD*%
D13*
%TO.C,R13*%
X83450000Y-18025000D03*
X86550000Y-18025000D03*
%TD*%
D14*
%TO.C,C5*%
X16562500Y-25000000D03*
X13437500Y-25000000D03*
%TD*%
D15*
%TO.C,C16*%
X70000000Y-60437500D03*
X70000000Y-63562500D03*
%TD*%
D10*
%TO.C,C17*%
X71000000Y-71000000D03*
X74125000Y-71000000D03*
%TD*%
D16*
%TO.C,D3*%
X91000000Y-38300000D03*
X91000000Y-34000000D03*
%TD*%
D14*
%TO.C,C1*%
X16562500Y-30000000D03*
X13437500Y-30000000D03*
%TD*%
%TO.C,C2*%
X5562500Y-26000000D03*
X2437500Y-26000000D03*
%TD*%
D10*
%TO.C,C20*%
X71437500Y-77000000D03*
X74562500Y-77000000D03*
%TD*%
%TO.C,C7*%
X22437500Y-32000000D03*
X25562500Y-32000000D03*
%TD*%
D17*
%TO.C,C11*%
X52000000Y-23562500D03*
X52000000Y-20437500D03*
%TD*%
D18*
%TO.C,R25*%
X62890000Y-15225000D03*
X62890000Y-12125000D03*
%TD*%
D14*
%TO.C,C6*%
X4562500Y-16000000D03*
X1437500Y-16000000D03*
%TD*%
D13*
%TO.C,R17*%
X83450000Y-26000000D03*
X86550000Y-26000000D03*
%TD*%
D17*
%TO.C,C15*%
X66000000Y-60062500D03*
X66000000Y-56937500D03*
%TD*%
D11*
%TO.C,R18*%
X86550000Y-30000000D03*
X83450000Y-30000000D03*
%TD*%
D13*
%TO.C,R20*%
X83450000Y-34000000D03*
X86550000Y-34000000D03*
%TD*%
D12*
%TO.C,R2*%
X43000000Y-17000000D03*
X43000000Y-20100000D03*
%TD*%
D17*
%TO.C,C8*%
X23000000Y-19562500D03*
X23000000Y-16437500D03*
%TD*%
%TO.C,C19*%
X62000000Y-60062500D03*
X62000000Y-56937500D03*
%TD*%
D15*
%TO.C,C12*%
X48000000Y-20437500D03*
X48000000Y-23562500D03*
%TD*%
D12*
%TO.C,R4*%
X93000000Y-64450000D03*
X93000000Y-67550000D03*
%TD*%
D15*
%TO.C,C22*%
X84000000Y-63437500D03*
X84000000Y-66562500D03*
%TD*%
D10*
%TO.C,C24*%
X100875000Y-53000000D03*
X104000000Y-53000000D03*
%TD*%
D14*
%TO.C,C25*%
X104000000Y-60000000D03*
X100875000Y-60000000D03*
%TD*%
D15*
%TO.C,C10*%
X38000000Y-17000000D03*
X38000000Y-20125000D03*
%TD*%
%TO.C,C3*%
X19000000Y-16437500D03*
X19000000Y-19562500D03*
%TD*%
D19*
%TO.C,D4*%
X66675000Y-7675000D03*
X62375000Y-7675000D03*
%TD*%
D17*
%TO.C,C9*%
X34000000Y-20125000D03*
X34000000Y-17000000D03*
%TD*%
%TO.C,C23*%
X88000000Y-66562500D03*
X88000000Y-63437500D03*
%TD*%
D16*
%TO.C,D1*%
X91000000Y-22680000D03*
X91000000Y-18380000D03*
%TD*%
%TO.C,D2*%
X91000000Y-30650000D03*
X91000000Y-26350000D03*
%TD*%
D17*
%TO.C,C21*%
X73500000Y-63562500D03*
X73500000Y-60437500D03*
%TD*%
D12*
%TO.C,R26*%
X66525000Y-12125000D03*
X66525000Y-15225000D03*
%TD*%
D11*
%TO.C,R21*%
X86550000Y-38000000D03*
X83450000Y-38000000D03*
%TD*%
M02*
