M48
; DRILL file {KiCad 9.0.1} date 2026-04-22T21:30:38-0700
; FORMAT={-:-/ absolute / metric / decimal}
; #@! TF.CreationDate,2026-04-22T21:30:38-07:00
; #@! TF.GenerationSoftware,Kicad,Pcbnew,9.0.1
; #@! TF.FileFunction,Plated,1,4,PTH
FMAT,2
METRIC
; #@! TA.AperFunction,Plated,PTH,ViaDrill
T1C0.300
; #@! TA.AperFunction,Plated,PTH,ComponentDrill
T2C0.800
; #@! TA.AperFunction,Plated,PTH,ComponentDrill
T3C1.000
; #@! TA.AperFunction,Plated,PTH,ComponentDrill
T4C1.110
; #@! TA.AperFunction,Plated,PTH,ComponentDrill
T5C1.150
; #@! TA.AperFunction,Plated,PTH,ComponentDrill
T6C1.600
; #@! TA.AperFunction,Plated,PTH,ComponentDrill
T7C1.700
%
G90
G05
T1
X0.992Y-24.039
X0.992Y-31.039
X0.992Y-73.039
X0.992Y-80.039
X0.992Y-87.039
X1.0Y-19.0
X1.0Y-20.0
X1.0Y-21.0
X1.0Y-22.0
X1.0Y-23.0
X1.0Y-25.0
X1.0Y-26.0
X1.0Y-27.0
X1.0Y-28.0
X1.0Y-29.0
X1.0Y-30.0
X1.0Y-32.0
X1.0Y-68.0
X1.0Y-69.0
X1.0Y-70.0
X1.0Y-71.0
X1.0Y-72.0
X1.0Y-74.0
X1.0Y-75.0
X1.0Y-76.0
X1.0Y-77.0
X1.0Y-78.0
X1.0Y-79.0
X1.0Y-81.0
X1.0Y-82.0
X1.0Y-83.0
X1.0Y-84.0
X1.0Y-85.0
X1.0Y-86.0
X1.0Y-88.0
X1.0Y-89.0
X1.0Y-90.0
X2.0Y-90.0
X2.847Y-35.277
X3.0Y-36.5
X3.0Y-90.0
X3.85Y-85.0
X4.0Y-90.0
X5.0Y-90.0
X6.0Y-90.0
X7.039Y-90.008
X8.0Y-90.0
X9.0Y-90.0
X10.0Y-50.0
X10.0Y-70.0
X10.0Y-75.0
X10.0Y-80.0
X10.0Y-90.0
X10.5Y-19.0
X10.5Y-65.5
X11.0Y-90.0
X12.0Y-90.0
X13.0Y-90.0
X13.85Y-84.8
X14.0Y-65.5
X14.039Y-90.008
X14.992Y-103.039
X15.0Y-66.0
X15.0Y-90.0
X15.0Y-91.0
X15.0Y-93.0
X15.0Y-94.0
X15.0Y-95.0
X15.0Y-96.0
X15.0Y-97.0
X15.0Y-98.0
X15.0Y-99.0
X15.0Y-100.0
X15.0Y-101.0
X15.0Y-102.0
X15.0Y-104.0
X15.008Y-91.961
X16.0Y-104.0
X17.0Y-104.0
X17.5Y-66.0
X18.0Y-1.0
X18.0Y-2.0
X18.0Y-3.0
X18.0Y-4.0
X18.0Y-5.0
X18.0Y-6.0
X18.0Y-7.0
X18.0Y-8.0
X18.0Y-9.0
X18.0Y-10.0
X18.0Y-104.0
X18.5Y-25.0
X18.5Y-30.0
X19.0Y-1.0
X19.0Y-11.0
X19.0Y-19.562
X19.0Y-104.0
X20.0Y-1.0
X20.0Y-12.0
X20.0Y-50.0
X20.0Y-70.0
X20.0Y-75.0
X20.0Y-80.0
X20.0Y-95.0
X20.0Y-100.0
X20.0Y-104.0
X21.0Y-1.0
X21.0Y-12.0
X21.039Y-104.008
X22.0Y-1.0
X22.0Y-12.0
X22.0Y-104.0
X22.5Y-24.0
X23.0Y-1.0
X23.0Y-12.0
X23.0Y-19.562
X23.0Y-104.0
X24.0Y-1.0
X24.0Y-12.0
X24.0Y-104.0
X25.0Y-1.0
X25.0Y-12.0
X25.0Y-90.0
X25.0Y-104.0
X26.0Y-1.0
X26.0Y-12.0
X26.0Y-104.0
X27.0Y-1.0
X27.0Y-104.0
X28.0Y-1.0
X28.039Y-104.008
X29.0Y-1.0
X29.0Y-18.0
X29.0Y-20.0
X29.0Y-21.0
X29.0Y-22.0
X29.0Y-23.0
X29.0Y-24.0
X29.0Y-104.0
X29.008Y-18.961
X29.5Y-65.5
X30.0Y-1.0
X30.0Y-38.0
X30.0Y-50.0
X30.0Y-55.0
X30.0Y-70.0
X30.0Y-75.0
X30.0Y-90.0
X30.0Y-104.0
X31.0Y-1.0
X31.0Y-38.0
X31.0Y-104.0
X32.0Y-1.0
X32.0Y-38.0
X32.0Y-66.0
X32.0Y-104.0
X33.0Y-1.0
X33.0Y-24.0
X33.0Y-25.0
X33.0Y-26.0
X33.0Y-27.0
X33.0Y-38.0
X33.0Y-104.0
X34.0Y-1.0
X34.0Y-38.0
X34.0Y-104.0
X35.0Y-1.0
X35.0Y-29.0
X35.0Y-90.0
X35.039Y-38.008
X35.039Y-104.008
X36.0Y-1.0
X36.0Y-19.0
X36.0Y-38.0
X36.0Y-104.0
X37.0Y-1.0
X37.0Y-38.0
X37.0Y-104.0
X38.0Y-1.0
X38.0Y-38.0
X38.0Y-104.0
X38.7Y-79.5
X38.85Y-88.5
X39.0Y-1.0
X39.0Y-38.0
X39.0Y-104.0
X40.0Y-1.0
X40.0Y-29.0
X40.0Y-38.0
X40.0Y-50.0
X40.0Y-55.0
X40.0Y-104.0
X41.0Y-1.0
X41.0Y-29.0
X41.0Y-38.0
X41.0Y-104.0
X42.0Y-1.0
X42.0Y-29.0
X42.039Y-38.008
X42.039Y-104.008
X43.0Y-1.0
X43.0Y-29.0
X43.0Y-38.0
X43.0Y-104.0
X44.0Y-1.0
X44.0Y-29.0
X44.0Y-104.0
X44.5Y-23.0
X45.0Y-1.0
X45.0Y-29.0
X45.0Y-95.0
X45.0Y-100.0
X45.0Y-104.0
X46.0Y-1.0
X46.0Y-28.0
X46.0Y-104.0
X47.0Y-1.0
X47.0Y-27.0
X47.0Y-38.0
X47.0Y-104.0
X47.5Y-18.5
X48.0Y-1.0
X48.0Y-26.0
X48.0Y-104.0
X48.7Y-82.5
X49.0Y-1.0
X49.0Y-25.0
X49.039Y-104.008
X49.994Y-95.523
X50.0Y-1.0
X50.0Y-90.0
X50.0Y-100.0
X50.0Y-104.0
X50.5Y-37.0
X51.0Y-1.0
X51.0Y-104.0
X52.0Y-1.0
X52.0Y-20.438
X52.0Y-104.0
X53.0Y-1.0
X53.0Y-104.0
X54.0Y-1.0
X54.0Y-2.0
X54.0Y-3.0
X54.0Y-4.0
X54.0Y-5.0
X54.0Y-6.0
X54.0Y-7.0
X54.0Y-8.0
X54.0Y-9.0
X54.0Y-10.0
X54.0Y-11.0
X54.0Y-12.0
X54.0Y-13.0
X54.0Y-14.0
X54.0Y-15.0
X54.0Y-16.0
X54.0Y-17.0
X54.0Y-18.0
X54.0Y-19.0
X54.0Y-20.0
X54.0Y-104.0
X54.35Y-90.5
X54.35Y-99.5
X54.5Y-37.226
X54.5Y-66.85
X55.0Y-30.0
X55.0Y-104.0
X55.5Y-38.0
X56.039Y-104.008
X57.0Y-104.0
X58.0Y-104.0
X58.35Y-40.0
X58.35Y-48.8
X59.0Y-104.0
X60.0Y-25.0
X60.0Y-30.0
X60.0Y-85.0
X60.0Y-104.0
X60.5Y-1.5
X60.5Y-2.5
X60.5Y-3.5
X60.5Y-4.5
X60.5Y-5.5
X60.5Y-6.5
X60.5Y-7.5
X60.5Y-8.5
X60.5Y-9.5
X60.5Y-10.5
X60.5Y-11.5
X60.5Y-12.5
X60.5Y-68.5
X61.0Y-104.0
X62.0Y-13.0
X62.0Y-104.0
X62.071Y-71.715
X62.5Y-75.0
X63.039Y-104.008
X63.89Y-15.3
X64.0Y-74.5
X64.0Y-104.0
X64.525Y-4.675
X64.7Y-90.5
X64.7Y-99.5
X65.0Y-74.5
X65.0Y-104.0
X65.16Y-15.3
X65.5Y-34.5
X65.5Y-35.5
X65.5Y-71.5
X65.506Y-37.506
X65.528Y-36.528
X65.9Y-76.0
X66.0Y-104.0
X67.0Y-71.0
X67.0Y-80.0
X67.0Y-104.0
X68.0Y-2.0
X68.0Y-3.0
X68.0Y-4.0
X68.0Y-5.0
X68.0Y-10.5
X68.0Y-104.0
X68.277Y-43.347
X68.5Y-2.5
X68.5Y-3.5
X68.5Y-4.5
X68.5Y-34.5
X68.5Y-35.5
X69.0Y-1.0
X69.0Y-36.5
X69.0Y-47.5
X69.0Y-104.0
X69.5Y-37.5
X69.75Y-52.25
X70.0Y-1.0
X70.0Y-25.0
X70.0Y-30.0
X70.0Y-85.0
X70.039Y-104.008
X70.426Y-57.5
X71.0Y-1.0
X71.0Y-104.0
X72.0Y-1.0
X72.0Y-104.0
X73.0Y-1.0
X73.0Y-40.5
X73.0Y-104.0
X73.15Y-45.0
X73.15Y-50.5
X73.15Y-56.0
X73.6Y-63.73
X74.0Y-1.0
X74.0Y-104.0
X75.0Y-1.0
X75.0Y-104.0
X76.0Y-1.0
X76.0Y-42.5
X76.0Y-47.5
X76.0Y-52.5
X76.0Y-57.5
X76.0Y-104.0
X77.0Y-1.0
X77.039Y-104.008
X78.0Y-1.0
X78.0Y-104.0
X79.0Y-1.0
X79.0Y-104.0
X79.684Y-14.893
X80.0Y-1.0
X80.0Y-104.0
X81.0Y-1.0
X81.0Y-104.0
X82.0Y-1.0
X82.0Y-88.0
X82.0Y-89.0
X82.0Y-90.0
X82.0Y-91.0
X82.0Y-92.0
X82.0Y-93.0
X82.0Y-95.0
X82.0Y-96.0
X82.0Y-97.0
X82.0Y-98.0
X82.0Y-99.0
X82.0Y-104.0
X82.008Y-93.961
X83.0Y-1.0
X83.45Y-18.025
X83.45Y-22.025
X83.45Y-26.0
X83.45Y-30.0
X83.45Y-34.0
X83.45Y-38.0
X84.0Y-1.0
X84.0Y-63.438
X84.25Y-67.54
X85.0Y-1.0
X85.0Y-15.0
X85.5Y-18.0
X85.5Y-22.0
X85.5Y-24.5
X85.5Y-30.0
X85.5Y-34.0
X85.5Y-38.0
X85.5Y-50.5
X85.5Y-55.5
X86.0Y-1.0
X87.0Y-1.0
X88.0Y-1.0
X89.0Y-1.0
X89.0Y-24.0
X89.5Y-28.0
X90.0Y-1.0
X90.0Y-15.0
X91.0Y-1.0
X91.0Y-30.65
X91.975Y-42.525
X92.0Y-1.0
X92.0Y-50.0
X92.0Y-55.0
X92.0Y-57.5
X93.0Y-1.0
X93.0Y-40.0
X93.275Y-64.165
X93.275Y-66.665
X94.0Y-1.0
X95.0Y-1.0
X95.0Y-15.0
X95.0Y-60.0
X95.0Y-70.0
X95.0Y-75.0
X95.0Y-80.0
X95.5Y-87.5
X95.5Y-88.5
X95.5Y-89.5
X95.5Y-90.5
X95.5Y-91.5
X95.5Y-92.5
X95.5Y-93.5
X95.5Y-94.5
X95.5Y-95.5
X95.5Y-96.5
X95.5Y-97.5
X95.5Y-98.5
X96.0Y-1.0
X96.0Y-104.0
X97.0Y-1.0
X97.0Y-104.0
X97.5Y-18.0
X97.5Y-19.0
X97.5Y-20.0
X97.5Y-21.0
X97.5Y-22.0
X97.5Y-23.0
X98.0Y-1.0
X98.0Y-104.0
X99.0Y-1.0
X99.0Y-24.5
X99.0Y-104.0
X99.35Y-13.0
X99.5Y-42.0
X99.75Y-25.25
X100.0Y-1.0
X100.0Y-5.0
X100.0Y-75.0
X100.0Y-80.0
X100.0Y-90.0
X100.0Y-95.0
X100.0Y-104.0
X100.474Y-70.003
X100.5Y-43.0
X101.0Y-1.0
X101.0Y-104.0
X101.08Y-32.08
X102.0Y-1.0
X102.0Y-104.0
X103.0Y-1.0
X103.0Y-104.0
X104.0Y-1.0
X104.0Y-53.0
X104.0Y-60.0
X104.0Y-104.0
X104.65Y-13.0
X105.0Y-1.0
X105.0Y-2.0
X105.0Y-3.0
X105.0Y-4.0
X105.0Y-5.0
X105.0Y-6.0
X105.0Y-7.0
X105.0Y-8.0
X105.0Y-20.0
X105.0Y-70.0
X105.0Y-75.0
X105.0Y-80.0
X105.0Y-104.0
X105.069Y-64.513
X106.0Y-91.0
X106.0Y-92.0
X106.0Y-93.0
X106.0Y-94.0
X106.0Y-95.0
X106.0Y-96.0
X106.0Y-97.0
X106.0Y-98.0
X106.0Y-99.0
X106.0Y-100.0
X106.0Y-101.0
X106.0Y-102.0
X106.0Y-103.0
X106.0Y-104.0
X107.0Y-91.0
X107.5Y-14.0
X108.0Y-91.0
X108.5Y-14.0
X109.0Y-91.0
X109.5Y-14.0
X109.985Y-39.955
X109.985Y-44.963
X110.0Y-20.0
X110.0Y-25.0
X110.0Y-30.0
X110.0Y-35.0
X110.0Y-50.0
X110.0Y-55.0
X110.0Y-60.0
X110.0Y-91.0
X110.35Y-77.0
X110.35Y-86.0
X110.5Y-14.0
X110.725Y-67.586
X111.0Y-91.0
X111.5Y-14.0
X112.0Y-91.0
X112.5Y-14.0
X113.0Y-91.0
X113.5Y-14.0
X114.0Y-91.0
X114.5Y-14.0
X115.0Y-20.0
X115.0Y-25.0
X115.0Y-30.0
X115.0Y-35.0
X115.0Y-45.0
X115.0Y-50.0
X115.0Y-55.0
X115.0Y-60.0
X115.0Y-91.0
X115.222Y-39.91
X115.5Y-14.0
X115.65Y-67.5
X115.65Y-77.0
X115.65Y-86.0
X116.0Y-91.0
X116.5Y-14.0
X117.0Y-91.0
X117.5Y-14.0
X118.0Y-91.0
X118.5Y-14.0
X119.0Y-15.0
X119.0Y-16.0
X119.0Y-17.0
X119.0Y-18.0
X119.0Y-19.0
X119.0Y-20.0
X119.0Y-21.0
X119.0Y-22.0
X119.0Y-23.0
X119.0Y-24.0
X119.0Y-25.0
X119.0Y-26.0
X119.0Y-27.0
X119.0Y-28.0
X119.0Y-29.0
X119.0Y-30.0
X119.0Y-31.0
X119.0Y-32.0
X119.0Y-33.0
X119.0Y-34.0
X119.0Y-35.0
X119.0Y-36.0
X119.0Y-37.0
X119.0Y-38.0
X119.0Y-39.0
X119.0Y-40.0
X119.0Y-41.0
X119.0Y-42.0
X119.0Y-43.0
X119.0Y-44.0
X119.0Y-45.0
X119.0Y-46.0
X119.0Y-47.0
X119.0Y-48.0
X119.0Y-49.0
X119.0Y-50.0
X119.0Y-51.0
X119.0Y-52.0
X119.0Y-53.0
X119.0Y-54.0
X119.0Y-55.0
X119.0Y-56.0
X119.0Y-57.0
X119.0Y-58.0
X119.0Y-59.0
X119.0Y-60.0
X119.0Y-61.0
X119.0Y-62.0
X119.0Y-63.0
X119.0Y-64.0
X119.0Y-65.0
X119.0Y-66.0
X119.0Y-67.0
X119.0Y-68.0
X119.0Y-69.0
X119.0Y-70.0
X119.0Y-71.0
X119.0Y-72.0
X119.0Y-73.0
X119.0Y-74.0
X119.0Y-75.0
X119.0Y-76.0
X119.0Y-77.0
X119.0Y-78.0
X119.0Y-79.0
X119.0Y-80.0
X119.0Y-81.0
X119.0Y-82.0
X119.0Y-83.0
X119.0Y-84.0
X119.0Y-85.0
X119.0Y-86.0
X119.0Y-87.0
X119.0Y-88.0
X119.0Y-89.0
X119.0Y-90.0
X119.0Y-91.0
T2
X6.0Y-18.57
X6.0Y-23.45
X61.57Y-62.5
X66.45Y-62.5
T3
X3.87Y-43.61
X3.87Y-61.39
X6.41Y-43.61
X6.41Y-61.39
X8.95Y-43.61
X8.95Y-61.39
X11.49Y-43.61
X11.49Y-61.39
X14.03Y-43.61
X14.03Y-61.39
X16.57Y-43.61
X16.57Y-61.39
X19.11Y-43.61
X19.11Y-61.39
X21.65Y-43.61
X21.65Y-61.39
X24.19Y-43.61
X24.19Y-61.39
X26.73Y-43.61
X26.73Y-61.39
X29.27Y-43.61
X29.27Y-61.39
X31.81Y-43.61
X31.81Y-61.39
X34.35Y-43.61
X34.35Y-61.39
X36.89Y-43.61
X36.89Y-61.39
X39.43Y-43.61
X39.43Y-61.39
X41.97Y-43.61
X41.97Y-61.39
X44.51Y-43.61
X44.51Y-61.39
X47.05Y-43.61
X47.05Y-61.39
X49.59Y-43.61
X49.59Y-61.39
X52.13Y-43.61
X52.13Y-61.39
X75.68Y-100.62
X78.22Y-85.38
X78.22Y-100.62
X80.76Y-85.38
X80.76Y-100.62
X96.0Y-85.38
X96.0Y-100.62
X101.08Y-85.38
X101.08Y-100.62
T4
X26.46Y-83.225
X29.0Y-83.225
X31.54Y-83.225
T5
X22.5Y-28.72
X25.04Y-28.72
X32.66Y-28.72
X37.74Y-28.72
X72.175Y-74.085
X74.715Y-74.085
X82.335Y-74.085
X87.415Y-74.085
T6
X23.92Y-97.0
X29.0Y-97.0
X34.08Y-97.0
X39.16Y-97.0
X77.38Y-8.35
X82.46Y-8.35
X87.54Y-8.35
X92.62Y-8.35
X107.5Y-21.92
X107.5Y-27.0
X107.5Y-32.08
X107.5Y-37.16
X107.5Y-42.24
X107.5Y-47.32
X107.5Y-52.4
X107.5Y-57.48
T7
X25.84Y-6.0
X30.92Y-6.0
X36.0Y-6.0
X41.08Y-6.0
X46.16Y-6.0
X51.24Y-6.0
M30
