%TF.GenerationSoftware,KiCad,Pcbnew,9.0.1*%
%TF.CreationDate,2026-04-22T21:30:40-07:00*%
%TF.ProjectId,MainBoard,4d61696e-426f-4617-9264-2e6b69636164,rev?*%
%TF.SameCoordinates,Original*%
%TF.FileFunction,Legend,Top*%
%TF.FilePolarity,Positive*%
%FSLAX46Y46*%
G04 Gerber Fmt 4.6, Leading zero omitted, Abs format (unit mm)*
G04 Created by KiCad (PCBNEW 9.0.1) date 2026-04-22 21:30:40*
%MOMM*%
%LPD*%
G01*
G04 APERTURE LIST*
%ADD10C,0.250000*%
%ADD11C,0.375000*%
%ADD12C,0.125000*%
%ADD13C,0.150000*%
%ADD14C,0.254000*%
%ADD15C,0.120000*%
%ADD16C,0.200000*%
%ADD17C,0.100000*%
%ADD18R,2.400000X2.400000*%
%ADD19C,2.400000*%
%ADD20R,2.550000X2.550000*%
%ADD21C,2.550000*%
%ADD22R,1.500000X1.500000*%
%ADD23C,1.500000*%
G04 APERTURE END LIST*
D10*
X20976188Y-13367952D02*
X20976188Y-11939380D01*
X22452379Y-12653666D02*
X23214284Y-12653666D01*
X22833331Y-13034619D02*
X22833331Y-12272714D01*
X24166664Y-12034619D02*
X23690474Y-12034619D01*
X23690474Y-12034619D02*
X23642855Y-12510809D01*
X23642855Y-12510809D02*
X23690474Y-12463190D01*
X23690474Y-12463190D02*
X23785712Y-12415571D01*
X23785712Y-12415571D02*
X24023807Y-12415571D01*
X24023807Y-12415571D02*
X24119045Y-12463190D01*
X24119045Y-12463190D02*
X24166664Y-12510809D01*
X24166664Y-12510809D02*
X24214283Y-12606047D01*
X24214283Y-12606047D02*
X24214283Y-12844142D01*
X24214283Y-12844142D02*
X24166664Y-12939380D01*
X24166664Y-12939380D02*
X24119045Y-12987000D01*
X24119045Y-12987000D02*
X24023807Y-13034619D01*
X24023807Y-13034619D02*
X23785712Y-13034619D01*
X23785712Y-13034619D02*
X23690474Y-12987000D01*
X23690474Y-12987000D02*
X23642855Y-12939380D01*
X24499998Y-12034619D02*
X24833331Y-13034619D01*
X24833331Y-13034619D02*
X25166664Y-12034619D01*
X26499998Y-13367952D02*
X26499998Y-11939380D01*
X28499998Y-12082238D02*
X28404760Y-12034619D01*
X28404760Y-12034619D02*
X28261903Y-12034619D01*
X28261903Y-12034619D02*
X28119046Y-12082238D01*
X28119046Y-12082238D02*
X28023808Y-12177476D01*
X28023808Y-12177476D02*
X27976189Y-12272714D01*
X27976189Y-12272714D02*
X27928570Y-12463190D01*
X27928570Y-12463190D02*
X27928570Y-12606047D01*
X27928570Y-12606047D02*
X27976189Y-12796523D01*
X27976189Y-12796523D02*
X28023808Y-12891761D01*
X28023808Y-12891761D02*
X28119046Y-12987000D01*
X28119046Y-12987000D02*
X28261903Y-13034619D01*
X28261903Y-13034619D02*
X28357141Y-13034619D01*
X28357141Y-13034619D02*
X28499998Y-12987000D01*
X28499998Y-12987000D02*
X28547617Y-12939380D01*
X28547617Y-12939380D02*
X28547617Y-12606047D01*
X28547617Y-12606047D02*
X28357141Y-12606047D01*
X28976189Y-13034619D02*
X28976189Y-12034619D01*
X28976189Y-12034619D02*
X29547617Y-13034619D01*
X29547617Y-13034619D02*
X29547617Y-12034619D01*
X30023808Y-13034619D02*
X30023808Y-12034619D01*
X30023808Y-12034619D02*
X30261903Y-12034619D01*
X30261903Y-12034619D02*
X30404760Y-12082238D01*
X30404760Y-12082238D02*
X30499998Y-12177476D01*
X30499998Y-12177476D02*
X30547617Y-12272714D01*
X30547617Y-12272714D02*
X30595236Y-12463190D01*
X30595236Y-12463190D02*
X30595236Y-12606047D01*
X30595236Y-12606047D02*
X30547617Y-12796523D01*
X30547617Y-12796523D02*
X30499998Y-12891761D01*
X30499998Y-12891761D02*
X30404760Y-12987000D01*
X30404760Y-12987000D02*
X30261903Y-13034619D01*
X30261903Y-13034619D02*
X30023808Y-13034619D01*
X32023808Y-13367952D02*
X32023808Y-11939380D01*
X33785713Y-12034619D02*
X33785713Y-12748904D01*
X33785713Y-12748904D02*
X33738094Y-12891761D01*
X33738094Y-12891761D02*
X33642856Y-12987000D01*
X33642856Y-12987000D02*
X33499999Y-13034619D01*
X33499999Y-13034619D02*
X33404761Y-13034619D01*
X34261904Y-13034619D02*
X34261904Y-12034619D01*
X34261904Y-12034619D02*
X34642856Y-12034619D01*
X34642856Y-12034619D02*
X34738094Y-12082238D01*
X34738094Y-12082238D02*
X34785713Y-12129857D01*
X34785713Y-12129857D02*
X34833332Y-12225095D01*
X34833332Y-12225095D02*
X34833332Y-12367952D01*
X34833332Y-12367952D02*
X34785713Y-12463190D01*
X34785713Y-12463190D02*
X34738094Y-12510809D01*
X34738094Y-12510809D02*
X34642856Y-12558428D01*
X34642856Y-12558428D02*
X34261904Y-12558428D01*
X35785713Y-13034619D02*
X35214285Y-13034619D01*
X35499999Y-13034619D02*
X35499999Y-12034619D01*
X35499999Y-12034619D02*
X35404761Y-12177476D01*
X35404761Y-12177476D02*
X35309523Y-12272714D01*
X35309523Y-12272714D02*
X35214285Y-12320333D01*
X37214285Y-13367952D02*
X37214285Y-11939380D01*
X38976190Y-12034619D02*
X38976190Y-12748904D01*
X38976190Y-12748904D02*
X38928571Y-12891761D01*
X38928571Y-12891761D02*
X38833333Y-12987000D01*
X38833333Y-12987000D02*
X38690476Y-13034619D01*
X38690476Y-13034619D02*
X38595238Y-13034619D01*
X39452381Y-13034619D02*
X39452381Y-12034619D01*
X39452381Y-12034619D02*
X39833333Y-12034619D01*
X39833333Y-12034619D02*
X39928571Y-12082238D01*
X39928571Y-12082238D02*
X39976190Y-12129857D01*
X39976190Y-12129857D02*
X40023809Y-12225095D01*
X40023809Y-12225095D02*
X40023809Y-12367952D01*
X40023809Y-12367952D02*
X39976190Y-12463190D01*
X39976190Y-12463190D02*
X39928571Y-12510809D01*
X39928571Y-12510809D02*
X39833333Y-12558428D01*
X39833333Y-12558428D02*
X39452381Y-12558428D01*
X40404762Y-12129857D02*
X40452381Y-12082238D01*
X40452381Y-12082238D02*
X40547619Y-12034619D01*
X40547619Y-12034619D02*
X40785714Y-12034619D01*
X40785714Y-12034619D02*
X40880952Y-12082238D01*
X40880952Y-12082238D02*
X40928571Y-12129857D01*
X40928571Y-12129857D02*
X40976190Y-12225095D01*
X40976190Y-12225095D02*
X40976190Y-12320333D01*
X40976190Y-12320333D02*
X40928571Y-12463190D01*
X40928571Y-12463190D02*
X40357143Y-13034619D01*
X40357143Y-13034619D02*
X40976190Y-13034619D01*
X42404762Y-13367952D02*
X42404762Y-11939380D01*
X44452381Y-12939380D02*
X44404762Y-12987000D01*
X44404762Y-12987000D02*
X44261905Y-13034619D01*
X44261905Y-13034619D02*
X44166667Y-13034619D01*
X44166667Y-13034619D02*
X44023810Y-12987000D01*
X44023810Y-12987000D02*
X43928572Y-12891761D01*
X43928572Y-12891761D02*
X43880953Y-12796523D01*
X43880953Y-12796523D02*
X43833334Y-12606047D01*
X43833334Y-12606047D02*
X43833334Y-12463190D01*
X43833334Y-12463190D02*
X43880953Y-12272714D01*
X43880953Y-12272714D02*
X43928572Y-12177476D01*
X43928572Y-12177476D02*
X44023810Y-12082238D01*
X44023810Y-12082238D02*
X44166667Y-12034619D01*
X44166667Y-12034619D02*
X44261905Y-12034619D01*
X44261905Y-12034619D02*
X44404762Y-12082238D01*
X44404762Y-12082238D02*
X44452381Y-12129857D01*
X44833334Y-12748904D02*
X45309524Y-12748904D01*
X44738096Y-13034619D02*
X45071429Y-12034619D01*
X45071429Y-12034619D02*
X45404762Y-13034619D01*
X45738096Y-13034619D02*
X45738096Y-12034619D01*
X45738096Y-12034619D02*
X46309524Y-13034619D01*
X46309524Y-13034619D02*
X46309524Y-12034619D01*
X47261905Y-13034619D02*
X46785715Y-13034619D01*
X46785715Y-13034619D02*
X46785715Y-12034619D01*
X48595239Y-13367952D02*
X48595239Y-11939380D01*
X50642858Y-12939380D02*
X50595239Y-12987000D01*
X50595239Y-12987000D02*
X50452382Y-13034619D01*
X50452382Y-13034619D02*
X50357144Y-13034619D01*
X50357144Y-13034619D02*
X50214287Y-12987000D01*
X50214287Y-12987000D02*
X50119049Y-12891761D01*
X50119049Y-12891761D02*
X50071430Y-12796523D01*
X50071430Y-12796523D02*
X50023811Y-12606047D01*
X50023811Y-12606047D02*
X50023811Y-12463190D01*
X50023811Y-12463190D02*
X50071430Y-12272714D01*
X50071430Y-12272714D02*
X50119049Y-12177476D01*
X50119049Y-12177476D02*
X50214287Y-12082238D01*
X50214287Y-12082238D02*
X50357144Y-12034619D01*
X50357144Y-12034619D02*
X50452382Y-12034619D01*
X50452382Y-12034619D02*
X50595239Y-12082238D01*
X50595239Y-12082238D02*
X50642858Y-12129857D01*
X51023811Y-12748904D02*
X51500001Y-12748904D01*
X50928573Y-13034619D02*
X51261906Y-12034619D01*
X51261906Y-12034619D02*
X51595239Y-13034619D01*
X51928573Y-13034619D02*
X51928573Y-12034619D01*
X51928573Y-12034619D02*
X52500001Y-13034619D01*
X52500001Y-13034619D02*
X52500001Y-12034619D01*
X52976192Y-13034619D02*
X52976192Y-12034619D01*
X52976192Y-12510809D02*
X53547620Y-12510809D01*
X53547620Y-13034619D02*
X53547620Y-12034619D01*
X55023811Y-13367952D02*
X55023811Y-11939380D01*
X32214285Y-14549324D02*
X32166666Y-14596944D01*
X32166666Y-14596944D02*
X32023809Y-14644563D01*
X32023809Y-14644563D02*
X31928571Y-14644563D01*
X31928571Y-14644563D02*
X31785714Y-14596944D01*
X31785714Y-14596944D02*
X31690476Y-14501705D01*
X31690476Y-14501705D02*
X31642857Y-14406467D01*
X31642857Y-14406467D02*
X31595238Y-14215991D01*
X31595238Y-14215991D02*
X31595238Y-14073134D01*
X31595238Y-14073134D02*
X31642857Y-13882658D01*
X31642857Y-13882658D02*
X31690476Y-13787420D01*
X31690476Y-13787420D02*
X31785714Y-13692182D01*
X31785714Y-13692182D02*
X31928571Y-13644563D01*
X31928571Y-13644563D02*
X32023809Y-13644563D01*
X32023809Y-13644563D02*
X32166666Y-13692182D01*
X32166666Y-13692182D02*
X32214285Y-13739801D01*
X32595238Y-14358848D02*
X33071428Y-14358848D01*
X32500000Y-14644563D02*
X32833333Y-13644563D01*
X32833333Y-13644563D02*
X33166666Y-14644563D01*
X33500000Y-14644563D02*
X33500000Y-13644563D01*
X33500000Y-13644563D02*
X34071428Y-14644563D01*
X34071428Y-14644563D02*
X34071428Y-13644563D01*
X35833333Y-14644563D02*
X35261905Y-14644563D01*
X35547619Y-14644563D02*
X35547619Y-13644563D01*
X35547619Y-13644563D02*
X35452381Y-13787420D01*
X35452381Y-13787420D02*
X35357143Y-13882658D01*
X35357143Y-13882658D02*
X35261905Y-13930277D01*
X37023810Y-14644563D02*
X37023810Y-13644563D01*
X37500000Y-14644563D02*
X37500000Y-13644563D01*
X37500000Y-13644563D02*
X38071428Y-14644563D01*
X38071428Y-14644563D02*
X38071428Y-13644563D01*
X38404762Y-13644563D02*
X38976190Y-13644563D01*
X38690476Y-14644563D02*
X38690476Y-13644563D01*
X39309524Y-14120753D02*
X39642857Y-14120753D01*
X39785714Y-14644563D02*
X39309524Y-14644563D01*
X39309524Y-14644563D02*
X39309524Y-13644563D01*
X39309524Y-13644563D02*
X39785714Y-13644563D01*
X40785714Y-14644563D02*
X40452381Y-14168372D01*
X40214286Y-14644563D02*
X40214286Y-13644563D01*
X40214286Y-13644563D02*
X40595238Y-13644563D01*
X40595238Y-13644563D02*
X40690476Y-13692182D01*
X40690476Y-13692182D02*
X40738095Y-13739801D01*
X40738095Y-13739801D02*
X40785714Y-13835039D01*
X40785714Y-13835039D02*
X40785714Y-13977896D01*
X40785714Y-13977896D02*
X40738095Y-14073134D01*
X40738095Y-14073134D02*
X40690476Y-14120753D01*
X40690476Y-14120753D02*
X40595238Y-14168372D01*
X40595238Y-14168372D02*
X40214286Y-14168372D01*
X41547619Y-14120753D02*
X41214286Y-14120753D01*
X41214286Y-14644563D02*
X41214286Y-13644563D01*
X41214286Y-13644563D02*
X41690476Y-13644563D01*
X42023810Y-14358848D02*
X42500000Y-14358848D01*
X41928572Y-14644563D02*
X42261905Y-13644563D01*
X42261905Y-13644563D02*
X42595238Y-14644563D01*
X43500000Y-14549324D02*
X43452381Y-14596944D01*
X43452381Y-14596944D02*
X43309524Y-14644563D01*
X43309524Y-14644563D02*
X43214286Y-14644563D01*
X43214286Y-14644563D02*
X43071429Y-14596944D01*
X43071429Y-14596944D02*
X42976191Y-14501705D01*
X42976191Y-14501705D02*
X42928572Y-14406467D01*
X42928572Y-14406467D02*
X42880953Y-14215991D01*
X42880953Y-14215991D02*
X42880953Y-14073134D01*
X42880953Y-14073134D02*
X42928572Y-13882658D01*
X42928572Y-13882658D02*
X42976191Y-13787420D01*
X42976191Y-13787420D02*
X43071429Y-13692182D01*
X43071429Y-13692182D02*
X43214286Y-13644563D01*
X43214286Y-13644563D02*
X43309524Y-13644563D01*
X43309524Y-13644563D02*
X43452381Y-13692182D01*
X43452381Y-13692182D02*
X43500000Y-13739801D01*
X43928572Y-14120753D02*
X44261905Y-14120753D01*
X44404762Y-14644563D02*
X43928572Y-14644563D01*
X43928572Y-14644563D02*
X43928572Y-13644563D01*
X43928572Y-13644563D02*
X44404762Y-13644563D01*
D11*
X8392856Y-70409071D02*
X8321428Y-70480500D01*
X8321428Y-70480500D02*
X8107142Y-70551928D01*
X8107142Y-70551928D02*
X7964285Y-70551928D01*
X7964285Y-70551928D02*
X7749999Y-70480500D01*
X7749999Y-70480500D02*
X7607142Y-70337642D01*
X7607142Y-70337642D02*
X7535713Y-70194785D01*
X7535713Y-70194785D02*
X7464285Y-69909071D01*
X7464285Y-69909071D02*
X7464285Y-69694785D01*
X7464285Y-69694785D02*
X7535713Y-69409071D01*
X7535713Y-69409071D02*
X7607142Y-69266214D01*
X7607142Y-69266214D02*
X7749999Y-69123357D01*
X7749999Y-69123357D02*
X7964285Y-69051928D01*
X7964285Y-69051928D02*
X8107142Y-69051928D01*
X8107142Y-69051928D02*
X8321428Y-69123357D01*
X8321428Y-69123357D02*
X8392856Y-69194785D01*
X9035713Y-70551928D02*
X9035713Y-69051928D01*
X9035713Y-69766214D02*
X9892856Y-69766214D01*
X9892856Y-70551928D02*
X9892856Y-69051928D01*
X10535714Y-70123357D02*
X11250000Y-70123357D01*
X10392857Y-70551928D02*
X10892857Y-69051928D01*
X10892857Y-69051928D02*
X11392857Y-70551928D01*
X12535714Y-70551928D02*
X12535714Y-69051928D01*
X12535714Y-70480500D02*
X12392856Y-70551928D01*
X12392856Y-70551928D02*
X12107142Y-70551928D01*
X12107142Y-70551928D02*
X11964285Y-70480500D01*
X11964285Y-70480500D02*
X11892856Y-70409071D01*
X11892856Y-70409071D02*
X11821428Y-70266214D01*
X11821428Y-70266214D02*
X11821428Y-69837642D01*
X11821428Y-69837642D02*
X11892856Y-69694785D01*
X11892856Y-69694785D02*
X11964285Y-69623357D01*
X11964285Y-69623357D02*
X12107142Y-69551928D01*
X12107142Y-69551928D02*
X12392856Y-69551928D01*
X12392856Y-69551928D02*
X12535714Y-69623357D01*
X13821428Y-70480500D02*
X13678571Y-70551928D01*
X13678571Y-70551928D02*
X13392857Y-70551928D01*
X13392857Y-70551928D02*
X13249999Y-70480500D01*
X13249999Y-70480500D02*
X13178571Y-70337642D01*
X13178571Y-70337642D02*
X13178571Y-69766214D01*
X13178571Y-69766214D02*
X13249999Y-69623357D01*
X13249999Y-69623357D02*
X13392857Y-69551928D01*
X13392857Y-69551928D02*
X13678571Y-69551928D01*
X13678571Y-69551928D02*
X13821428Y-69623357D01*
X13821428Y-69623357D02*
X13892857Y-69766214D01*
X13892857Y-69766214D02*
X13892857Y-69909071D01*
X13892857Y-69909071D02*
X13178571Y-70051928D01*
X14535713Y-70551928D02*
X14535713Y-69051928D01*
X14535713Y-69051928D02*
X15035713Y-70123357D01*
X15035713Y-70123357D02*
X15535713Y-69051928D01*
X15535713Y-69051928D02*
X15535713Y-70551928D01*
X16535714Y-69051928D02*
X16821428Y-69051928D01*
X16821428Y-69051928D02*
X16964285Y-69123357D01*
X16964285Y-69123357D02*
X17107142Y-69266214D01*
X17107142Y-69266214D02*
X17178571Y-69551928D01*
X17178571Y-69551928D02*
X17178571Y-70051928D01*
X17178571Y-70051928D02*
X17107142Y-70337642D01*
X17107142Y-70337642D02*
X16964285Y-70480500D01*
X16964285Y-70480500D02*
X16821428Y-70551928D01*
X16821428Y-70551928D02*
X16535714Y-70551928D01*
X16535714Y-70551928D02*
X16392857Y-70480500D01*
X16392857Y-70480500D02*
X16249999Y-70337642D01*
X16249999Y-70337642D02*
X16178571Y-70051928D01*
X16178571Y-70051928D02*
X16178571Y-69551928D01*
X16178571Y-69551928D02*
X16249999Y-69266214D01*
X16249999Y-69266214D02*
X16392857Y-69123357D01*
X16392857Y-69123357D02*
X16535714Y-69051928D01*
X18964285Y-70551928D02*
X18964285Y-69051928D01*
X19678571Y-70551928D02*
X19678571Y-69051928D01*
X19678571Y-69051928D02*
X20535714Y-70551928D01*
X20535714Y-70551928D02*
X20535714Y-69051928D01*
X21035715Y-69051928D02*
X21892858Y-69051928D01*
X21464286Y-70551928D02*
X21464286Y-69051928D01*
X22392857Y-69766214D02*
X22892857Y-69766214D01*
X23107143Y-70551928D02*
X22392857Y-70551928D01*
X22392857Y-70551928D02*
X22392857Y-69051928D01*
X22392857Y-69051928D02*
X23107143Y-69051928D01*
X24607143Y-70551928D02*
X24107143Y-69837642D01*
X23750000Y-70551928D02*
X23750000Y-69051928D01*
X23750000Y-69051928D02*
X24321429Y-69051928D01*
X24321429Y-69051928D02*
X24464286Y-69123357D01*
X24464286Y-69123357D02*
X24535715Y-69194785D01*
X24535715Y-69194785D02*
X24607143Y-69337642D01*
X24607143Y-69337642D02*
X24607143Y-69551928D01*
X24607143Y-69551928D02*
X24535715Y-69694785D01*
X24535715Y-69694785D02*
X24464286Y-69766214D01*
X24464286Y-69766214D02*
X24321429Y-69837642D01*
X24321429Y-69837642D02*
X23750000Y-69837642D01*
X25750000Y-69766214D02*
X25250000Y-69766214D01*
X25250000Y-70551928D02*
X25250000Y-69051928D01*
X25250000Y-69051928D02*
X25964286Y-69051928D01*
X26464286Y-70123357D02*
X27178572Y-70123357D01*
X26321429Y-70551928D02*
X26821429Y-69051928D01*
X26821429Y-69051928D02*
X27321429Y-70551928D01*
X28678571Y-70409071D02*
X28607143Y-70480500D01*
X28607143Y-70480500D02*
X28392857Y-70551928D01*
X28392857Y-70551928D02*
X28250000Y-70551928D01*
X28250000Y-70551928D02*
X28035714Y-70480500D01*
X28035714Y-70480500D02*
X27892857Y-70337642D01*
X27892857Y-70337642D02*
X27821428Y-70194785D01*
X27821428Y-70194785D02*
X27750000Y-69909071D01*
X27750000Y-69909071D02*
X27750000Y-69694785D01*
X27750000Y-69694785D02*
X27821428Y-69409071D01*
X27821428Y-69409071D02*
X27892857Y-69266214D01*
X27892857Y-69266214D02*
X28035714Y-69123357D01*
X28035714Y-69123357D02*
X28250000Y-69051928D01*
X28250000Y-69051928D02*
X28392857Y-69051928D01*
X28392857Y-69051928D02*
X28607143Y-69123357D01*
X28607143Y-69123357D02*
X28678571Y-69194785D01*
X29321428Y-69766214D02*
X29821428Y-69766214D01*
X30035714Y-70551928D02*
X29321428Y-70551928D01*
X29321428Y-70551928D02*
X29321428Y-69051928D01*
X29321428Y-69051928D02*
X30035714Y-69051928D01*
X32321428Y-69766214D02*
X32535714Y-69837642D01*
X32535714Y-69837642D02*
X32607143Y-69909071D01*
X32607143Y-69909071D02*
X32678571Y-70051928D01*
X32678571Y-70051928D02*
X32678571Y-70266214D01*
X32678571Y-70266214D02*
X32607143Y-70409071D01*
X32607143Y-70409071D02*
X32535714Y-70480500D01*
X32535714Y-70480500D02*
X32392857Y-70551928D01*
X32392857Y-70551928D02*
X31821428Y-70551928D01*
X31821428Y-70551928D02*
X31821428Y-69051928D01*
X31821428Y-69051928D02*
X32321428Y-69051928D01*
X32321428Y-69051928D02*
X32464286Y-69123357D01*
X32464286Y-69123357D02*
X32535714Y-69194785D01*
X32535714Y-69194785D02*
X32607143Y-69337642D01*
X32607143Y-69337642D02*
X32607143Y-69480500D01*
X32607143Y-69480500D02*
X32535714Y-69623357D01*
X32535714Y-69623357D02*
X32464286Y-69694785D01*
X32464286Y-69694785D02*
X32321428Y-69766214D01*
X32321428Y-69766214D02*
X31821428Y-69766214D01*
X33607143Y-69051928D02*
X33892857Y-69051928D01*
X33892857Y-69051928D02*
X34035714Y-69123357D01*
X34035714Y-69123357D02*
X34178571Y-69266214D01*
X34178571Y-69266214D02*
X34250000Y-69551928D01*
X34250000Y-69551928D02*
X34250000Y-70051928D01*
X34250000Y-70051928D02*
X34178571Y-70337642D01*
X34178571Y-70337642D02*
X34035714Y-70480500D01*
X34035714Y-70480500D02*
X33892857Y-70551928D01*
X33892857Y-70551928D02*
X33607143Y-70551928D01*
X33607143Y-70551928D02*
X33464286Y-70480500D01*
X33464286Y-70480500D02*
X33321428Y-70337642D01*
X33321428Y-70337642D02*
X33250000Y-70051928D01*
X33250000Y-70051928D02*
X33250000Y-69551928D01*
X33250000Y-69551928D02*
X33321428Y-69266214D01*
X33321428Y-69266214D02*
X33464286Y-69123357D01*
X33464286Y-69123357D02*
X33607143Y-69051928D01*
X34821429Y-70123357D02*
X35535715Y-70123357D01*
X34678572Y-70551928D02*
X35178572Y-69051928D01*
X35178572Y-69051928D02*
X35678572Y-70551928D01*
X37035714Y-70551928D02*
X36535714Y-69837642D01*
X36178571Y-70551928D02*
X36178571Y-69051928D01*
X36178571Y-69051928D02*
X36750000Y-69051928D01*
X36750000Y-69051928D02*
X36892857Y-69123357D01*
X36892857Y-69123357D02*
X36964286Y-69194785D01*
X36964286Y-69194785D02*
X37035714Y-69337642D01*
X37035714Y-69337642D02*
X37035714Y-69551928D01*
X37035714Y-69551928D02*
X36964286Y-69694785D01*
X36964286Y-69694785D02*
X36892857Y-69766214D01*
X36892857Y-69766214D02*
X36750000Y-69837642D01*
X36750000Y-69837642D02*
X36178571Y-69837642D01*
X37678571Y-70551928D02*
X37678571Y-69051928D01*
X37678571Y-69051928D02*
X38035714Y-69051928D01*
X38035714Y-69051928D02*
X38250000Y-69123357D01*
X38250000Y-69123357D02*
X38392857Y-69266214D01*
X38392857Y-69266214D02*
X38464286Y-69409071D01*
X38464286Y-69409071D02*
X38535714Y-69694785D01*
X38535714Y-69694785D02*
X38535714Y-69909071D01*
X38535714Y-69909071D02*
X38464286Y-70194785D01*
X38464286Y-70194785D02*
X38392857Y-70337642D01*
X38392857Y-70337642D02*
X38250000Y-70480500D01*
X38250000Y-70480500D02*
X38035714Y-70551928D01*
X38035714Y-70551928D02*
X37678571Y-70551928D01*
X1892856Y-72823987D02*
X1821428Y-72895416D01*
X1821428Y-72895416D02*
X1607142Y-72966844D01*
X1607142Y-72966844D02*
X1464285Y-72966844D01*
X1464285Y-72966844D02*
X1249999Y-72895416D01*
X1249999Y-72895416D02*
X1107142Y-72752558D01*
X1107142Y-72752558D02*
X1035713Y-72609701D01*
X1035713Y-72609701D02*
X964285Y-72323987D01*
X964285Y-72323987D02*
X964285Y-72109701D01*
X964285Y-72109701D02*
X1035713Y-71823987D01*
X1035713Y-71823987D02*
X1107142Y-71681130D01*
X1107142Y-71681130D02*
X1249999Y-71538273D01*
X1249999Y-71538273D02*
X1464285Y-71466844D01*
X1464285Y-71466844D02*
X1607142Y-71466844D01*
X1607142Y-71466844D02*
X1821428Y-71538273D01*
X1821428Y-71538273D02*
X1892856Y-71609701D01*
X2464285Y-72538273D02*
X3178571Y-72538273D01*
X2321428Y-72966844D02*
X2821428Y-71466844D01*
X2821428Y-71466844D02*
X3321428Y-72966844D01*
X3821427Y-72966844D02*
X3821427Y-71466844D01*
X3821427Y-71466844D02*
X4678570Y-72966844D01*
X4678570Y-72966844D02*
X4678570Y-71466844D01*
X7035713Y-72181130D02*
X6535713Y-72181130D01*
X6535713Y-72966844D02*
X6535713Y-71466844D01*
X6535713Y-71466844D02*
X7249999Y-71466844D01*
X7821427Y-71466844D02*
X7821427Y-72681130D01*
X7821427Y-72681130D02*
X7892856Y-72823987D01*
X7892856Y-72823987D02*
X7964285Y-72895416D01*
X7964285Y-72895416D02*
X8107142Y-72966844D01*
X8107142Y-72966844D02*
X8392856Y-72966844D01*
X8392856Y-72966844D02*
X8535713Y-72895416D01*
X8535713Y-72895416D02*
X8607142Y-72823987D01*
X8607142Y-72823987D02*
X8678570Y-72681130D01*
X8678570Y-72681130D02*
X8678570Y-71466844D01*
X9392856Y-72966844D02*
X9392856Y-71466844D01*
X9392856Y-71466844D02*
X10249999Y-72966844D01*
X10249999Y-72966844D02*
X10249999Y-71466844D01*
X11821428Y-72823987D02*
X11750000Y-72895416D01*
X11750000Y-72895416D02*
X11535714Y-72966844D01*
X11535714Y-72966844D02*
X11392857Y-72966844D01*
X11392857Y-72966844D02*
X11178571Y-72895416D01*
X11178571Y-72895416D02*
X11035714Y-72752558D01*
X11035714Y-72752558D02*
X10964285Y-72609701D01*
X10964285Y-72609701D02*
X10892857Y-72323987D01*
X10892857Y-72323987D02*
X10892857Y-72109701D01*
X10892857Y-72109701D02*
X10964285Y-71823987D01*
X10964285Y-71823987D02*
X11035714Y-71681130D01*
X11035714Y-71681130D02*
X11178571Y-71538273D01*
X11178571Y-71538273D02*
X11392857Y-71466844D01*
X11392857Y-71466844D02*
X11535714Y-71466844D01*
X11535714Y-71466844D02*
X11750000Y-71538273D01*
X11750000Y-71538273D02*
X11821428Y-71609701D01*
X12250000Y-71466844D02*
X13107143Y-71466844D01*
X12678571Y-72966844D02*
X12678571Y-71466844D01*
X13607142Y-72966844D02*
X13607142Y-71466844D01*
X14607143Y-71466844D02*
X14892857Y-71466844D01*
X14892857Y-71466844D02*
X15035714Y-71538273D01*
X15035714Y-71538273D02*
X15178571Y-71681130D01*
X15178571Y-71681130D02*
X15250000Y-71966844D01*
X15250000Y-71966844D02*
X15250000Y-72466844D01*
X15250000Y-72466844D02*
X15178571Y-72752558D01*
X15178571Y-72752558D02*
X15035714Y-72895416D01*
X15035714Y-72895416D02*
X14892857Y-72966844D01*
X14892857Y-72966844D02*
X14607143Y-72966844D01*
X14607143Y-72966844D02*
X14464286Y-72895416D01*
X14464286Y-72895416D02*
X14321428Y-72752558D01*
X14321428Y-72752558D02*
X14250000Y-72466844D01*
X14250000Y-72466844D02*
X14250000Y-71966844D01*
X14250000Y-71966844D02*
X14321428Y-71681130D01*
X14321428Y-71681130D02*
X14464286Y-71538273D01*
X14464286Y-71538273D02*
X14607143Y-71466844D01*
X15892857Y-72966844D02*
X15892857Y-71466844D01*
X15892857Y-71466844D02*
X16750000Y-72966844D01*
X16750000Y-72966844D02*
X16750000Y-71466844D01*
X18535715Y-72538273D02*
X19250001Y-72538273D01*
X18392858Y-72966844D02*
X18892858Y-71466844D01*
X18892858Y-71466844D02*
X19392858Y-72966844D01*
X19821429Y-72895416D02*
X20035715Y-72966844D01*
X20035715Y-72966844D02*
X20392857Y-72966844D01*
X20392857Y-72966844D02*
X20535715Y-72895416D01*
X20535715Y-72895416D02*
X20607143Y-72823987D01*
X20607143Y-72823987D02*
X20678572Y-72681130D01*
X20678572Y-72681130D02*
X20678572Y-72538273D01*
X20678572Y-72538273D02*
X20607143Y-72395416D01*
X20607143Y-72395416D02*
X20535715Y-72323987D01*
X20535715Y-72323987D02*
X20392857Y-72252558D01*
X20392857Y-72252558D02*
X20107143Y-72181130D01*
X20107143Y-72181130D02*
X19964286Y-72109701D01*
X19964286Y-72109701D02*
X19892857Y-72038273D01*
X19892857Y-72038273D02*
X19821429Y-71895416D01*
X19821429Y-71895416D02*
X19821429Y-71752558D01*
X19821429Y-71752558D02*
X19892857Y-71609701D01*
X19892857Y-71609701D02*
X19964286Y-71538273D01*
X19964286Y-71538273D02*
X20107143Y-71466844D01*
X20107143Y-71466844D02*
X20464286Y-71466844D01*
X20464286Y-71466844D02*
X20678572Y-71538273D01*
X22392857Y-72895416D02*
X22607143Y-72966844D01*
X22607143Y-72966844D02*
X22964285Y-72966844D01*
X22964285Y-72966844D02*
X23107143Y-72895416D01*
X23107143Y-72895416D02*
X23178571Y-72823987D01*
X23178571Y-72823987D02*
X23250000Y-72681130D01*
X23250000Y-72681130D02*
X23250000Y-72538273D01*
X23250000Y-72538273D02*
X23178571Y-72395416D01*
X23178571Y-72395416D02*
X23107143Y-72323987D01*
X23107143Y-72323987D02*
X22964285Y-72252558D01*
X22964285Y-72252558D02*
X22678571Y-72181130D01*
X22678571Y-72181130D02*
X22535714Y-72109701D01*
X22535714Y-72109701D02*
X22464285Y-72038273D01*
X22464285Y-72038273D02*
X22392857Y-71895416D01*
X22392857Y-71895416D02*
X22392857Y-71752558D01*
X22392857Y-71752558D02*
X22464285Y-71609701D01*
X22464285Y-71609701D02*
X22535714Y-71538273D01*
X22535714Y-71538273D02*
X22678571Y-71466844D01*
X22678571Y-71466844D02*
X23035714Y-71466844D01*
X23035714Y-71466844D02*
X23250000Y-71538273D01*
X23678571Y-71466844D02*
X24535714Y-71466844D01*
X24107142Y-72966844D02*
X24107142Y-71466844D01*
X24964285Y-72538273D02*
X25678571Y-72538273D01*
X24821428Y-72966844D02*
X25321428Y-71466844D01*
X25321428Y-71466844D02*
X25821428Y-72966844D01*
X26107142Y-71466844D02*
X26964285Y-71466844D01*
X26535713Y-72966844D02*
X26535713Y-71466844D01*
X27464284Y-72966844D02*
X27464284Y-71466844D01*
X28464285Y-71466844D02*
X28749999Y-71466844D01*
X28749999Y-71466844D02*
X28892856Y-71538273D01*
X28892856Y-71538273D02*
X29035713Y-71681130D01*
X29035713Y-71681130D02*
X29107142Y-71966844D01*
X29107142Y-71966844D02*
X29107142Y-72466844D01*
X29107142Y-72466844D02*
X29035713Y-72752558D01*
X29035713Y-72752558D02*
X28892856Y-72895416D01*
X28892856Y-72895416D02*
X28749999Y-72966844D01*
X28749999Y-72966844D02*
X28464285Y-72966844D01*
X28464285Y-72966844D02*
X28321428Y-72895416D01*
X28321428Y-72895416D02*
X28178570Y-72752558D01*
X28178570Y-72752558D02*
X28107142Y-72466844D01*
X28107142Y-72466844D02*
X28107142Y-71966844D01*
X28107142Y-71966844D02*
X28178570Y-71681130D01*
X28178570Y-71681130D02*
X28321428Y-71538273D01*
X28321428Y-71538273D02*
X28464285Y-71466844D01*
X29749999Y-72966844D02*
X29749999Y-71466844D01*
X29749999Y-71466844D02*
X30607142Y-72966844D01*
X30607142Y-72966844D02*
X30607142Y-71466844D01*
X32750000Y-71466844D02*
X33035714Y-71466844D01*
X33035714Y-71466844D02*
X33178571Y-71538273D01*
X33178571Y-71538273D02*
X33321428Y-71681130D01*
X33321428Y-71681130D02*
X33392857Y-71966844D01*
X33392857Y-71966844D02*
X33392857Y-72466844D01*
X33392857Y-72466844D02*
X33321428Y-72752558D01*
X33321428Y-72752558D02*
X33178571Y-72895416D01*
X33178571Y-72895416D02*
X33035714Y-72966844D01*
X33035714Y-72966844D02*
X32750000Y-72966844D01*
X32750000Y-72966844D02*
X32607143Y-72895416D01*
X32607143Y-72895416D02*
X32464285Y-72752558D01*
X32464285Y-72752558D02*
X32392857Y-72466844D01*
X32392857Y-72466844D02*
X32392857Y-71966844D01*
X32392857Y-71966844D02*
X32464285Y-71681130D01*
X32464285Y-71681130D02*
X32607143Y-71538273D01*
X32607143Y-71538273D02*
X32750000Y-71466844D01*
X34892857Y-72966844D02*
X34392857Y-72252558D01*
X34035714Y-72966844D02*
X34035714Y-71466844D01*
X34035714Y-71466844D02*
X34607143Y-71466844D01*
X34607143Y-71466844D02*
X34750000Y-71538273D01*
X34750000Y-71538273D02*
X34821429Y-71609701D01*
X34821429Y-71609701D02*
X34892857Y-71752558D01*
X34892857Y-71752558D02*
X34892857Y-71966844D01*
X34892857Y-71966844D02*
X34821429Y-72109701D01*
X34821429Y-72109701D02*
X34750000Y-72181130D01*
X34750000Y-72181130D02*
X34607143Y-72252558D01*
X34607143Y-72252558D02*
X34035714Y-72252558D01*
X36464286Y-71466844D02*
X36964286Y-72966844D01*
X36964286Y-72966844D02*
X37464286Y-71466844D01*
X37964285Y-72181130D02*
X38464285Y-72181130D01*
X38678571Y-72966844D02*
X37964285Y-72966844D01*
X37964285Y-72966844D02*
X37964285Y-71466844D01*
X37964285Y-71466844D02*
X38678571Y-71466844D01*
X39321428Y-72966844D02*
X39321428Y-71466844D01*
X39321428Y-72181130D02*
X40178571Y-72181130D01*
X40178571Y-72966844D02*
X40178571Y-71466844D01*
X40892857Y-72966844D02*
X40892857Y-71466844D01*
X42464286Y-72823987D02*
X42392858Y-72895416D01*
X42392858Y-72895416D02*
X42178572Y-72966844D01*
X42178572Y-72966844D02*
X42035715Y-72966844D01*
X42035715Y-72966844D02*
X41821429Y-72895416D01*
X41821429Y-72895416D02*
X41678572Y-72752558D01*
X41678572Y-72752558D02*
X41607143Y-72609701D01*
X41607143Y-72609701D02*
X41535715Y-72323987D01*
X41535715Y-72323987D02*
X41535715Y-72109701D01*
X41535715Y-72109701D02*
X41607143Y-71823987D01*
X41607143Y-71823987D02*
X41678572Y-71681130D01*
X41678572Y-71681130D02*
X41821429Y-71538273D01*
X41821429Y-71538273D02*
X42035715Y-71466844D01*
X42035715Y-71466844D02*
X42178572Y-71466844D01*
X42178572Y-71466844D02*
X42392858Y-71538273D01*
X42392858Y-71538273D02*
X42464286Y-71609701D01*
X43821429Y-72966844D02*
X43107143Y-72966844D01*
X43107143Y-72966844D02*
X43107143Y-71466844D01*
X44321429Y-72181130D02*
X44821429Y-72181130D01*
X45035715Y-72966844D02*
X44321429Y-72966844D01*
X44321429Y-72966844D02*
X44321429Y-71466844D01*
X44321429Y-71466844D02*
X45035715Y-71466844D01*
D10*
X19999999Y-102367952D02*
X19999999Y-100939380D01*
X21999999Y-101082238D02*
X21904761Y-101034619D01*
X21904761Y-101034619D02*
X21761904Y-101034619D01*
X21761904Y-101034619D02*
X21619047Y-101082238D01*
X21619047Y-101082238D02*
X21523809Y-101177476D01*
X21523809Y-101177476D02*
X21476190Y-101272714D01*
X21476190Y-101272714D02*
X21428571Y-101463190D01*
X21428571Y-101463190D02*
X21428571Y-101606047D01*
X21428571Y-101606047D02*
X21476190Y-101796523D01*
X21476190Y-101796523D02*
X21523809Y-101891761D01*
X21523809Y-101891761D02*
X21619047Y-101987000D01*
X21619047Y-101987000D02*
X21761904Y-102034619D01*
X21761904Y-102034619D02*
X21857142Y-102034619D01*
X21857142Y-102034619D02*
X21999999Y-101987000D01*
X21999999Y-101987000D02*
X22047618Y-101939380D01*
X22047618Y-101939380D02*
X22047618Y-101606047D01*
X22047618Y-101606047D02*
X21857142Y-101606047D01*
X22476190Y-102034619D02*
X22476190Y-101034619D01*
X22476190Y-101034619D02*
X23047618Y-102034619D01*
X23047618Y-102034619D02*
X23047618Y-101034619D01*
X23523809Y-102034619D02*
X23523809Y-101034619D01*
X23523809Y-101034619D02*
X23761904Y-101034619D01*
X23761904Y-101034619D02*
X23904761Y-101082238D01*
X23904761Y-101082238D02*
X23999999Y-101177476D01*
X23999999Y-101177476D02*
X24047618Y-101272714D01*
X24047618Y-101272714D02*
X24095237Y-101463190D01*
X24095237Y-101463190D02*
X24095237Y-101606047D01*
X24095237Y-101606047D02*
X24047618Y-101796523D01*
X24047618Y-101796523D02*
X23999999Y-101891761D01*
X23999999Y-101891761D02*
X23904761Y-101987000D01*
X23904761Y-101987000D02*
X23761904Y-102034619D01*
X23761904Y-102034619D02*
X23523809Y-102034619D01*
X25523809Y-102367952D02*
X25523809Y-100939380D01*
X27000000Y-101653666D02*
X27761905Y-101653666D01*
X27380952Y-102034619D02*
X27380952Y-101272714D01*
X28761904Y-102034619D02*
X28190476Y-102034619D01*
X28476190Y-102034619D02*
X28476190Y-101034619D01*
X28476190Y-101034619D02*
X28380952Y-101177476D01*
X28380952Y-101177476D02*
X28285714Y-101272714D01*
X28285714Y-101272714D02*
X28190476Y-101320333D01*
X29142857Y-101129857D02*
X29190476Y-101082238D01*
X29190476Y-101082238D02*
X29285714Y-101034619D01*
X29285714Y-101034619D02*
X29523809Y-101034619D01*
X29523809Y-101034619D02*
X29619047Y-101082238D01*
X29619047Y-101082238D02*
X29666666Y-101129857D01*
X29666666Y-101129857D02*
X29714285Y-101225095D01*
X29714285Y-101225095D02*
X29714285Y-101320333D01*
X29714285Y-101320333D02*
X29666666Y-101463190D01*
X29666666Y-101463190D02*
X29095238Y-102034619D01*
X29095238Y-102034619D02*
X29714285Y-102034619D01*
X30000000Y-101034619D02*
X30333333Y-102034619D01*
X30333333Y-102034619D02*
X30666666Y-101034619D01*
X32000000Y-102367952D02*
X32000000Y-100939380D01*
X34000000Y-101082238D02*
X33904762Y-101034619D01*
X33904762Y-101034619D02*
X33761905Y-101034619D01*
X33761905Y-101034619D02*
X33619048Y-101082238D01*
X33619048Y-101082238D02*
X33523810Y-101177476D01*
X33523810Y-101177476D02*
X33476191Y-101272714D01*
X33476191Y-101272714D02*
X33428572Y-101463190D01*
X33428572Y-101463190D02*
X33428572Y-101606047D01*
X33428572Y-101606047D02*
X33476191Y-101796523D01*
X33476191Y-101796523D02*
X33523810Y-101891761D01*
X33523810Y-101891761D02*
X33619048Y-101987000D01*
X33619048Y-101987000D02*
X33761905Y-102034619D01*
X33761905Y-102034619D02*
X33857143Y-102034619D01*
X33857143Y-102034619D02*
X34000000Y-101987000D01*
X34000000Y-101987000D02*
X34047619Y-101939380D01*
X34047619Y-101939380D02*
X34047619Y-101606047D01*
X34047619Y-101606047D02*
X33857143Y-101606047D01*
X34476191Y-102034619D02*
X34476191Y-101034619D01*
X34476191Y-101034619D02*
X35047619Y-102034619D01*
X35047619Y-102034619D02*
X35047619Y-101034619D01*
X35523810Y-102034619D02*
X35523810Y-101034619D01*
X35523810Y-101034619D02*
X35761905Y-101034619D01*
X35761905Y-101034619D02*
X35904762Y-101082238D01*
X35904762Y-101082238D02*
X36000000Y-101177476D01*
X36000000Y-101177476D02*
X36047619Y-101272714D01*
X36047619Y-101272714D02*
X36095238Y-101463190D01*
X36095238Y-101463190D02*
X36095238Y-101606047D01*
X36095238Y-101606047D02*
X36047619Y-101796523D01*
X36047619Y-101796523D02*
X36000000Y-101891761D01*
X36000000Y-101891761D02*
X35904762Y-101987000D01*
X35904762Y-101987000D02*
X35761905Y-102034619D01*
X35761905Y-102034619D02*
X35523810Y-102034619D01*
X37523810Y-102367952D02*
X37523810Y-100939380D01*
X39000001Y-101653666D02*
X39761906Y-101653666D01*
X39380953Y-102034619D02*
X39380953Y-101272714D01*
X40761905Y-102034619D02*
X40190477Y-102034619D01*
X40476191Y-102034619D02*
X40476191Y-101034619D01*
X40476191Y-101034619D02*
X40380953Y-101177476D01*
X40380953Y-101177476D02*
X40285715Y-101272714D01*
X40285715Y-101272714D02*
X40190477Y-101320333D01*
X41142858Y-101129857D02*
X41190477Y-101082238D01*
X41190477Y-101082238D02*
X41285715Y-101034619D01*
X41285715Y-101034619D02*
X41523810Y-101034619D01*
X41523810Y-101034619D02*
X41619048Y-101082238D01*
X41619048Y-101082238D02*
X41666667Y-101129857D01*
X41666667Y-101129857D02*
X41714286Y-101225095D01*
X41714286Y-101225095D02*
X41714286Y-101320333D01*
X41714286Y-101320333D02*
X41666667Y-101463190D01*
X41666667Y-101463190D02*
X41095239Y-102034619D01*
X41095239Y-102034619D02*
X41714286Y-102034619D01*
X42000001Y-101034619D02*
X42333334Y-102034619D01*
X42333334Y-102034619D02*
X42666667Y-101034619D01*
X44000001Y-102367952D02*
X44000001Y-100939380D01*
X28833333Y-103644563D02*
X28261905Y-103644563D01*
X28547619Y-103644563D02*
X28547619Y-102644563D01*
X28547619Y-102644563D02*
X28452381Y-102787420D01*
X28452381Y-102787420D02*
X28357143Y-102882658D01*
X28357143Y-102882658D02*
X28261905Y-102930277D01*
X29214286Y-102739801D02*
X29261905Y-102692182D01*
X29261905Y-102692182D02*
X29357143Y-102644563D01*
X29357143Y-102644563D02*
X29595238Y-102644563D01*
X29595238Y-102644563D02*
X29690476Y-102692182D01*
X29690476Y-102692182D02*
X29738095Y-102739801D01*
X29738095Y-102739801D02*
X29785714Y-102835039D01*
X29785714Y-102835039D02*
X29785714Y-102930277D01*
X29785714Y-102930277D02*
X29738095Y-103073134D01*
X29738095Y-103073134D02*
X29166667Y-103644563D01*
X29166667Y-103644563D02*
X29785714Y-103644563D01*
X30071429Y-102644563D02*
X30404762Y-103644563D01*
X30404762Y-103644563D02*
X30738095Y-102644563D01*
X31833334Y-103644563D02*
X31833334Y-102644563D01*
X32309524Y-103644563D02*
X32309524Y-102644563D01*
X32309524Y-102644563D02*
X32880952Y-103644563D01*
X32880952Y-103644563D02*
X32880952Y-102644563D01*
X33357143Y-103644563D02*
X33357143Y-102644563D01*
X33357143Y-102644563D02*
X33738095Y-102644563D01*
X33738095Y-102644563D02*
X33833333Y-102692182D01*
X33833333Y-102692182D02*
X33880952Y-102739801D01*
X33880952Y-102739801D02*
X33928571Y-102835039D01*
X33928571Y-102835039D02*
X33928571Y-102977896D01*
X33928571Y-102977896D02*
X33880952Y-103073134D01*
X33880952Y-103073134D02*
X33833333Y-103120753D01*
X33833333Y-103120753D02*
X33738095Y-103168372D01*
X33738095Y-103168372D02*
X33357143Y-103168372D01*
X34357143Y-102644563D02*
X34357143Y-103454086D01*
X34357143Y-103454086D02*
X34404762Y-103549324D01*
X34404762Y-103549324D02*
X34452381Y-103596944D01*
X34452381Y-103596944D02*
X34547619Y-103644563D01*
X34547619Y-103644563D02*
X34738095Y-103644563D01*
X34738095Y-103644563D02*
X34833333Y-103596944D01*
X34833333Y-103596944D02*
X34880952Y-103549324D01*
X34880952Y-103549324D02*
X34928571Y-103454086D01*
X34928571Y-103454086D02*
X34928571Y-102644563D01*
X35261905Y-102644563D02*
X35833333Y-102644563D01*
X35547619Y-103644563D02*
X35547619Y-102644563D01*
D12*
X95377172Y-45189378D02*
X95341458Y-45153664D01*
X95341458Y-45153664D02*
X95305743Y-45046521D01*
X95305743Y-45046521D02*
X95305743Y-44975093D01*
X95305743Y-44975093D02*
X95341458Y-44867950D01*
X95341458Y-44867950D02*
X95412886Y-44796521D01*
X95412886Y-44796521D02*
X95484315Y-44760807D01*
X95484315Y-44760807D02*
X95627172Y-44725093D01*
X95627172Y-44725093D02*
X95734315Y-44725093D01*
X95734315Y-44725093D02*
X95877172Y-44760807D01*
X95877172Y-44760807D02*
X95948600Y-44796521D01*
X95948600Y-44796521D02*
X96020029Y-44867950D01*
X96020029Y-44867950D02*
X96055743Y-44975093D01*
X96055743Y-44975093D02*
X96055743Y-45046521D01*
X96055743Y-45046521D02*
X96020029Y-45153664D01*
X96020029Y-45153664D02*
X95984315Y-45189378D01*
X95305743Y-45510807D02*
X96055743Y-45510807D01*
X95698600Y-45510807D02*
X95698600Y-45939378D01*
X95305743Y-45939378D02*
X96055743Y-45939378D01*
X95520029Y-46260807D02*
X95520029Y-46617950D01*
X95305743Y-46189378D02*
X96055743Y-46439378D01*
X96055743Y-46439378D02*
X95305743Y-46689378D01*
X95305743Y-47260807D02*
X96055743Y-47260807D01*
X95341458Y-47260807D02*
X95305743Y-47189378D01*
X95305743Y-47189378D02*
X95305743Y-47046521D01*
X95305743Y-47046521D02*
X95341458Y-46975092D01*
X95341458Y-46975092D02*
X95377172Y-46939378D01*
X95377172Y-46939378D02*
X95448600Y-46903664D01*
X95448600Y-46903664D02*
X95662886Y-46903664D01*
X95662886Y-46903664D02*
X95734315Y-46939378D01*
X95734315Y-46939378D02*
X95770029Y-46975092D01*
X95770029Y-46975092D02*
X95805743Y-47046521D01*
X95805743Y-47046521D02*
X95805743Y-47189378D01*
X95805743Y-47189378D02*
X95770029Y-47260807D01*
X95341458Y-47903663D02*
X95305743Y-47832235D01*
X95305743Y-47832235D02*
X95305743Y-47689378D01*
X95305743Y-47689378D02*
X95341458Y-47617949D01*
X95341458Y-47617949D02*
X95412886Y-47582235D01*
X95412886Y-47582235D02*
X95698600Y-47582235D01*
X95698600Y-47582235D02*
X95770029Y-47617949D01*
X95770029Y-47617949D02*
X95805743Y-47689378D01*
X95805743Y-47689378D02*
X95805743Y-47832235D01*
X95805743Y-47832235D02*
X95770029Y-47903663D01*
X95770029Y-47903663D02*
X95698600Y-47939378D01*
X95698600Y-47939378D02*
X95627172Y-47939378D01*
X95627172Y-47939378D02*
X95555743Y-47582235D01*
X95305743Y-48260806D02*
X96055743Y-48260806D01*
X96055743Y-48260806D02*
X95520029Y-48510806D01*
X95520029Y-48510806D02*
X96055743Y-48760806D01*
X96055743Y-48760806D02*
X95305743Y-48760806D01*
X96055743Y-49260806D02*
X96055743Y-49403663D01*
X96055743Y-49403663D02*
X96020029Y-49475092D01*
X96020029Y-49475092D02*
X95948600Y-49546520D01*
X95948600Y-49546520D02*
X95805743Y-49582235D01*
X95805743Y-49582235D02*
X95555743Y-49582235D01*
X95555743Y-49582235D02*
X95412886Y-49546520D01*
X95412886Y-49546520D02*
X95341458Y-49475092D01*
X95341458Y-49475092D02*
X95305743Y-49403663D01*
X95305743Y-49403663D02*
X95305743Y-49260806D01*
X95305743Y-49260806D02*
X95341458Y-49189378D01*
X95341458Y-49189378D02*
X95412886Y-49117949D01*
X95412886Y-49117949D02*
X95555743Y-49082235D01*
X95555743Y-49082235D02*
X95805743Y-49082235D01*
X95805743Y-49082235D02*
X95948600Y-49117949D01*
X95948600Y-49117949D02*
X96020029Y-49189378D01*
X96020029Y-49189378D02*
X96055743Y-49260806D01*
X95305743Y-50475092D02*
X96055743Y-50475092D01*
X96055743Y-50475092D02*
X96055743Y-50760806D01*
X96055743Y-50760806D02*
X96020029Y-50832235D01*
X96020029Y-50832235D02*
X95984315Y-50867949D01*
X95984315Y-50867949D02*
X95912886Y-50903663D01*
X95912886Y-50903663D02*
X95805743Y-50903663D01*
X95805743Y-50903663D02*
X95734315Y-50867949D01*
X95734315Y-50867949D02*
X95698600Y-50832235D01*
X95698600Y-50832235D02*
X95662886Y-50760806D01*
X95662886Y-50760806D02*
X95662886Y-50475092D01*
X95305743Y-51225092D02*
X96055743Y-51225092D01*
X96055743Y-51225092D02*
X96055743Y-51510806D01*
X96055743Y-51510806D02*
X96020029Y-51582235D01*
X96020029Y-51582235D02*
X95984315Y-51617949D01*
X95984315Y-51617949D02*
X95912886Y-51653663D01*
X95912886Y-51653663D02*
X95805743Y-51653663D01*
X95805743Y-51653663D02*
X95734315Y-51617949D01*
X95734315Y-51617949D02*
X95698600Y-51582235D01*
X95698600Y-51582235D02*
X95662886Y-51510806D01*
X95662886Y-51510806D02*
X95662886Y-51225092D01*
X95305743Y-52975092D02*
X95662886Y-52725092D01*
X95305743Y-52546521D02*
X96055743Y-52546521D01*
X96055743Y-52546521D02*
X96055743Y-52832235D01*
X96055743Y-52832235D02*
X96020029Y-52903664D01*
X96020029Y-52903664D02*
X95984315Y-52939378D01*
X95984315Y-52939378D02*
X95912886Y-52975092D01*
X95912886Y-52975092D02*
X95805743Y-52975092D01*
X95805743Y-52975092D02*
X95734315Y-52939378D01*
X95734315Y-52939378D02*
X95698600Y-52903664D01*
X95698600Y-52903664D02*
X95662886Y-52832235D01*
X95662886Y-52832235D02*
X95662886Y-52546521D01*
X95698600Y-53296521D02*
X95698600Y-53546521D01*
X95305743Y-53653664D02*
X95305743Y-53296521D01*
X95305743Y-53296521D02*
X96055743Y-53296521D01*
X96055743Y-53296521D02*
X96055743Y-53653664D01*
X95341458Y-53939378D02*
X95305743Y-54046521D01*
X95305743Y-54046521D02*
X95305743Y-54225092D01*
X95305743Y-54225092D02*
X95341458Y-54296521D01*
X95341458Y-54296521D02*
X95377172Y-54332235D01*
X95377172Y-54332235D02*
X95448600Y-54367949D01*
X95448600Y-54367949D02*
X95520029Y-54367949D01*
X95520029Y-54367949D02*
X95591458Y-54332235D01*
X95591458Y-54332235D02*
X95627172Y-54296521D01*
X95627172Y-54296521D02*
X95662886Y-54225092D01*
X95662886Y-54225092D02*
X95698600Y-54082235D01*
X95698600Y-54082235D02*
X95734315Y-54010806D01*
X95734315Y-54010806D02*
X95770029Y-53975092D01*
X95770029Y-53975092D02*
X95841458Y-53939378D01*
X95841458Y-53939378D02*
X95912886Y-53939378D01*
X95912886Y-53939378D02*
X95984315Y-53975092D01*
X95984315Y-53975092D02*
X96020029Y-54010806D01*
X96020029Y-54010806D02*
X96055743Y-54082235D01*
X96055743Y-54082235D02*
X96055743Y-54260806D01*
X96055743Y-54260806D02*
X96020029Y-54367949D01*
X95305743Y-54689378D02*
X96055743Y-54689378D01*
X95341458Y-55010807D02*
X95305743Y-55117950D01*
X95305743Y-55117950D02*
X95305743Y-55296521D01*
X95305743Y-55296521D02*
X95341458Y-55367950D01*
X95341458Y-55367950D02*
X95377172Y-55403664D01*
X95377172Y-55403664D02*
X95448600Y-55439378D01*
X95448600Y-55439378D02*
X95520029Y-55439378D01*
X95520029Y-55439378D02*
X95591458Y-55403664D01*
X95591458Y-55403664D02*
X95627172Y-55367950D01*
X95627172Y-55367950D02*
X95662886Y-55296521D01*
X95662886Y-55296521D02*
X95698600Y-55153664D01*
X95698600Y-55153664D02*
X95734315Y-55082235D01*
X95734315Y-55082235D02*
X95770029Y-55046521D01*
X95770029Y-55046521D02*
X95841458Y-55010807D01*
X95841458Y-55010807D02*
X95912886Y-55010807D01*
X95912886Y-55010807D02*
X95984315Y-55046521D01*
X95984315Y-55046521D02*
X96020029Y-55082235D01*
X96020029Y-55082235D02*
X96055743Y-55153664D01*
X96055743Y-55153664D02*
X96055743Y-55332235D01*
X96055743Y-55332235D02*
X96020029Y-55439378D01*
X96055743Y-55653664D02*
X96055743Y-56082236D01*
X95305743Y-55867950D02*
X96055743Y-55867950D01*
X96055743Y-56475093D02*
X96055743Y-56617950D01*
X96055743Y-56617950D02*
X96020029Y-56689379D01*
X96020029Y-56689379D02*
X95948600Y-56760807D01*
X95948600Y-56760807D02*
X95805743Y-56796522D01*
X95805743Y-56796522D02*
X95555743Y-56796522D01*
X95555743Y-56796522D02*
X95412886Y-56760807D01*
X95412886Y-56760807D02*
X95341458Y-56689379D01*
X95341458Y-56689379D02*
X95305743Y-56617950D01*
X95305743Y-56617950D02*
X95305743Y-56475093D01*
X95305743Y-56475093D02*
X95341458Y-56403665D01*
X95341458Y-56403665D02*
X95412886Y-56332236D01*
X95412886Y-56332236D02*
X95555743Y-56296522D01*
X95555743Y-56296522D02*
X95805743Y-56296522D01*
X95805743Y-56296522D02*
X95948600Y-56332236D01*
X95948600Y-56332236D02*
X96020029Y-56403665D01*
X96020029Y-56403665D02*
X96055743Y-56475093D01*
X95305743Y-57546521D02*
X95662886Y-57296521D01*
X95305743Y-57117950D02*
X96055743Y-57117950D01*
X96055743Y-57117950D02*
X96055743Y-57403664D01*
X96055743Y-57403664D02*
X96020029Y-57475093D01*
X96020029Y-57475093D02*
X95984315Y-57510807D01*
X95984315Y-57510807D02*
X95912886Y-57546521D01*
X95912886Y-57546521D02*
X95805743Y-57546521D01*
X95805743Y-57546521D02*
X95734315Y-57510807D01*
X95734315Y-57510807D02*
X95698600Y-57475093D01*
X95698600Y-57475093D02*
X95662886Y-57403664D01*
X95662886Y-57403664D02*
X95662886Y-57117950D01*
X93812571Y-44975093D02*
X93848285Y-44939378D01*
X93848285Y-44939378D02*
X93955428Y-44867950D01*
X93955428Y-44867950D02*
X94026857Y-44832236D01*
X94026857Y-44832236D02*
X94134000Y-44796521D01*
X94134000Y-44796521D02*
X94312571Y-44760807D01*
X94312571Y-44760807D02*
X94455428Y-44760807D01*
X94455428Y-44760807D02*
X94634000Y-44796521D01*
X94634000Y-44796521D02*
X94741142Y-44832236D01*
X94741142Y-44832236D02*
X94812571Y-44867950D01*
X94812571Y-44867950D02*
X94919714Y-44939378D01*
X94919714Y-44939378D02*
X94955428Y-44975093D01*
X94169714Y-45689378D02*
X94134000Y-45653664D01*
X94134000Y-45653664D02*
X94098285Y-45546521D01*
X94098285Y-45546521D02*
X94098285Y-45475093D01*
X94098285Y-45475093D02*
X94134000Y-45367950D01*
X94134000Y-45367950D02*
X94205428Y-45296521D01*
X94205428Y-45296521D02*
X94276857Y-45260807D01*
X94276857Y-45260807D02*
X94419714Y-45225093D01*
X94419714Y-45225093D02*
X94526857Y-45225093D01*
X94526857Y-45225093D02*
X94669714Y-45260807D01*
X94669714Y-45260807D02*
X94741142Y-45296521D01*
X94741142Y-45296521D02*
X94812571Y-45367950D01*
X94812571Y-45367950D02*
X94848285Y-45475093D01*
X94848285Y-45475093D02*
X94848285Y-45546521D01*
X94848285Y-45546521D02*
X94812571Y-45653664D01*
X94812571Y-45653664D02*
X94776857Y-45689378D01*
X94098285Y-46010807D02*
X94848285Y-46010807D01*
X94491142Y-46010807D02*
X94491142Y-46439378D01*
X94098285Y-46439378D02*
X94848285Y-46439378D01*
X94312571Y-46760807D02*
X94312571Y-47117950D01*
X94098285Y-46689378D02*
X94848285Y-46939378D01*
X94848285Y-46939378D02*
X94098285Y-47189378D01*
X94098285Y-47867949D02*
X94455428Y-47617949D01*
X94098285Y-47439378D02*
X94848285Y-47439378D01*
X94848285Y-47439378D02*
X94848285Y-47725092D01*
X94848285Y-47725092D02*
X94812571Y-47796521D01*
X94812571Y-47796521D02*
X94776857Y-47832235D01*
X94776857Y-47832235D02*
X94705428Y-47867949D01*
X94705428Y-47867949D02*
X94598285Y-47867949D01*
X94598285Y-47867949D02*
X94526857Y-47832235D01*
X94526857Y-47832235D02*
X94491142Y-47796521D01*
X94491142Y-47796521D02*
X94455428Y-47725092D01*
X94455428Y-47725092D02*
X94455428Y-47439378D01*
X94812571Y-48582235D02*
X94848285Y-48510807D01*
X94848285Y-48510807D02*
X94848285Y-48403664D01*
X94848285Y-48403664D02*
X94812571Y-48296521D01*
X94812571Y-48296521D02*
X94741142Y-48225092D01*
X94741142Y-48225092D02*
X94669714Y-48189378D01*
X94669714Y-48189378D02*
X94526857Y-48153664D01*
X94526857Y-48153664D02*
X94419714Y-48153664D01*
X94419714Y-48153664D02*
X94276857Y-48189378D01*
X94276857Y-48189378D02*
X94205428Y-48225092D01*
X94205428Y-48225092D02*
X94134000Y-48296521D01*
X94134000Y-48296521D02*
X94098285Y-48403664D01*
X94098285Y-48403664D02*
X94098285Y-48475092D01*
X94098285Y-48475092D02*
X94134000Y-48582235D01*
X94134000Y-48582235D02*
X94169714Y-48617949D01*
X94169714Y-48617949D02*
X94419714Y-48617949D01*
X94419714Y-48617949D02*
X94419714Y-48475092D01*
X94491142Y-48939378D02*
X94491142Y-49189378D01*
X94098285Y-49296521D02*
X94098285Y-48939378D01*
X94098285Y-48939378D02*
X94848285Y-48939378D01*
X94848285Y-48939378D02*
X94848285Y-49296521D01*
X94098285Y-50046520D02*
X94455428Y-49796520D01*
X94098285Y-49617949D02*
X94848285Y-49617949D01*
X94848285Y-49617949D02*
X94848285Y-49903663D01*
X94848285Y-49903663D02*
X94812571Y-49975092D01*
X94812571Y-49975092D02*
X94776857Y-50010806D01*
X94776857Y-50010806D02*
X94705428Y-50046520D01*
X94705428Y-50046520D02*
X94598285Y-50046520D01*
X94598285Y-50046520D02*
X94526857Y-50010806D01*
X94526857Y-50010806D02*
X94491142Y-49975092D01*
X94491142Y-49975092D02*
X94455428Y-49903663D01*
X94455428Y-49903663D02*
X94455428Y-49617949D01*
X94134000Y-50903664D02*
X94098285Y-51010807D01*
X94098285Y-51010807D02*
X94098285Y-51189378D01*
X94098285Y-51189378D02*
X94134000Y-51260807D01*
X94134000Y-51260807D02*
X94169714Y-51296521D01*
X94169714Y-51296521D02*
X94241142Y-51332235D01*
X94241142Y-51332235D02*
X94312571Y-51332235D01*
X94312571Y-51332235D02*
X94384000Y-51296521D01*
X94384000Y-51296521D02*
X94419714Y-51260807D01*
X94419714Y-51260807D02*
X94455428Y-51189378D01*
X94455428Y-51189378D02*
X94491142Y-51046521D01*
X94491142Y-51046521D02*
X94526857Y-50975092D01*
X94526857Y-50975092D02*
X94562571Y-50939378D01*
X94562571Y-50939378D02*
X94634000Y-50903664D01*
X94634000Y-50903664D02*
X94705428Y-50903664D01*
X94705428Y-50903664D02*
X94776857Y-50939378D01*
X94776857Y-50939378D02*
X94812571Y-50975092D01*
X94812571Y-50975092D02*
X94848285Y-51046521D01*
X94848285Y-51046521D02*
X94848285Y-51225092D01*
X94848285Y-51225092D02*
X94812571Y-51332235D01*
X94098285Y-51653664D02*
X94848285Y-51653664D01*
X94098285Y-52010807D02*
X94848285Y-52010807D01*
X94848285Y-52010807D02*
X94848285Y-52189378D01*
X94848285Y-52189378D02*
X94812571Y-52296521D01*
X94812571Y-52296521D02*
X94741142Y-52367950D01*
X94741142Y-52367950D02*
X94669714Y-52403664D01*
X94669714Y-52403664D02*
X94526857Y-52439378D01*
X94526857Y-52439378D02*
X94419714Y-52439378D01*
X94419714Y-52439378D02*
X94276857Y-52403664D01*
X94276857Y-52403664D02*
X94205428Y-52367950D01*
X94205428Y-52367950D02*
X94134000Y-52296521D01*
X94134000Y-52296521D02*
X94098285Y-52189378D01*
X94098285Y-52189378D02*
X94098285Y-52010807D01*
X94491142Y-52760807D02*
X94491142Y-53010807D01*
X94098285Y-53117950D02*
X94098285Y-52760807D01*
X94098285Y-52760807D02*
X94848285Y-52760807D01*
X94848285Y-52760807D02*
X94848285Y-53117950D01*
X94848285Y-54153664D02*
X94848285Y-54296521D01*
X94848285Y-54296521D02*
X94812571Y-54367950D01*
X94812571Y-54367950D02*
X94741142Y-54439378D01*
X94741142Y-54439378D02*
X94598285Y-54475093D01*
X94598285Y-54475093D02*
X94348285Y-54475093D01*
X94348285Y-54475093D02*
X94205428Y-54439378D01*
X94205428Y-54439378D02*
X94134000Y-54367950D01*
X94134000Y-54367950D02*
X94098285Y-54296521D01*
X94098285Y-54296521D02*
X94098285Y-54153664D01*
X94098285Y-54153664D02*
X94134000Y-54082236D01*
X94134000Y-54082236D02*
X94205428Y-54010807D01*
X94205428Y-54010807D02*
X94348285Y-53975093D01*
X94348285Y-53975093D02*
X94598285Y-53975093D01*
X94598285Y-53975093D02*
X94741142Y-54010807D01*
X94741142Y-54010807D02*
X94812571Y-54082236D01*
X94812571Y-54082236D02*
X94848285Y-54153664D01*
X94098285Y-54796521D02*
X94848285Y-54796521D01*
X94848285Y-54796521D02*
X94098285Y-55225092D01*
X94098285Y-55225092D02*
X94848285Y-55225092D01*
X94098285Y-55939378D02*
X94098285Y-55582235D01*
X94098285Y-55582235D02*
X94848285Y-55582235D01*
X94455428Y-56332235D02*
X94098285Y-56332235D01*
X94848285Y-56082235D02*
X94455428Y-56332235D01*
X94455428Y-56332235D02*
X94848285Y-56582235D01*
X93812571Y-56760806D02*
X93848285Y-56796521D01*
X93848285Y-56796521D02*
X93955428Y-56867949D01*
X93955428Y-56867949D02*
X94026857Y-56903664D01*
X94026857Y-56903664D02*
X94134000Y-56939378D01*
X94134000Y-56939378D02*
X94312571Y-56975092D01*
X94312571Y-56975092D02*
X94455428Y-56975092D01*
X94455428Y-56975092D02*
X94634000Y-56939378D01*
X94634000Y-56939378D02*
X94741142Y-56903664D01*
X94741142Y-56903664D02*
X94812571Y-56867949D01*
X94812571Y-56867949D02*
X94919714Y-56796521D01*
X94919714Y-56796521D02*
X94955428Y-56760806D01*
X98054750Y-58239192D02*
X98054750Y-57667764D01*
X97840464Y-57310621D02*
X98054750Y-56739193D01*
X98054750Y-56739193D02*
X98269035Y-57310621D01*
D10*
X102632047Y-19714283D02*
X104060619Y-19714283D01*
X103489190Y-21523807D02*
X103489190Y-21190474D01*
X102965380Y-21190474D02*
X103965380Y-21190474D01*
X103965380Y-21190474D02*
X103965380Y-21666664D01*
X103917761Y-22571426D02*
X103965380Y-22476188D01*
X103965380Y-22476188D02*
X103965380Y-22333331D01*
X103965380Y-22333331D02*
X103917761Y-22190474D01*
X103917761Y-22190474D02*
X103822523Y-22095236D01*
X103822523Y-22095236D02*
X103727285Y-22047617D01*
X103727285Y-22047617D02*
X103536809Y-21999998D01*
X103536809Y-21999998D02*
X103393952Y-21999998D01*
X103393952Y-21999998D02*
X103203476Y-22047617D01*
X103203476Y-22047617D02*
X103108238Y-22095236D01*
X103108238Y-22095236D02*
X103013000Y-22190474D01*
X103013000Y-22190474D02*
X102965380Y-22333331D01*
X102965380Y-22333331D02*
X102965380Y-22428569D01*
X102965380Y-22428569D02*
X103013000Y-22571426D01*
X103013000Y-22571426D02*
X103060619Y-22619045D01*
X103060619Y-22619045D02*
X103393952Y-22619045D01*
X103393952Y-22619045D02*
X103393952Y-22428569D01*
X102632047Y-24047617D02*
X104060619Y-24047617D01*
X103013000Y-25476189D02*
X102965380Y-25619046D01*
X102965380Y-25619046D02*
X102965380Y-25857141D01*
X102965380Y-25857141D02*
X103013000Y-25952379D01*
X103013000Y-25952379D02*
X103060619Y-25999998D01*
X103060619Y-25999998D02*
X103155857Y-26047617D01*
X103155857Y-26047617D02*
X103251095Y-26047617D01*
X103251095Y-26047617D02*
X103346333Y-25999998D01*
X103346333Y-25999998D02*
X103393952Y-25952379D01*
X103393952Y-25952379D02*
X103441571Y-25857141D01*
X103441571Y-25857141D02*
X103489190Y-25666665D01*
X103489190Y-25666665D02*
X103536809Y-25571427D01*
X103536809Y-25571427D02*
X103584428Y-25523808D01*
X103584428Y-25523808D02*
X103679666Y-25476189D01*
X103679666Y-25476189D02*
X103774904Y-25476189D01*
X103774904Y-25476189D02*
X103870142Y-25523808D01*
X103870142Y-25523808D02*
X103917761Y-25571427D01*
X103917761Y-25571427D02*
X103965380Y-25666665D01*
X103965380Y-25666665D02*
X103965380Y-25904760D01*
X103965380Y-25904760D02*
X103917761Y-26047617D01*
X103013000Y-26428570D02*
X102965380Y-26571427D01*
X102965380Y-26571427D02*
X102965380Y-26809522D01*
X102965380Y-26809522D02*
X103013000Y-26904760D01*
X103013000Y-26904760D02*
X103060619Y-26952379D01*
X103060619Y-26952379D02*
X103155857Y-26999998D01*
X103155857Y-26999998D02*
X103251095Y-26999998D01*
X103251095Y-26999998D02*
X103346333Y-26952379D01*
X103346333Y-26952379D02*
X103393952Y-26904760D01*
X103393952Y-26904760D02*
X103441571Y-26809522D01*
X103441571Y-26809522D02*
X103489190Y-26619046D01*
X103489190Y-26619046D02*
X103536809Y-26523808D01*
X103536809Y-26523808D02*
X103584428Y-26476189D01*
X103584428Y-26476189D02*
X103679666Y-26428570D01*
X103679666Y-26428570D02*
X103774904Y-26428570D01*
X103774904Y-26428570D02*
X103870142Y-26476189D01*
X103870142Y-26476189D02*
X103917761Y-26523808D01*
X103917761Y-26523808D02*
X103965380Y-26619046D01*
X103965380Y-26619046D02*
X103965380Y-26857141D01*
X103965380Y-26857141D02*
X103917761Y-26999998D01*
X102965380Y-27952379D02*
X102965380Y-27380951D01*
X102965380Y-27666665D02*
X103965380Y-27666665D01*
X103965380Y-27666665D02*
X103822523Y-27571427D01*
X103822523Y-27571427D02*
X103727285Y-27476189D01*
X103727285Y-27476189D02*
X103679666Y-27380951D01*
X102632047Y-29380951D02*
X104060619Y-29380951D01*
X103013000Y-30809523D02*
X102965380Y-30952380D01*
X102965380Y-30952380D02*
X102965380Y-31190475D01*
X102965380Y-31190475D02*
X103013000Y-31285713D01*
X103013000Y-31285713D02*
X103060619Y-31333332D01*
X103060619Y-31333332D02*
X103155857Y-31380951D01*
X103155857Y-31380951D02*
X103251095Y-31380951D01*
X103251095Y-31380951D02*
X103346333Y-31333332D01*
X103346333Y-31333332D02*
X103393952Y-31285713D01*
X103393952Y-31285713D02*
X103441571Y-31190475D01*
X103441571Y-31190475D02*
X103489190Y-30999999D01*
X103489190Y-30999999D02*
X103536809Y-30904761D01*
X103536809Y-30904761D02*
X103584428Y-30857142D01*
X103584428Y-30857142D02*
X103679666Y-30809523D01*
X103679666Y-30809523D02*
X103774904Y-30809523D01*
X103774904Y-30809523D02*
X103870142Y-30857142D01*
X103870142Y-30857142D02*
X103917761Y-30904761D01*
X103917761Y-30904761D02*
X103965380Y-30999999D01*
X103965380Y-30999999D02*
X103965380Y-31238094D01*
X103965380Y-31238094D02*
X103917761Y-31380951D01*
X103013000Y-31761904D02*
X102965380Y-31904761D01*
X102965380Y-31904761D02*
X102965380Y-32142856D01*
X102965380Y-32142856D02*
X103013000Y-32238094D01*
X103013000Y-32238094D02*
X103060619Y-32285713D01*
X103060619Y-32285713D02*
X103155857Y-32333332D01*
X103155857Y-32333332D02*
X103251095Y-32333332D01*
X103251095Y-32333332D02*
X103346333Y-32285713D01*
X103346333Y-32285713D02*
X103393952Y-32238094D01*
X103393952Y-32238094D02*
X103441571Y-32142856D01*
X103441571Y-32142856D02*
X103489190Y-31952380D01*
X103489190Y-31952380D02*
X103536809Y-31857142D01*
X103536809Y-31857142D02*
X103584428Y-31809523D01*
X103584428Y-31809523D02*
X103679666Y-31761904D01*
X103679666Y-31761904D02*
X103774904Y-31761904D01*
X103774904Y-31761904D02*
X103870142Y-31809523D01*
X103870142Y-31809523D02*
X103917761Y-31857142D01*
X103917761Y-31857142D02*
X103965380Y-31952380D01*
X103965380Y-31952380D02*
X103965380Y-32190475D01*
X103965380Y-32190475D02*
X103917761Y-32333332D01*
X103870142Y-32714285D02*
X103917761Y-32761904D01*
X103917761Y-32761904D02*
X103965380Y-32857142D01*
X103965380Y-32857142D02*
X103965380Y-33095237D01*
X103965380Y-33095237D02*
X103917761Y-33190475D01*
X103917761Y-33190475D02*
X103870142Y-33238094D01*
X103870142Y-33238094D02*
X103774904Y-33285713D01*
X103774904Y-33285713D02*
X103679666Y-33285713D01*
X103679666Y-33285713D02*
X103536809Y-33238094D01*
X103536809Y-33238094D02*
X102965380Y-32666666D01*
X102965380Y-32666666D02*
X102965380Y-33285713D01*
X102632047Y-34714285D02*
X104060619Y-34714285D01*
X102965380Y-36190476D02*
X103965380Y-36190476D01*
X103965380Y-36190476D02*
X102965380Y-36761904D01*
X102965380Y-36761904D02*
X103965380Y-36761904D01*
X103060619Y-37809523D02*
X103013000Y-37761904D01*
X103013000Y-37761904D02*
X102965380Y-37619047D01*
X102965380Y-37619047D02*
X102965380Y-37523809D01*
X102965380Y-37523809D02*
X103013000Y-37380952D01*
X103013000Y-37380952D02*
X103108238Y-37285714D01*
X103108238Y-37285714D02*
X103203476Y-37238095D01*
X103203476Y-37238095D02*
X103393952Y-37190476D01*
X103393952Y-37190476D02*
X103536809Y-37190476D01*
X103536809Y-37190476D02*
X103727285Y-37238095D01*
X103727285Y-37238095D02*
X103822523Y-37285714D01*
X103822523Y-37285714D02*
X103917761Y-37380952D01*
X103917761Y-37380952D02*
X103965380Y-37523809D01*
X103965380Y-37523809D02*
X103965380Y-37619047D01*
X103965380Y-37619047D02*
X103917761Y-37761904D01*
X103917761Y-37761904D02*
X103870142Y-37809523D01*
X102632047Y-39238095D02*
X104060619Y-39238095D01*
X102965380Y-40714286D02*
X103965380Y-40714286D01*
X103965380Y-40714286D02*
X103965380Y-40952381D01*
X103965380Y-40952381D02*
X103917761Y-41095238D01*
X103917761Y-41095238D02*
X103822523Y-41190476D01*
X103822523Y-41190476D02*
X103727285Y-41238095D01*
X103727285Y-41238095D02*
X103536809Y-41285714D01*
X103536809Y-41285714D02*
X103393952Y-41285714D01*
X103393952Y-41285714D02*
X103203476Y-41238095D01*
X103203476Y-41238095D02*
X103108238Y-41190476D01*
X103108238Y-41190476D02*
X103013000Y-41095238D01*
X103013000Y-41095238D02*
X102965380Y-40952381D01*
X102965380Y-40952381D02*
X102965380Y-40714286D01*
X103060619Y-42285714D02*
X103013000Y-42238095D01*
X103013000Y-42238095D02*
X102965380Y-42095238D01*
X102965380Y-42095238D02*
X102965380Y-42000000D01*
X102965380Y-42000000D02*
X103013000Y-41857143D01*
X103013000Y-41857143D02*
X103108238Y-41761905D01*
X103108238Y-41761905D02*
X103203476Y-41714286D01*
X103203476Y-41714286D02*
X103393952Y-41666667D01*
X103393952Y-41666667D02*
X103536809Y-41666667D01*
X103536809Y-41666667D02*
X103727285Y-41714286D01*
X103727285Y-41714286D02*
X103822523Y-41761905D01*
X103822523Y-41761905D02*
X103917761Y-41857143D01*
X103917761Y-41857143D02*
X103965380Y-42000000D01*
X103965380Y-42000000D02*
X103965380Y-42095238D01*
X103965380Y-42095238D02*
X103917761Y-42238095D01*
X103917761Y-42238095D02*
X103870142Y-42285714D01*
X102965380Y-42714286D02*
X103965380Y-42714286D01*
X103965380Y-42714286D02*
X103965380Y-43095238D01*
X103965380Y-43095238D02*
X103917761Y-43190476D01*
X103917761Y-43190476D02*
X103870142Y-43238095D01*
X103870142Y-43238095D02*
X103774904Y-43285714D01*
X103774904Y-43285714D02*
X103632047Y-43285714D01*
X103632047Y-43285714D02*
X103536809Y-43238095D01*
X103536809Y-43238095D02*
X103489190Y-43190476D01*
X103489190Y-43190476D02*
X103441571Y-43095238D01*
X103441571Y-43095238D02*
X103441571Y-42714286D01*
X102632047Y-44714286D02*
X104060619Y-44714286D01*
X102965380Y-46190477D02*
X103965380Y-46190477D01*
X103965380Y-46190477D02*
X103965380Y-46571429D01*
X103965380Y-46571429D02*
X103917761Y-46666667D01*
X103917761Y-46666667D02*
X103870142Y-46714286D01*
X103870142Y-46714286D02*
X103774904Y-46761905D01*
X103774904Y-46761905D02*
X103632047Y-46761905D01*
X103632047Y-46761905D02*
X103536809Y-46714286D01*
X103536809Y-46714286D02*
X103489190Y-46666667D01*
X103489190Y-46666667D02*
X103441571Y-46571429D01*
X103441571Y-46571429D02*
X103441571Y-46190477D01*
X102965380Y-47190477D02*
X103965380Y-47190477D01*
X103965380Y-47190477D02*
X103965380Y-47571429D01*
X103965380Y-47571429D02*
X103917761Y-47666667D01*
X103917761Y-47666667D02*
X103870142Y-47714286D01*
X103870142Y-47714286D02*
X103774904Y-47761905D01*
X103774904Y-47761905D02*
X103632047Y-47761905D01*
X103632047Y-47761905D02*
X103536809Y-47714286D01*
X103536809Y-47714286D02*
X103489190Y-47666667D01*
X103489190Y-47666667D02*
X103441571Y-47571429D01*
X103441571Y-47571429D02*
X103441571Y-47190477D01*
X102632047Y-49190477D02*
X104060619Y-49190477D01*
X103060619Y-51238096D02*
X103013000Y-51190477D01*
X103013000Y-51190477D02*
X102965380Y-51047620D01*
X102965380Y-51047620D02*
X102965380Y-50952382D01*
X102965380Y-50952382D02*
X103013000Y-50809525D01*
X103013000Y-50809525D02*
X103108238Y-50714287D01*
X103108238Y-50714287D02*
X103203476Y-50666668D01*
X103203476Y-50666668D02*
X103393952Y-50619049D01*
X103393952Y-50619049D02*
X103536809Y-50619049D01*
X103536809Y-50619049D02*
X103727285Y-50666668D01*
X103727285Y-50666668D02*
X103822523Y-50714287D01*
X103822523Y-50714287D02*
X103917761Y-50809525D01*
X103917761Y-50809525D02*
X103965380Y-50952382D01*
X103965380Y-50952382D02*
X103965380Y-51047620D01*
X103965380Y-51047620D02*
X103917761Y-51190477D01*
X103917761Y-51190477D02*
X103870142Y-51238096D01*
X103251095Y-51619049D02*
X103251095Y-52095239D01*
X102965380Y-51523811D02*
X103965380Y-51857144D01*
X103965380Y-51857144D02*
X102965380Y-52190477D01*
X102965380Y-52523811D02*
X103965380Y-52523811D01*
X103965380Y-52523811D02*
X102965380Y-53095239D01*
X102965380Y-53095239D02*
X103965380Y-53095239D01*
X102965380Y-53571430D02*
X103965380Y-53571430D01*
X103489190Y-53571430D02*
X103489190Y-54142858D01*
X102965380Y-54142858D02*
X103965380Y-54142858D01*
X102632047Y-54857144D02*
X104060619Y-54857144D01*
X103060619Y-56904763D02*
X103013000Y-56857144D01*
X103013000Y-56857144D02*
X102965380Y-56714287D01*
X102965380Y-56714287D02*
X102965380Y-56619049D01*
X102965380Y-56619049D02*
X103013000Y-56476192D01*
X103013000Y-56476192D02*
X103108238Y-56380954D01*
X103108238Y-56380954D02*
X103203476Y-56333335D01*
X103203476Y-56333335D02*
X103393952Y-56285716D01*
X103393952Y-56285716D02*
X103536809Y-56285716D01*
X103536809Y-56285716D02*
X103727285Y-56333335D01*
X103727285Y-56333335D02*
X103822523Y-56380954D01*
X103822523Y-56380954D02*
X103917761Y-56476192D01*
X103917761Y-56476192D02*
X103965380Y-56619049D01*
X103965380Y-56619049D02*
X103965380Y-56714287D01*
X103965380Y-56714287D02*
X103917761Y-56857144D01*
X103917761Y-56857144D02*
X103870142Y-56904763D01*
X103251095Y-57285716D02*
X103251095Y-57761906D01*
X102965380Y-57190478D02*
X103965380Y-57523811D01*
X103965380Y-57523811D02*
X102965380Y-57857144D01*
X102965380Y-58190478D02*
X103965380Y-58190478D01*
X103965380Y-58190478D02*
X102965380Y-58761906D01*
X102965380Y-58761906D02*
X103965380Y-58761906D01*
X102965380Y-59714287D02*
X102965380Y-59238097D01*
X102965380Y-59238097D02*
X103965380Y-59238097D01*
X102632047Y-60285716D02*
X104060619Y-60285716D01*
X101450675Y-32309523D02*
X101403056Y-32261904D01*
X101403056Y-32261904D02*
X101355436Y-32119047D01*
X101355436Y-32119047D02*
X101355436Y-32023809D01*
X101355436Y-32023809D02*
X101403056Y-31880952D01*
X101403056Y-31880952D02*
X101498294Y-31785714D01*
X101498294Y-31785714D02*
X101593532Y-31738095D01*
X101593532Y-31738095D02*
X101784008Y-31690476D01*
X101784008Y-31690476D02*
X101926865Y-31690476D01*
X101926865Y-31690476D02*
X102117341Y-31738095D01*
X102117341Y-31738095D02*
X102212579Y-31785714D01*
X102212579Y-31785714D02*
X102307817Y-31880952D01*
X102307817Y-31880952D02*
X102355436Y-32023809D01*
X102355436Y-32023809D02*
X102355436Y-32119047D01*
X102355436Y-32119047D02*
X102307817Y-32261904D01*
X102307817Y-32261904D02*
X102260198Y-32309523D01*
X101355436Y-32738095D02*
X102355436Y-32738095D01*
X101879246Y-32738095D02*
X101879246Y-33309523D01*
X101355436Y-33309523D02*
X102355436Y-33309523D01*
X101641151Y-33738095D02*
X101641151Y-34214285D01*
X101355436Y-33642857D02*
X102355436Y-33976190D01*
X102355436Y-33976190D02*
X101355436Y-34309523D01*
X101355436Y-35071428D02*
X102355436Y-35071428D01*
X101403056Y-35071428D02*
X101355436Y-34976190D01*
X101355436Y-34976190D02*
X101355436Y-34785714D01*
X101355436Y-34785714D02*
X101403056Y-34690476D01*
X101403056Y-34690476D02*
X101450675Y-34642857D01*
X101450675Y-34642857D02*
X101545913Y-34595238D01*
X101545913Y-34595238D02*
X101831627Y-34595238D01*
X101831627Y-34595238D02*
X101926865Y-34642857D01*
X101926865Y-34642857D02*
X101974484Y-34690476D01*
X101974484Y-34690476D02*
X102022103Y-34785714D01*
X102022103Y-34785714D02*
X102022103Y-34976190D01*
X102022103Y-34976190D02*
X101974484Y-35071428D01*
X101403056Y-35928571D02*
X101355436Y-35833333D01*
X101355436Y-35833333D02*
X101355436Y-35642857D01*
X101355436Y-35642857D02*
X101403056Y-35547619D01*
X101403056Y-35547619D02*
X101498294Y-35500000D01*
X101498294Y-35500000D02*
X101879246Y-35500000D01*
X101879246Y-35500000D02*
X101974484Y-35547619D01*
X101974484Y-35547619D02*
X102022103Y-35642857D01*
X102022103Y-35642857D02*
X102022103Y-35833333D01*
X102022103Y-35833333D02*
X101974484Y-35928571D01*
X101974484Y-35928571D02*
X101879246Y-35976190D01*
X101879246Y-35976190D02*
X101784008Y-35976190D01*
X101784008Y-35976190D02*
X101688770Y-35500000D01*
X101355436Y-36404762D02*
X102355436Y-36404762D01*
X102355436Y-36404762D02*
X101641151Y-36738095D01*
X101641151Y-36738095D02*
X102355436Y-37071428D01*
X102355436Y-37071428D02*
X101355436Y-37071428D01*
X102355436Y-37738095D02*
X102355436Y-37928571D01*
X102355436Y-37928571D02*
X102307817Y-38023809D01*
X102307817Y-38023809D02*
X102212579Y-38119047D01*
X102212579Y-38119047D02*
X102022103Y-38166666D01*
X102022103Y-38166666D02*
X101688770Y-38166666D01*
X101688770Y-38166666D02*
X101498294Y-38119047D01*
X101498294Y-38119047D02*
X101403056Y-38023809D01*
X101403056Y-38023809D02*
X101355436Y-37928571D01*
X101355436Y-37928571D02*
X101355436Y-37738095D01*
X101355436Y-37738095D02*
X101403056Y-37642857D01*
X101403056Y-37642857D02*
X101498294Y-37547619D01*
X101498294Y-37547619D02*
X101688770Y-37500000D01*
X101688770Y-37500000D02*
X102022103Y-37500000D01*
X102022103Y-37500000D02*
X102212579Y-37547619D01*
X102212579Y-37547619D02*
X102307817Y-37642857D01*
X102307817Y-37642857D02*
X102355436Y-37738095D01*
X101403056Y-39309524D02*
X101355436Y-39452381D01*
X101355436Y-39452381D02*
X101355436Y-39690476D01*
X101355436Y-39690476D02*
X101403056Y-39785714D01*
X101403056Y-39785714D02*
X101450675Y-39833333D01*
X101450675Y-39833333D02*
X101545913Y-39880952D01*
X101545913Y-39880952D02*
X101641151Y-39880952D01*
X101641151Y-39880952D02*
X101736389Y-39833333D01*
X101736389Y-39833333D02*
X101784008Y-39785714D01*
X101784008Y-39785714D02*
X101831627Y-39690476D01*
X101831627Y-39690476D02*
X101879246Y-39500000D01*
X101879246Y-39500000D02*
X101926865Y-39404762D01*
X101926865Y-39404762D02*
X101974484Y-39357143D01*
X101974484Y-39357143D02*
X102069722Y-39309524D01*
X102069722Y-39309524D02*
X102164960Y-39309524D01*
X102164960Y-39309524D02*
X102260198Y-39357143D01*
X102260198Y-39357143D02*
X102307817Y-39404762D01*
X102307817Y-39404762D02*
X102355436Y-39500000D01*
X102355436Y-39500000D02*
X102355436Y-39738095D01*
X102355436Y-39738095D02*
X102307817Y-39880952D01*
X101355436Y-40309524D02*
X102355436Y-40309524D01*
X102307817Y-41309523D02*
X102355436Y-41214285D01*
X102355436Y-41214285D02*
X102355436Y-41071428D01*
X102355436Y-41071428D02*
X102307817Y-40928571D01*
X102307817Y-40928571D02*
X102212579Y-40833333D01*
X102212579Y-40833333D02*
X102117341Y-40785714D01*
X102117341Y-40785714D02*
X101926865Y-40738095D01*
X101926865Y-40738095D02*
X101784008Y-40738095D01*
X101784008Y-40738095D02*
X101593532Y-40785714D01*
X101593532Y-40785714D02*
X101498294Y-40833333D01*
X101498294Y-40833333D02*
X101403056Y-40928571D01*
X101403056Y-40928571D02*
X101355436Y-41071428D01*
X101355436Y-41071428D02*
X101355436Y-41166666D01*
X101355436Y-41166666D02*
X101403056Y-41309523D01*
X101403056Y-41309523D02*
X101450675Y-41357142D01*
X101450675Y-41357142D02*
X101784008Y-41357142D01*
X101784008Y-41357142D02*
X101784008Y-41166666D01*
X101355436Y-41785714D02*
X102355436Y-41785714D01*
X102355436Y-41785714D02*
X101355436Y-42357142D01*
X101355436Y-42357142D02*
X102355436Y-42357142D01*
X101641151Y-42785714D02*
X101641151Y-43261904D01*
X101355436Y-42690476D02*
X102355436Y-43023809D01*
X102355436Y-43023809D02*
X101355436Y-43357142D01*
X101355436Y-44166666D02*
X101355436Y-43690476D01*
X101355436Y-43690476D02*
X102355436Y-43690476D01*
X101355436Y-45261905D02*
X102355436Y-45261905D01*
X102355436Y-45261905D02*
X102355436Y-45642857D01*
X102355436Y-45642857D02*
X102307817Y-45738095D01*
X102307817Y-45738095D02*
X102260198Y-45785714D01*
X102260198Y-45785714D02*
X102164960Y-45833333D01*
X102164960Y-45833333D02*
X102022103Y-45833333D01*
X102022103Y-45833333D02*
X101926865Y-45785714D01*
X101926865Y-45785714D02*
X101879246Y-45738095D01*
X101879246Y-45738095D02*
X101831627Y-45642857D01*
X101831627Y-45642857D02*
X101831627Y-45261905D01*
X101355436Y-46261905D02*
X102355436Y-46261905D01*
X101355436Y-46738095D02*
X102355436Y-46738095D01*
X102355436Y-46738095D02*
X101355436Y-47309523D01*
X101355436Y-47309523D02*
X102355436Y-47309523D01*
X101403056Y-47738095D02*
X101355436Y-47880952D01*
X101355436Y-47880952D02*
X101355436Y-48119047D01*
X101355436Y-48119047D02*
X101403056Y-48214285D01*
X101403056Y-48214285D02*
X101450675Y-48261904D01*
X101450675Y-48261904D02*
X101545913Y-48309523D01*
X101545913Y-48309523D02*
X101641151Y-48309523D01*
X101641151Y-48309523D02*
X101736389Y-48261904D01*
X101736389Y-48261904D02*
X101784008Y-48214285D01*
X101784008Y-48214285D02*
X101831627Y-48119047D01*
X101831627Y-48119047D02*
X101879246Y-47928571D01*
X101879246Y-47928571D02*
X101926865Y-47833333D01*
X101926865Y-47833333D02*
X101974484Y-47785714D01*
X101974484Y-47785714D02*
X102069722Y-47738095D01*
X102069722Y-47738095D02*
X102164960Y-47738095D01*
X102164960Y-47738095D02*
X102260198Y-47785714D01*
X102260198Y-47785714D02*
X102307817Y-47833333D01*
X102307817Y-47833333D02*
X102355436Y-47928571D01*
X102355436Y-47928571D02*
X102355436Y-48166666D01*
X102355436Y-48166666D02*
X102307817Y-48309523D01*
X75142855Y-14367952D02*
X75142855Y-12939380D01*
X77333332Y-13748904D02*
X77809522Y-13748904D01*
X77238094Y-14034619D02*
X77571427Y-13034619D01*
X77571427Y-13034619D02*
X77904760Y-14034619D01*
X79999999Y-14367952D02*
X79999999Y-12939380D01*
X82571428Y-13510809D02*
X82714285Y-13558428D01*
X82714285Y-13558428D02*
X82761904Y-13606047D01*
X82761904Y-13606047D02*
X82809523Y-13701285D01*
X82809523Y-13701285D02*
X82809523Y-13844142D01*
X82809523Y-13844142D02*
X82761904Y-13939380D01*
X82761904Y-13939380D02*
X82714285Y-13987000D01*
X82714285Y-13987000D02*
X82619047Y-14034619D01*
X82619047Y-14034619D02*
X82238095Y-14034619D01*
X82238095Y-14034619D02*
X82238095Y-13034619D01*
X82238095Y-13034619D02*
X82571428Y-13034619D01*
X82571428Y-13034619D02*
X82666666Y-13082238D01*
X82666666Y-13082238D02*
X82714285Y-13129857D01*
X82714285Y-13129857D02*
X82761904Y-13225095D01*
X82761904Y-13225095D02*
X82761904Y-13320333D01*
X82761904Y-13320333D02*
X82714285Y-13415571D01*
X82714285Y-13415571D02*
X82666666Y-13463190D01*
X82666666Y-13463190D02*
X82571428Y-13510809D01*
X82571428Y-13510809D02*
X82238095Y-13510809D01*
X85000000Y-14367952D02*
X85000000Y-12939380D01*
X87190477Y-13748904D02*
X87666667Y-13748904D01*
X87095239Y-14034619D02*
X87428572Y-13034619D01*
X87428572Y-13034619D02*
X87761905Y-14034619D01*
X89857144Y-14367952D02*
X89857144Y-12939380D01*
X92428573Y-13510809D02*
X92571430Y-13558428D01*
X92571430Y-13558428D02*
X92619049Y-13606047D01*
X92619049Y-13606047D02*
X92666668Y-13701285D01*
X92666668Y-13701285D02*
X92666668Y-13844142D01*
X92666668Y-13844142D02*
X92619049Y-13939380D01*
X92619049Y-13939380D02*
X92571430Y-13987000D01*
X92571430Y-13987000D02*
X92476192Y-14034619D01*
X92476192Y-14034619D02*
X92095240Y-14034619D01*
X92095240Y-14034619D02*
X92095240Y-13034619D01*
X92095240Y-13034619D02*
X92428573Y-13034619D01*
X92428573Y-13034619D02*
X92523811Y-13082238D01*
X92523811Y-13082238D02*
X92571430Y-13129857D01*
X92571430Y-13129857D02*
X92619049Y-13225095D01*
X92619049Y-13225095D02*
X92619049Y-13320333D01*
X92619049Y-13320333D02*
X92571430Y-13415571D01*
X92571430Y-13415571D02*
X92523811Y-13463190D01*
X92523811Y-13463190D02*
X92428573Y-13510809D01*
X92428573Y-13510809D02*
X92095240Y-13510809D01*
X94857145Y-14367952D02*
X94857145Y-12939380D01*
X75071428Y-15644563D02*
X74500000Y-15644563D01*
X74785714Y-15644563D02*
X74785714Y-14644563D01*
X74785714Y-14644563D02*
X74690476Y-14787420D01*
X74690476Y-14787420D02*
X74595238Y-14882658D01*
X74595238Y-14882658D02*
X74500000Y-14930277D01*
X75452381Y-14739801D02*
X75500000Y-14692182D01*
X75500000Y-14692182D02*
X75595238Y-14644563D01*
X75595238Y-14644563D02*
X75833333Y-14644563D01*
X75833333Y-14644563D02*
X75928571Y-14692182D01*
X75928571Y-14692182D02*
X75976190Y-14739801D01*
X75976190Y-14739801D02*
X76023809Y-14835039D01*
X76023809Y-14835039D02*
X76023809Y-14930277D01*
X76023809Y-14930277D02*
X75976190Y-15073134D01*
X75976190Y-15073134D02*
X75404762Y-15644563D01*
X75404762Y-15644563D02*
X76023809Y-15644563D01*
X76309524Y-14644563D02*
X76642857Y-15644563D01*
X76642857Y-15644563D02*
X76976190Y-14644563D01*
X78833334Y-14977896D02*
X78071429Y-15263610D01*
X78071429Y-15263610D02*
X78833334Y-15549324D01*
X79833333Y-15644563D02*
X79261905Y-15644563D01*
X79547619Y-15644563D02*
X79547619Y-14644563D01*
X79547619Y-14644563D02*
X79452381Y-14787420D01*
X79452381Y-14787420D02*
X79357143Y-14882658D01*
X79357143Y-14882658D02*
X79261905Y-14930277D01*
X80261905Y-15549324D02*
X80309524Y-15596944D01*
X80309524Y-15596944D02*
X80261905Y-15644563D01*
X80261905Y-15644563D02*
X80214286Y-15596944D01*
X80214286Y-15596944D02*
X80261905Y-15549324D01*
X80261905Y-15549324D02*
X80261905Y-15644563D01*
X81214285Y-14644563D02*
X80738095Y-14644563D01*
X80738095Y-14644563D02*
X80690476Y-15120753D01*
X80690476Y-15120753D02*
X80738095Y-15073134D01*
X80738095Y-15073134D02*
X80833333Y-15025515D01*
X80833333Y-15025515D02*
X81071428Y-15025515D01*
X81071428Y-15025515D02*
X81166666Y-15073134D01*
X81166666Y-15073134D02*
X81214285Y-15120753D01*
X81214285Y-15120753D02*
X81261904Y-15215991D01*
X81261904Y-15215991D02*
X81261904Y-15454086D01*
X81261904Y-15454086D02*
X81214285Y-15549324D01*
X81214285Y-15549324D02*
X81166666Y-15596944D01*
X81166666Y-15596944D02*
X81071428Y-15644563D01*
X81071428Y-15644563D02*
X80833333Y-15644563D01*
X80833333Y-15644563D02*
X80738095Y-15596944D01*
X80738095Y-15596944D02*
X80690476Y-15549324D01*
X81642857Y-15358848D02*
X82119047Y-15358848D01*
X81547619Y-15644563D02*
X81880952Y-14644563D01*
X81880952Y-14644563D02*
X82214285Y-15644563D01*
X83880952Y-15549324D02*
X83833333Y-15596944D01*
X83833333Y-15596944D02*
X83690476Y-15644563D01*
X83690476Y-15644563D02*
X83595238Y-15644563D01*
X83595238Y-15644563D02*
X83452381Y-15596944D01*
X83452381Y-15596944D02*
X83357143Y-15501705D01*
X83357143Y-15501705D02*
X83309524Y-15406467D01*
X83309524Y-15406467D02*
X83261905Y-15215991D01*
X83261905Y-15215991D02*
X83261905Y-15073134D01*
X83261905Y-15073134D02*
X83309524Y-14882658D01*
X83309524Y-14882658D02*
X83357143Y-14787420D01*
X83357143Y-14787420D02*
X83452381Y-14692182D01*
X83452381Y-14692182D02*
X83595238Y-14644563D01*
X83595238Y-14644563D02*
X83690476Y-14644563D01*
X83690476Y-14644563D02*
X83833333Y-14692182D01*
X83833333Y-14692182D02*
X83880952Y-14739801D01*
X84500000Y-14644563D02*
X84690476Y-14644563D01*
X84690476Y-14644563D02*
X84785714Y-14692182D01*
X84785714Y-14692182D02*
X84880952Y-14787420D01*
X84880952Y-14787420D02*
X84928571Y-14977896D01*
X84928571Y-14977896D02*
X84928571Y-15311229D01*
X84928571Y-15311229D02*
X84880952Y-15501705D01*
X84880952Y-15501705D02*
X84785714Y-15596944D01*
X84785714Y-15596944D02*
X84690476Y-15644563D01*
X84690476Y-15644563D02*
X84500000Y-15644563D01*
X84500000Y-15644563D02*
X84404762Y-15596944D01*
X84404762Y-15596944D02*
X84309524Y-15501705D01*
X84309524Y-15501705D02*
X84261905Y-15311229D01*
X84261905Y-15311229D02*
X84261905Y-14977896D01*
X84261905Y-14977896D02*
X84309524Y-14787420D01*
X84309524Y-14787420D02*
X84404762Y-14692182D01*
X84404762Y-14692182D02*
X84500000Y-14644563D01*
X85357143Y-15644563D02*
X85357143Y-14644563D01*
X85357143Y-14644563D02*
X85928571Y-15644563D01*
X85928571Y-15644563D02*
X85928571Y-14644563D01*
X86261905Y-14644563D02*
X86833333Y-14644563D01*
X86547619Y-15644563D02*
X86547619Y-14644563D01*
X87119048Y-15358848D02*
X87595238Y-15358848D01*
X87023810Y-15644563D02*
X87357143Y-14644563D01*
X87357143Y-14644563D02*
X87690476Y-15644563D01*
X88595238Y-15549324D02*
X88547619Y-15596944D01*
X88547619Y-15596944D02*
X88404762Y-15644563D01*
X88404762Y-15644563D02*
X88309524Y-15644563D01*
X88309524Y-15644563D02*
X88166667Y-15596944D01*
X88166667Y-15596944D02*
X88071429Y-15501705D01*
X88071429Y-15501705D02*
X88023810Y-15406467D01*
X88023810Y-15406467D02*
X87976191Y-15215991D01*
X87976191Y-15215991D02*
X87976191Y-15073134D01*
X87976191Y-15073134D02*
X88023810Y-14882658D01*
X88023810Y-14882658D02*
X88071429Y-14787420D01*
X88071429Y-14787420D02*
X88166667Y-14692182D01*
X88166667Y-14692182D02*
X88309524Y-14644563D01*
X88309524Y-14644563D02*
X88404762Y-14644563D01*
X88404762Y-14644563D02*
X88547619Y-14692182D01*
X88547619Y-14692182D02*
X88595238Y-14739801D01*
X88880953Y-14644563D02*
X89452381Y-14644563D01*
X89166667Y-15644563D02*
X89166667Y-14644563D01*
X89976191Y-14644563D02*
X90166667Y-14644563D01*
X90166667Y-14644563D02*
X90261905Y-14692182D01*
X90261905Y-14692182D02*
X90357143Y-14787420D01*
X90357143Y-14787420D02*
X90404762Y-14977896D01*
X90404762Y-14977896D02*
X90404762Y-15311229D01*
X90404762Y-15311229D02*
X90357143Y-15501705D01*
X90357143Y-15501705D02*
X90261905Y-15596944D01*
X90261905Y-15596944D02*
X90166667Y-15644563D01*
X90166667Y-15644563D02*
X89976191Y-15644563D01*
X89976191Y-15644563D02*
X89880953Y-15596944D01*
X89880953Y-15596944D02*
X89785715Y-15501705D01*
X89785715Y-15501705D02*
X89738096Y-15311229D01*
X89738096Y-15311229D02*
X89738096Y-14977896D01*
X89738096Y-14977896D02*
X89785715Y-14787420D01*
X89785715Y-14787420D02*
X89880953Y-14692182D01*
X89880953Y-14692182D02*
X89976191Y-14644563D01*
X91404762Y-15644563D02*
X91071429Y-15168372D01*
X90833334Y-15644563D02*
X90833334Y-14644563D01*
X90833334Y-14644563D02*
X91214286Y-14644563D01*
X91214286Y-14644563D02*
X91309524Y-14692182D01*
X91309524Y-14692182D02*
X91357143Y-14739801D01*
X91357143Y-14739801D02*
X91404762Y-14835039D01*
X91404762Y-14835039D02*
X91404762Y-14977896D01*
X91404762Y-14977896D02*
X91357143Y-15073134D01*
X91357143Y-15073134D02*
X91309524Y-15120753D01*
X91309524Y-15120753D02*
X91214286Y-15168372D01*
X91214286Y-15168372D02*
X90833334Y-15168372D01*
X93166667Y-15549324D02*
X93119048Y-15596944D01*
X93119048Y-15596944D02*
X92976191Y-15644563D01*
X92976191Y-15644563D02*
X92880953Y-15644563D01*
X92880953Y-15644563D02*
X92738096Y-15596944D01*
X92738096Y-15596944D02*
X92642858Y-15501705D01*
X92642858Y-15501705D02*
X92595239Y-15406467D01*
X92595239Y-15406467D02*
X92547620Y-15215991D01*
X92547620Y-15215991D02*
X92547620Y-15073134D01*
X92547620Y-15073134D02*
X92595239Y-14882658D01*
X92595239Y-14882658D02*
X92642858Y-14787420D01*
X92642858Y-14787420D02*
X92738096Y-14692182D01*
X92738096Y-14692182D02*
X92880953Y-14644563D01*
X92880953Y-14644563D02*
X92976191Y-14644563D01*
X92976191Y-14644563D02*
X93119048Y-14692182D01*
X93119048Y-14692182D02*
X93166667Y-14739801D01*
X93785715Y-14644563D02*
X93976191Y-14644563D01*
X93976191Y-14644563D02*
X94071429Y-14692182D01*
X94071429Y-14692182D02*
X94166667Y-14787420D01*
X94166667Y-14787420D02*
X94214286Y-14977896D01*
X94214286Y-14977896D02*
X94214286Y-15311229D01*
X94214286Y-15311229D02*
X94166667Y-15501705D01*
X94166667Y-15501705D02*
X94071429Y-15596944D01*
X94071429Y-15596944D02*
X93976191Y-15644563D01*
X93976191Y-15644563D02*
X93785715Y-15644563D01*
X93785715Y-15644563D02*
X93690477Y-15596944D01*
X93690477Y-15596944D02*
X93595239Y-15501705D01*
X93595239Y-15501705D02*
X93547620Y-15311229D01*
X93547620Y-15311229D02*
X93547620Y-14977896D01*
X93547620Y-14977896D02*
X93595239Y-14787420D01*
X93595239Y-14787420D02*
X93690477Y-14692182D01*
X93690477Y-14692182D02*
X93785715Y-14644563D01*
X94642858Y-15644563D02*
X94642858Y-14644563D01*
X95595238Y-15644563D02*
X95119048Y-15644563D01*
X95119048Y-15644563D02*
X95119048Y-14644563D01*
D12*
X97945250Y-44260807D02*
X97945250Y-44832236D01*
X98159535Y-45189378D02*
X97945250Y-45760807D01*
X97945250Y-45760807D02*
X97730964Y-45189378D01*
D13*
X74057142Y-55699819D02*
X73723809Y-55223628D01*
X73485714Y-55699819D02*
X73485714Y-54699819D01*
X73485714Y-54699819D02*
X73866666Y-54699819D01*
X73866666Y-54699819D02*
X73961904Y-54747438D01*
X73961904Y-54747438D02*
X74009523Y-54795057D01*
X74009523Y-54795057D02*
X74057142Y-54890295D01*
X74057142Y-54890295D02*
X74057142Y-55033152D01*
X74057142Y-55033152D02*
X74009523Y-55128390D01*
X74009523Y-55128390D02*
X73961904Y-55176009D01*
X73961904Y-55176009D02*
X73866666Y-55223628D01*
X73866666Y-55223628D02*
X73485714Y-55223628D01*
X75009523Y-55699819D02*
X74438095Y-55699819D01*
X74723809Y-55699819D02*
X74723809Y-54699819D01*
X74723809Y-54699819D02*
X74628571Y-54842676D01*
X74628571Y-54842676D02*
X74533333Y-54937914D01*
X74533333Y-54937914D02*
X74438095Y-54985533D01*
X75914285Y-54699819D02*
X75438095Y-54699819D01*
X75438095Y-54699819D02*
X75390476Y-55176009D01*
X75390476Y-55176009D02*
X75438095Y-55128390D01*
X75438095Y-55128390D02*
X75533333Y-55080771D01*
X75533333Y-55080771D02*
X75771428Y-55080771D01*
X75771428Y-55080771D02*
X75866666Y-55128390D01*
X75866666Y-55128390D02*
X75914285Y-55176009D01*
X75914285Y-55176009D02*
X75961904Y-55271247D01*
X75961904Y-55271247D02*
X75961904Y-55509342D01*
X75961904Y-55509342D02*
X75914285Y-55604580D01*
X75914285Y-55604580D02*
X75866666Y-55652200D01*
X75866666Y-55652200D02*
X75771428Y-55699819D01*
X75771428Y-55699819D02*
X75533333Y-55699819D01*
X75533333Y-55699819D02*
X75438095Y-55652200D01*
X75438095Y-55652200D02*
X75390476Y-55604580D01*
X52934104Y-40463339D02*
X52934104Y-39987149D01*
X53219819Y-40558577D02*
X52219819Y-40225244D01*
X52219819Y-40225244D02*
X53219819Y-39891911D01*
X53219819Y-39034768D02*
X53219819Y-39606196D01*
X53219819Y-39320482D02*
X52219819Y-39320482D01*
X52219819Y-39320482D02*
X52362676Y-39415720D01*
X52362676Y-39415720D02*
X52457914Y-39510958D01*
X52457914Y-39510958D02*
X52505533Y-39606196D01*
X62699819Y-25867857D02*
X62223628Y-26201190D01*
X62699819Y-26439285D02*
X61699819Y-26439285D01*
X61699819Y-26439285D02*
X61699819Y-26058333D01*
X61699819Y-26058333D02*
X61747438Y-25963095D01*
X61747438Y-25963095D02*
X61795057Y-25915476D01*
X61795057Y-25915476D02*
X61890295Y-25867857D01*
X61890295Y-25867857D02*
X62033152Y-25867857D01*
X62033152Y-25867857D02*
X62128390Y-25915476D01*
X62128390Y-25915476D02*
X62176009Y-25963095D01*
X62176009Y-25963095D02*
X62223628Y-26058333D01*
X62223628Y-26058333D02*
X62223628Y-26439285D01*
X61795057Y-25486904D02*
X61747438Y-25439285D01*
X61747438Y-25439285D02*
X61699819Y-25344047D01*
X61699819Y-25344047D02*
X61699819Y-25105952D01*
X61699819Y-25105952D02*
X61747438Y-25010714D01*
X61747438Y-25010714D02*
X61795057Y-24963095D01*
X61795057Y-24963095D02*
X61890295Y-24915476D01*
X61890295Y-24915476D02*
X61985533Y-24915476D01*
X61985533Y-24915476D02*
X62128390Y-24963095D01*
X62128390Y-24963095D02*
X62699819Y-25534523D01*
X62699819Y-25534523D02*
X62699819Y-24915476D01*
X62033152Y-24058333D02*
X62699819Y-24058333D01*
X61652200Y-24296428D02*
X62366485Y-24534523D01*
X62366485Y-24534523D02*
X62366485Y-23915476D01*
D14*
X15683571Y-80753365D02*
X15623095Y-80813842D01*
X15623095Y-80813842D02*
X15441666Y-80874318D01*
X15441666Y-80874318D02*
X15320714Y-80874318D01*
X15320714Y-80874318D02*
X15139285Y-80813842D01*
X15139285Y-80813842D02*
X15018333Y-80692889D01*
X15018333Y-80692889D02*
X14957856Y-80571937D01*
X14957856Y-80571937D02*
X14897380Y-80330032D01*
X14897380Y-80330032D02*
X14897380Y-80148603D01*
X14897380Y-80148603D02*
X14957856Y-79906699D01*
X14957856Y-79906699D02*
X15018333Y-79785746D01*
X15018333Y-79785746D02*
X15139285Y-79664794D01*
X15139285Y-79664794D02*
X15320714Y-79604318D01*
X15320714Y-79604318D02*
X15441666Y-79604318D01*
X15441666Y-79604318D02*
X15623095Y-79664794D01*
X15623095Y-79664794D02*
X15683571Y-79725270D01*
X16772142Y-80027651D02*
X16772142Y-80874318D01*
X16469761Y-79543842D02*
X16167380Y-80450984D01*
X16167380Y-80450984D02*
X16953571Y-80450984D01*
X17376904Y-79725270D02*
X17437380Y-79664794D01*
X17437380Y-79664794D02*
X17558333Y-79604318D01*
X17558333Y-79604318D02*
X17860714Y-79604318D01*
X17860714Y-79604318D02*
X17981666Y-79664794D01*
X17981666Y-79664794D02*
X18042142Y-79725270D01*
X18042142Y-79725270D02*
X18102619Y-79846222D01*
X18102619Y-79846222D02*
X18102619Y-79967175D01*
X18102619Y-79967175D02*
X18042142Y-80148603D01*
X18042142Y-80148603D02*
X17316428Y-80874318D01*
X17316428Y-80874318D02*
X18102619Y-80874318D01*
D13*
X19234819Y-29616666D02*
X18758628Y-29949999D01*
X19234819Y-30188094D02*
X18234819Y-30188094D01*
X18234819Y-30188094D02*
X18234819Y-29807142D01*
X18234819Y-29807142D02*
X18282438Y-29711904D01*
X18282438Y-29711904D02*
X18330057Y-29664285D01*
X18330057Y-29664285D02*
X18425295Y-29616666D01*
X18425295Y-29616666D02*
X18568152Y-29616666D01*
X18568152Y-29616666D02*
X18663390Y-29664285D01*
X18663390Y-29664285D02*
X18711009Y-29711904D01*
X18711009Y-29711904D02*
X18758628Y-29807142D01*
X18758628Y-29807142D02*
X18758628Y-30188094D01*
X19234819Y-28664285D02*
X19234819Y-29235713D01*
X19234819Y-28949999D02*
X18234819Y-28949999D01*
X18234819Y-28949999D02*
X18377676Y-29045237D01*
X18377676Y-29045237D02*
X18472914Y-29140475D01*
X18472914Y-29140475D02*
X18520533Y-29235713D01*
D14*
X56183571Y-95453365D02*
X56123095Y-95513842D01*
X56123095Y-95513842D02*
X55941666Y-95574318D01*
X55941666Y-95574318D02*
X55820714Y-95574318D01*
X55820714Y-95574318D02*
X55639285Y-95513842D01*
X55639285Y-95513842D02*
X55518333Y-95392889D01*
X55518333Y-95392889D02*
X55457856Y-95271937D01*
X55457856Y-95271937D02*
X55397380Y-95030032D01*
X55397380Y-95030032D02*
X55397380Y-94848603D01*
X55397380Y-94848603D02*
X55457856Y-94606699D01*
X55457856Y-94606699D02*
X55518333Y-94485746D01*
X55518333Y-94485746D02*
X55639285Y-94364794D01*
X55639285Y-94364794D02*
X55820714Y-94304318D01*
X55820714Y-94304318D02*
X55941666Y-94304318D01*
X55941666Y-94304318D02*
X56123095Y-94364794D01*
X56123095Y-94364794D02*
X56183571Y-94425270D01*
X56606904Y-94304318D02*
X57393095Y-94304318D01*
X57393095Y-94304318D02*
X56969761Y-94788127D01*
X56969761Y-94788127D02*
X57151190Y-94788127D01*
X57151190Y-94788127D02*
X57272142Y-94848603D01*
X57272142Y-94848603D02*
X57332618Y-94909080D01*
X57332618Y-94909080D02*
X57393095Y-95030032D01*
X57393095Y-95030032D02*
X57393095Y-95332413D01*
X57393095Y-95332413D02*
X57332618Y-95453365D01*
X57332618Y-95453365D02*
X57272142Y-95513842D01*
X57272142Y-95513842D02*
X57151190Y-95574318D01*
X57151190Y-95574318D02*
X56788333Y-95574318D01*
X56788333Y-95574318D02*
X56667380Y-95513842D01*
X56667380Y-95513842D02*
X56606904Y-95453365D01*
X58118809Y-94848603D02*
X57997857Y-94788127D01*
X57997857Y-94788127D02*
X57937380Y-94727651D01*
X57937380Y-94727651D02*
X57876904Y-94606699D01*
X57876904Y-94606699D02*
X57876904Y-94546222D01*
X57876904Y-94546222D02*
X57937380Y-94425270D01*
X57937380Y-94425270D02*
X57997857Y-94364794D01*
X57997857Y-94364794D02*
X58118809Y-94304318D01*
X58118809Y-94304318D02*
X58360714Y-94304318D01*
X58360714Y-94304318D02*
X58481666Y-94364794D01*
X58481666Y-94364794D02*
X58542142Y-94425270D01*
X58542142Y-94425270D02*
X58602619Y-94546222D01*
X58602619Y-94546222D02*
X58602619Y-94606699D01*
X58602619Y-94606699D02*
X58542142Y-94727651D01*
X58542142Y-94727651D02*
X58481666Y-94788127D01*
X58481666Y-94788127D02*
X58360714Y-94848603D01*
X58360714Y-94848603D02*
X58118809Y-94848603D01*
X58118809Y-94848603D02*
X57997857Y-94909080D01*
X57997857Y-94909080D02*
X57937380Y-94969556D01*
X57937380Y-94969556D02*
X57876904Y-95090508D01*
X57876904Y-95090508D02*
X57876904Y-95332413D01*
X57876904Y-95332413D02*
X57937380Y-95453365D01*
X57937380Y-95453365D02*
X57997857Y-95513842D01*
X57997857Y-95513842D02*
X58118809Y-95574318D01*
X58118809Y-95574318D02*
X58360714Y-95574318D01*
X58360714Y-95574318D02*
X58481666Y-95513842D01*
X58481666Y-95513842D02*
X58542142Y-95453365D01*
X58542142Y-95453365D02*
X58602619Y-95332413D01*
X58602619Y-95332413D02*
X58602619Y-95090508D01*
X58602619Y-95090508D02*
X58542142Y-94969556D01*
X58542142Y-94969556D02*
X58481666Y-94909080D01*
X58481666Y-94909080D02*
X58360714Y-94848603D01*
X50333571Y-69453365D02*
X50273095Y-69513842D01*
X50273095Y-69513842D02*
X50091666Y-69574318D01*
X50091666Y-69574318D02*
X49970714Y-69574318D01*
X49970714Y-69574318D02*
X49789285Y-69513842D01*
X49789285Y-69513842D02*
X49668333Y-69392889D01*
X49668333Y-69392889D02*
X49607856Y-69271937D01*
X49607856Y-69271937D02*
X49547380Y-69030032D01*
X49547380Y-69030032D02*
X49547380Y-68848603D01*
X49547380Y-68848603D02*
X49607856Y-68606699D01*
X49607856Y-68606699D02*
X49668333Y-68485746D01*
X49668333Y-68485746D02*
X49789285Y-68364794D01*
X49789285Y-68364794D02*
X49970714Y-68304318D01*
X49970714Y-68304318D02*
X50091666Y-68304318D01*
X50091666Y-68304318D02*
X50273095Y-68364794D01*
X50273095Y-68364794D02*
X50333571Y-68425270D01*
X50817380Y-68425270D02*
X50877856Y-68364794D01*
X50877856Y-68364794D02*
X50998809Y-68304318D01*
X50998809Y-68304318D02*
X51301190Y-68304318D01*
X51301190Y-68304318D02*
X51422142Y-68364794D01*
X51422142Y-68364794D02*
X51482618Y-68425270D01*
X51482618Y-68425270D02*
X51543095Y-68546222D01*
X51543095Y-68546222D02*
X51543095Y-68667175D01*
X51543095Y-68667175D02*
X51482618Y-68848603D01*
X51482618Y-68848603D02*
X50756904Y-69574318D01*
X50756904Y-69574318D02*
X51543095Y-69574318D01*
X52268809Y-68848603D02*
X52147857Y-68788127D01*
X52147857Y-68788127D02*
X52087380Y-68727651D01*
X52087380Y-68727651D02*
X52026904Y-68606699D01*
X52026904Y-68606699D02*
X52026904Y-68546222D01*
X52026904Y-68546222D02*
X52087380Y-68425270D01*
X52087380Y-68425270D02*
X52147857Y-68364794D01*
X52147857Y-68364794D02*
X52268809Y-68304318D01*
X52268809Y-68304318D02*
X52510714Y-68304318D01*
X52510714Y-68304318D02*
X52631666Y-68364794D01*
X52631666Y-68364794D02*
X52692142Y-68425270D01*
X52692142Y-68425270D02*
X52752619Y-68546222D01*
X52752619Y-68546222D02*
X52752619Y-68606699D01*
X52752619Y-68606699D02*
X52692142Y-68727651D01*
X52692142Y-68727651D02*
X52631666Y-68788127D01*
X52631666Y-68788127D02*
X52510714Y-68848603D01*
X52510714Y-68848603D02*
X52268809Y-68848603D01*
X52268809Y-68848603D02*
X52147857Y-68909080D01*
X52147857Y-68909080D02*
X52087380Y-68969556D01*
X52087380Y-68969556D02*
X52026904Y-69090508D01*
X52026904Y-69090508D02*
X52026904Y-69332413D01*
X52026904Y-69332413D02*
X52087380Y-69453365D01*
X52087380Y-69453365D02*
X52147857Y-69513842D01*
X52147857Y-69513842D02*
X52268809Y-69574318D01*
X52268809Y-69574318D02*
X52510714Y-69574318D01*
X52510714Y-69574318D02*
X52631666Y-69513842D01*
X52631666Y-69513842D02*
X52692142Y-69453365D01*
X52692142Y-69453365D02*
X52752619Y-69332413D01*
X52752619Y-69332413D02*
X52752619Y-69090508D01*
X52752619Y-69090508D02*
X52692142Y-68969556D01*
X52692142Y-68969556D02*
X52631666Y-68909080D01*
X52631666Y-68909080D02*
X52510714Y-68848603D01*
X19074318Y-23239762D02*
X17804318Y-23239762D01*
X18953365Y-21909285D02*
X19013842Y-21969761D01*
X19013842Y-21969761D02*
X19074318Y-22151190D01*
X19074318Y-22151190D02*
X19074318Y-22272142D01*
X19074318Y-22272142D02*
X19013842Y-22453571D01*
X19013842Y-22453571D02*
X18892889Y-22574523D01*
X18892889Y-22574523D02*
X18771937Y-22635000D01*
X18771937Y-22635000D02*
X18530032Y-22695476D01*
X18530032Y-22695476D02*
X18348603Y-22695476D01*
X18348603Y-22695476D02*
X18106699Y-22635000D01*
X18106699Y-22635000D02*
X17985746Y-22574523D01*
X17985746Y-22574523D02*
X17864794Y-22453571D01*
X17864794Y-22453571D02*
X17804318Y-22272142D01*
X17804318Y-22272142D02*
X17804318Y-22151190D01*
X17804318Y-22151190D02*
X17864794Y-21969761D01*
X17864794Y-21969761D02*
X17925270Y-21909285D01*
X19074318Y-20699761D02*
X19074318Y-21425476D01*
X19074318Y-21062619D02*
X17804318Y-21062619D01*
X17804318Y-21062619D02*
X17985746Y-21183571D01*
X17985746Y-21183571D02*
X18106699Y-21304523D01*
X18106699Y-21304523D02*
X18167175Y-21425476D01*
D13*
X6738095Y-91654819D02*
X6738095Y-90654819D01*
X6738095Y-91131009D02*
X7309523Y-91131009D01*
X7309523Y-91654819D02*
X7309523Y-90654819D01*
X7738095Y-90750057D02*
X7785714Y-90702438D01*
X7785714Y-90702438D02*
X7880952Y-90654819D01*
X7880952Y-90654819D02*
X8119047Y-90654819D01*
X8119047Y-90654819D02*
X8214285Y-90702438D01*
X8214285Y-90702438D02*
X8261904Y-90750057D01*
X8261904Y-90750057D02*
X8309523Y-90845295D01*
X8309523Y-90845295D02*
X8309523Y-90940533D01*
X8309523Y-90940533D02*
X8261904Y-91083390D01*
X8261904Y-91083390D02*
X7690476Y-91654819D01*
X7690476Y-91654819D02*
X8309523Y-91654819D01*
X88057142Y-60259819D02*
X87723809Y-59783628D01*
X87485714Y-60259819D02*
X87485714Y-59259819D01*
X87485714Y-59259819D02*
X87866666Y-59259819D01*
X87866666Y-59259819D02*
X87961904Y-59307438D01*
X87961904Y-59307438D02*
X88009523Y-59355057D01*
X88009523Y-59355057D02*
X88057142Y-59450295D01*
X88057142Y-59450295D02*
X88057142Y-59593152D01*
X88057142Y-59593152D02*
X88009523Y-59688390D01*
X88009523Y-59688390D02*
X87961904Y-59736009D01*
X87961904Y-59736009D02*
X87866666Y-59783628D01*
X87866666Y-59783628D02*
X87485714Y-59783628D01*
X89009523Y-60259819D02*
X88438095Y-60259819D01*
X88723809Y-60259819D02*
X88723809Y-59259819D01*
X88723809Y-59259819D02*
X88628571Y-59402676D01*
X88628571Y-59402676D02*
X88533333Y-59497914D01*
X88533333Y-59497914D02*
X88438095Y-59545533D01*
X89961904Y-60259819D02*
X89390476Y-60259819D01*
X89676190Y-60259819D02*
X89676190Y-59259819D01*
X89676190Y-59259819D02*
X89580952Y-59402676D01*
X89580952Y-59402676D02*
X89485714Y-59497914D01*
X89485714Y-59497914D02*
X89390476Y-59545533D01*
X79238095Y-25204819D02*
X79238095Y-26014342D01*
X79238095Y-26014342D02*
X79285714Y-26109580D01*
X79285714Y-26109580D02*
X79333333Y-26157200D01*
X79333333Y-26157200D02*
X79428571Y-26204819D01*
X79428571Y-26204819D02*
X79619047Y-26204819D01*
X79619047Y-26204819D02*
X79714285Y-26157200D01*
X79714285Y-26157200D02*
X79761904Y-26109580D01*
X79761904Y-26109580D02*
X79809523Y-26014342D01*
X79809523Y-26014342D02*
X79809523Y-25204819D01*
X80190476Y-25204819D02*
X80857142Y-25204819D01*
X80857142Y-25204819D02*
X80428571Y-26204819D01*
D14*
X27457856Y-91299318D02*
X27457856Y-90029318D01*
X27457856Y-90029318D02*
X27941666Y-90029318D01*
X27941666Y-90029318D02*
X28062618Y-90089794D01*
X28062618Y-90089794D02*
X28123095Y-90150270D01*
X28123095Y-90150270D02*
X28183571Y-90271222D01*
X28183571Y-90271222D02*
X28183571Y-90452651D01*
X28183571Y-90452651D02*
X28123095Y-90573603D01*
X28123095Y-90573603D02*
X28062618Y-90634080D01*
X28062618Y-90634080D02*
X27941666Y-90694556D01*
X27941666Y-90694556D02*
X27457856Y-90694556D01*
X28667380Y-91238842D02*
X28848809Y-91299318D01*
X28848809Y-91299318D02*
X29151190Y-91299318D01*
X29151190Y-91299318D02*
X29272142Y-91238842D01*
X29272142Y-91238842D02*
X29332618Y-91178365D01*
X29332618Y-91178365D02*
X29393095Y-91057413D01*
X29393095Y-91057413D02*
X29393095Y-90936461D01*
X29393095Y-90936461D02*
X29332618Y-90815508D01*
X29332618Y-90815508D02*
X29272142Y-90755032D01*
X29272142Y-90755032D02*
X29151190Y-90694556D01*
X29151190Y-90694556D02*
X28909285Y-90634080D01*
X28909285Y-90634080D02*
X28788333Y-90573603D01*
X28788333Y-90573603D02*
X28727856Y-90513127D01*
X28727856Y-90513127D02*
X28667380Y-90392175D01*
X28667380Y-90392175D02*
X28667380Y-90271222D01*
X28667380Y-90271222D02*
X28727856Y-90150270D01*
X28727856Y-90150270D02*
X28788333Y-90089794D01*
X28788333Y-90089794D02*
X28909285Y-90029318D01*
X28909285Y-90029318D02*
X29211666Y-90029318D01*
X29211666Y-90029318D02*
X29393095Y-90089794D01*
X30481666Y-90452651D02*
X30481666Y-91299318D01*
X30179285Y-89968842D02*
X29876904Y-90875984D01*
X29876904Y-90875984D02*
X30663095Y-90875984D01*
D13*
X60419642Y-77359580D02*
X60372023Y-77407200D01*
X60372023Y-77407200D02*
X60229166Y-77454819D01*
X60229166Y-77454819D02*
X60133928Y-77454819D01*
X60133928Y-77454819D02*
X59991071Y-77407200D01*
X59991071Y-77407200D02*
X59895833Y-77311961D01*
X59895833Y-77311961D02*
X59848214Y-77216723D01*
X59848214Y-77216723D02*
X59800595Y-77026247D01*
X59800595Y-77026247D02*
X59800595Y-76883390D01*
X59800595Y-76883390D02*
X59848214Y-76692914D01*
X59848214Y-76692914D02*
X59895833Y-76597676D01*
X59895833Y-76597676D02*
X59991071Y-76502438D01*
X59991071Y-76502438D02*
X60133928Y-76454819D01*
X60133928Y-76454819D02*
X60229166Y-76454819D01*
X60229166Y-76454819D02*
X60372023Y-76502438D01*
X60372023Y-76502438D02*
X60419642Y-76550057D01*
X61372023Y-77454819D02*
X60800595Y-77454819D01*
X61086309Y-77454819D02*
X61086309Y-76454819D01*
X61086309Y-76454819D02*
X60991071Y-76597676D01*
X60991071Y-76597676D02*
X60895833Y-76692914D01*
X60895833Y-76692914D02*
X60800595Y-76740533D01*
X62229166Y-76788152D02*
X62229166Y-77454819D01*
X61991071Y-76407200D02*
X61752976Y-77121485D01*
X61752976Y-77121485D02*
X62372023Y-77121485D01*
D14*
X5683571Y-80953365D02*
X5623095Y-81013842D01*
X5623095Y-81013842D02*
X5441666Y-81074318D01*
X5441666Y-81074318D02*
X5320714Y-81074318D01*
X5320714Y-81074318D02*
X5139285Y-81013842D01*
X5139285Y-81013842D02*
X5018333Y-80892889D01*
X5018333Y-80892889D02*
X4957856Y-80771937D01*
X4957856Y-80771937D02*
X4897380Y-80530032D01*
X4897380Y-80530032D02*
X4897380Y-80348603D01*
X4897380Y-80348603D02*
X4957856Y-80106699D01*
X4957856Y-80106699D02*
X5018333Y-79985746D01*
X5018333Y-79985746D02*
X5139285Y-79864794D01*
X5139285Y-79864794D02*
X5320714Y-79804318D01*
X5320714Y-79804318D02*
X5441666Y-79804318D01*
X5441666Y-79804318D02*
X5623095Y-79864794D01*
X5623095Y-79864794D02*
X5683571Y-79925270D01*
X6772142Y-80227651D02*
X6772142Y-81074318D01*
X6469761Y-79743842D02*
X6167380Y-80650984D01*
X6167380Y-80650984D02*
X6953571Y-80650984D01*
X8102619Y-81074318D02*
X7376904Y-81074318D01*
X7739761Y-81074318D02*
X7739761Y-79804318D01*
X7739761Y-79804318D02*
X7618809Y-79985746D01*
X7618809Y-79985746D02*
X7497857Y-80106699D01*
X7497857Y-80106699D02*
X7376904Y-80167175D01*
X27085237Y-17709318D02*
X27085237Y-16439318D01*
X28415714Y-17588365D02*
X28355238Y-17648842D01*
X28355238Y-17648842D02*
X28173809Y-17709318D01*
X28173809Y-17709318D02*
X28052857Y-17709318D01*
X28052857Y-17709318D02*
X27871428Y-17648842D01*
X27871428Y-17648842D02*
X27750476Y-17527889D01*
X27750476Y-17527889D02*
X27689999Y-17406937D01*
X27689999Y-17406937D02*
X27629523Y-17165032D01*
X27629523Y-17165032D02*
X27629523Y-16983603D01*
X27629523Y-16983603D02*
X27689999Y-16741699D01*
X27689999Y-16741699D02*
X27750476Y-16620746D01*
X27750476Y-16620746D02*
X27871428Y-16499794D01*
X27871428Y-16499794D02*
X28052857Y-16439318D01*
X28052857Y-16439318D02*
X28173809Y-16439318D01*
X28173809Y-16439318D02*
X28355238Y-16499794D01*
X28355238Y-16499794D02*
X28415714Y-16560270D01*
X28899523Y-16560270D02*
X28959999Y-16499794D01*
X28959999Y-16499794D02*
X29080952Y-16439318D01*
X29080952Y-16439318D02*
X29383333Y-16439318D01*
X29383333Y-16439318D02*
X29504285Y-16499794D01*
X29504285Y-16499794D02*
X29564761Y-16560270D01*
X29564761Y-16560270D02*
X29625238Y-16681222D01*
X29625238Y-16681222D02*
X29625238Y-16802175D01*
X29625238Y-16802175D02*
X29564761Y-16983603D01*
X29564761Y-16983603D02*
X28839047Y-17709318D01*
X28839047Y-17709318D02*
X29625238Y-17709318D01*
X92062619Y-61324080D02*
X91639285Y-61324080D01*
X91639285Y-61989318D02*
X91639285Y-60719318D01*
X91639285Y-60719318D02*
X92244047Y-60719318D01*
X93332618Y-61989318D02*
X92727856Y-61989318D01*
X92727856Y-61989318D02*
X92727856Y-60719318D01*
X93695475Y-60840270D02*
X93755951Y-60779794D01*
X93755951Y-60779794D02*
X93876904Y-60719318D01*
X93876904Y-60719318D02*
X94179285Y-60719318D01*
X94179285Y-60719318D02*
X94300237Y-60779794D01*
X94300237Y-60779794D02*
X94360713Y-60840270D01*
X94360713Y-60840270D02*
X94421190Y-60961222D01*
X94421190Y-60961222D02*
X94421190Y-61082175D01*
X94421190Y-61082175D02*
X94360713Y-61263603D01*
X94360713Y-61263603D02*
X93634999Y-61989318D01*
X93634999Y-61989318D02*
X94421190Y-61989318D01*
X99141270Y-28620952D02*
X99080794Y-28741904D01*
X99080794Y-28741904D02*
X98959842Y-28862857D01*
X98959842Y-28862857D02*
X98778413Y-29044285D01*
X98778413Y-29044285D02*
X98717937Y-29165238D01*
X98717937Y-29165238D02*
X98717937Y-29286190D01*
X99020318Y-29225714D02*
X98959842Y-29346666D01*
X98959842Y-29346666D02*
X98838889Y-29467619D01*
X98838889Y-29467619D02*
X98596984Y-29528095D01*
X98596984Y-29528095D02*
X98173651Y-29528095D01*
X98173651Y-29528095D02*
X97931746Y-29467619D01*
X97931746Y-29467619D02*
X97810794Y-29346666D01*
X97810794Y-29346666D02*
X97750318Y-29225714D01*
X97750318Y-29225714D02*
X97750318Y-28983809D01*
X97750318Y-28983809D02*
X97810794Y-28862857D01*
X97810794Y-28862857D02*
X97931746Y-28741904D01*
X97931746Y-28741904D02*
X98173651Y-28681428D01*
X98173651Y-28681428D02*
X98596984Y-28681428D01*
X98596984Y-28681428D02*
X98838889Y-28741904D01*
X98838889Y-28741904D02*
X98959842Y-28862857D01*
X98959842Y-28862857D02*
X99020318Y-28983809D01*
X99020318Y-28983809D02*
X99020318Y-29225714D01*
X99020318Y-27471904D02*
X99020318Y-28197619D01*
X99020318Y-27834762D02*
X97750318Y-27834762D01*
X97750318Y-27834762D02*
X97931746Y-27955714D01*
X97931746Y-27955714D02*
X98052699Y-28076666D01*
X98052699Y-28076666D02*
X98113175Y-28197619D01*
D13*
X80938095Y-49229819D02*
X80938095Y-50039342D01*
X80938095Y-50039342D02*
X80985714Y-50134580D01*
X80985714Y-50134580D02*
X81033333Y-50182200D01*
X81033333Y-50182200D02*
X81128571Y-50229819D01*
X81128571Y-50229819D02*
X81319047Y-50229819D01*
X81319047Y-50229819D02*
X81414285Y-50182200D01*
X81414285Y-50182200D02*
X81461904Y-50134580D01*
X81461904Y-50134580D02*
X81509523Y-50039342D01*
X81509523Y-50039342D02*
X81509523Y-49229819D01*
X82509523Y-50229819D02*
X81938095Y-50229819D01*
X82223809Y-50229819D02*
X82223809Y-49229819D01*
X82223809Y-49229819D02*
X82128571Y-49372676D01*
X82128571Y-49372676D02*
X82033333Y-49467914D01*
X82033333Y-49467914D02*
X81938095Y-49515533D01*
D14*
X112183571Y-81953365D02*
X112123095Y-82013842D01*
X112123095Y-82013842D02*
X111941666Y-82074318D01*
X111941666Y-82074318D02*
X111820714Y-82074318D01*
X111820714Y-82074318D02*
X111639285Y-82013842D01*
X111639285Y-82013842D02*
X111518333Y-81892889D01*
X111518333Y-81892889D02*
X111457856Y-81771937D01*
X111457856Y-81771937D02*
X111397380Y-81530032D01*
X111397380Y-81530032D02*
X111397380Y-81348603D01*
X111397380Y-81348603D02*
X111457856Y-81106699D01*
X111457856Y-81106699D02*
X111518333Y-80985746D01*
X111518333Y-80985746D02*
X111639285Y-80864794D01*
X111639285Y-80864794D02*
X111820714Y-80804318D01*
X111820714Y-80804318D02*
X111941666Y-80804318D01*
X111941666Y-80804318D02*
X112123095Y-80864794D01*
X112123095Y-80864794D02*
X112183571Y-80925270D01*
X112606904Y-80804318D02*
X113393095Y-80804318D01*
X113393095Y-80804318D02*
X112969761Y-81288127D01*
X112969761Y-81288127D02*
X113151190Y-81288127D01*
X113151190Y-81288127D02*
X113272142Y-81348603D01*
X113272142Y-81348603D02*
X113332618Y-81409080D01*
X113332618Y-81409080D02*
X113393095Y-81530032D01*
X113393095Y-81530032D02*
X113393095Y-81832413D01*
X113393095Y-81832413D02*
X113332618Y-81953365D01*
X113332618Y-81953365D02*
X113272142Y-82013842D01*
X113272142Y-82013842D02*
X113151190Y-82074318D01*
X113151190Y-82074318D02*
X112788333Y-82074318D01*
X112788333Y-82074318D02*
X112667380Y-82013842D01*
X112667380Y-82013842D02*
X112606904Y-81953365D01*
X113816428Y-80804318D02*
X114602619Y-80804318D01*
X114602619Y-80804318D02*
X114179285Y-81288127D01*
X114179285Y-81288127D02*
X114360714Y-81288127D01*
X114360714Y-81288127D02*
X114481666Y-81348603D01*
X114481666Y-81348603D02*
X114542142Y-81409080D01*
X114542142Y-81409080D02*
X114602619Y-81530032D01*
X114602619Y-81530032D02*
X114602619Y-81832413D01*
X114602619Y-81832413D02*
X114542142Y-81953365D01*
X114542142Y-81953365D02*
X114481666Y-82013842D01*
X114481666Y-82013842D02*
X114360714Y-82074318D01*
X114360714Y-82074318D02*
X113997857Y-82074318D01*
X113997857Y-82074318D02*
X113876904Y-82013842D01*
X113876904Y-82013842D02*
X113816428Y-81953365D01*
D13*
X88533333Y-50259819D02*
X88200000Y-49783628D01*
X87961905Y-50259819D02*
X87961905Y-49259819D01*
X87961905Y-49259819D02*
X88342857Y-49259819D01*
X88342857Y-49259819D02*
X88438095Y-49307438D01*
X88438095Y-49307438D02*
X88485714Y-49355057D01*
X88485714Y-49355057D02*
X88533333Y-49450295D01*
X88533333Y-49450295D02*
X88533333Y-49593152D01*
X88533333Y-49593152D02*
X88485714Y-49688390D01*
X88485714Y-49688390D02*
X88438095Y-49736009D01*
X88438095Y-49736009D02*
X88342857Y-49783628D01*
X88342857Y-49783628D02*
X87961905Y-49783628D01*
X89438095Y-49259819D02*
X88961905Y-49259819D01*
X88961905Y-49259819D02*
X88914286Y-49736009D01*
X88914286Y-49736009D02*
X88961905Y-49688390D01*
X88961905Y-49688390D02*
X89057143Y-49640771D01*
X89057143Y-49640771D02*
X89295238Y-49640771D01*
X89295238Y-49640771D02*
X89390476Y-49688390D01*
X89390476Y-49688390D02*
X89438095Y-49736009D01*
X89438095Y-49736009D02*
X89485714Y-49831247D01*
X89485714Y-49831247D02*
X89485714Y-50069342D01*
X89485714Y-50069342D02*
X89438095Y-50164580D01*
X89438095Y-50164580D02*
X89390476Y-50212200D01*
X89390476Y-50212200D02*
X89295238Y-50259819D01*
X89295238Y-50259819D02*
X89057143Y-50259819D01*
X89057143Y-50259819D02*
X88961905Y-50212200D01*
X88961905Y-50212200D02*
X88914286Y-50164580D01*
D14*
X40683571Y-84453365D02*
X40623095Y-84513842D01*
X40623095Y-84513842D02*
X40441666Y-84574318D01*
X40441666Y-84574318D02*
X40320714Y-84574318D01*
X40320714Y-84574318D02*
X40139285Y-84513842D01*
X40139285Y-84513842D02*
X40018333Y-84392889D01*
X40018333Y-84392889D02*
X39957856Y-84271937D01*
X39957856Y-84271937D02*
X39897380Y-84030032D01*
X39897380Y-84030032D02*
X39897380Y-83848603D01*
X39897380Y-83848603D02*
X39957856Y-83606699D01*
X39957856Y-83606699D02*
X40018333Y-83485746D01*
X40018333Y-83485746D02*
X40139285Y-83364794D01*
X40139285Y-83364794D02*
X40320714Y-83304318D01*
X40320714Y-83304318D02*
X40441666Y-83304318D01*
X40441666Y-83304318D02*
X40623095Y-83364794D01*
X40623095Y-83364794D02*
X40683571Y-83425270D01*
X41106904Y-83304318D02*
X41893095Y-83304318D01*
X41893095Y-83304318D02*
X41469761Y-83788127D01*
X41469761Y-83788127D02*
X41651190Y-83788127D01*
X41651190Y-83788127D02*
X41772142Y-83848603D01*
X41772142Y-83848603D02*
X41832618Y-83909080D01*
X41832618Y-83909080D02*
X41893095Y-84030032D01*
X41893095Y-84030032D02*
X41893095Y-84332413D01*
X41893095Y-84332413D02*
X41832618Y-84453365D01*
X41832618Y-84453365D02*
X41772142Y-84513842D01*
X41772142Y-84513842D02*
X41651190Y-84574318D01*
X41651190Y-84574318D02*
X41288333Y-84574318D01*
X41288333Y-84574318D02*
X41167380Y-84513842D01*
X41167380Y-84513842D02*
X41106904Y-84453365D01*
X42679285Y-83304318D02*
X42800238Y-83304318D01*
X42800238Y-83304318D02*
X42921190Y-83364794D01*
X42921190Y-83364794D02*
X42981666Y-83425270D01*
X42981666Y-83425270D02*
X43042142Y-83546222D01*
X43042142Y-83546222D02*
X43102619Y-83788127D01*
X43102619Y-83788127D02*
X43102619Y-84090508D01*
X43102619Y-84090508D02*
X43042142Y-84332413D01*
X43042142Y-84332413D02*
X42981666Y-84453365D01*
X42981666Y-84453365D02*
X42921190Y-84513842D01*
X42921190Y-84513842D02*
X42800238Y-84574318D01*
X42800238Y-84574318D02*
X42679285Y-84574318D01*
X42679285Y-84574318D02*
X42558333Y-84513842D01*
X42558333Y-84513842D02*
X42497857Y-84453365D01*
X42497857Y-84453365D02*
X42437380Y-84332413D01*
X42437380Y-84332413D02*
X42376904Y-84090508D01*
X42376904Y-84090508D02*
X42376904Y-83788127D01*
X42376904Y-83788127D02*
X42437380Y-83546222D01*
X42437380Y-83546222D02*
X42497857Y-83425270D01*
X42497857Y-83425270D02*
X42558333Y-83364794D01*
X42558333Y-83364794D02*
X42679285Y-83304318D01*
D13*
X72357142Y-26169819D02*
X72023809Y-25693628D01*
X71785714Y-26169819D02*
X71785714Y-25169819D01*
X71785714Y-25169819D02*
X72166666Y-25169819D01*
X72166666Y-25169819D02*
X72261904Y-25217438D01*
X72261904Y-25217438D02*
X72309523Y-25265057D01*
X72309523Y-25265057D02*
X72357142Y-25360295D01*
X72357142Y-25360295D02*
X72357142Y-25503152D01*
X72357142Y-25503152D02*
X72309523Y-25598390D01*
X72309523Y-25598390D02*
X72261904Y-25646009D01*
X72261904Y-25646009D02*
X72166666Y-25693628D01*
X72166666Y-25693628D02*
X71785714Y-25693628D01*
X73309523Y-26169819D02*
X72738095Y-26169819D01*
X73023809Y-26169819D02*
X73023809Y-25169819D01*
X73023809Y-25169819D02*
X72928571Y-25312676D01*
X72928571Y-25312676D02*
X72833333Y-25407914D01*
X72833333Y-25407914D02*
X72738095Y-25455533D01*
X74166666Y-25169819D02*
X73976190Y-25169819D01*
X73976190Y-25169819D02*
X73880952Y-25217438D01*
X73880952Y-25217438D02*
X73833333Y-25265057D01*
X73833333Y-25265057D02*
X73738095Y-25407914D01*
X73738095Y-25407914D02*
X73690476Y-25598390D01*
X73690476Y-25598390D02*
X73690476Y-25979342D01*
X73690476Y-25979342D02*
X73738095Y-26074580D01*
X73738095Y-26074580D02*
X73785714Y-26122200D01*
X73785714Y-26122200D02*
X73880952Y-26169819D01*
X73880952Y-26169819D02*
X74071428Y-26169819D01*
X74071428Y-26169819D02*
X74166666Y-26122200D01*
X74166666Y-26122200D02*
X74214285Y-26074580D01*
X74214285Y-26074580D02*
X74261904Y-25979342D01*
X74261904Y-25979342D02*
X74261904Y-25741247D01*
X74261904Y-25741247D02*
X74214285Y-25646009D01*
X74214285Y-25646009D02*
X74166666Y-25598390D01*
X74166666Y-25598390D02*
X74071428Y-25550771D01*
X74071428Y-25550771D02*
X73880952Y-25550771D01*
X73880952Y-25550771D02*
X73785714Y-25598390D01*
X73785714Y-25598390D02*
X73738095Y-25646009D01*
X73738095Y-25646009D02*
X73690476Y-25741247D01*
X79238095Y-17734819D02*
X79238095Y-18544342D01*
X79238095Y-18544342D02*
X79285714Y-18639580D01*
X79285714Y-18639580D02*
X79333333Y-18687200D01*
X79333333Y-18687200D02*
X79428571Y-18734819D01*
X79428571Y-18734819D02*
X79619047Y-18734819D01*
X79619047Y-18734819D02*
X79714285Y-18687200D01*
X79714285Y-18687200D02*
X79761904Y-18639580D01*
X79761904Y-18639580D02*
X79809523Y-18544342D01*
X79809523Y-18544342D02*
X79809523Y-17734819D01*
X80714285Y-18068152D02*
X80714285Y-18734819D01*
X80476190Y-17687200D02*
X80238095Y-18401485D01*
X80238095Y-18401485D02*
X80857142Y-18401485D01*
X100734819Y-49092857D02*
X100258628Y-49426190D01*
X100734819Y-49664285D02*
X99734819Y-49664285D01*
X99734819Y-49664285D02*
X99734819Y-49283333D01*
X99734819Y-49283333D02*
X99782438Y-49188095D01*
X99782438Y-49188095D02*
X99830057Y-49140476D01*
X99830057Y-49140476D02*
X99925295Y-49092857D01*
X99925295Y-49092857D02*
X100068152Y-49092857D01*
X100068152Y-49092857D02*
X100163390Y-49140476D01*
X100163390Y-49140476D02*
X100211009Y-49188095D01*
X100211009Y-49188095D02*
X100258628Y-49283333D01*
X100258628Y-49283333D02*
X100258628Y-49664285D01*
X99830057Y-48711904D02*
X99782438Y-48664285D01*
X99782438Y-48664285D02*
X99734819Y-48569047D01*
X99734819Y-48569047D02*
X99734819Y-48330952D01*
X99734819Y-48330952D02*
X99782438Y-48235714D01*
X99782438Y-48235714D02*
X99830057Y-48188095D01*
X99830057Y-48188095D02*
X99925295Y-48140476D01*
X99925295Y-48140476D02*
X100020533Y-48140476D01*
X100020533Y-48140476D02*
X100163390Y-48188095D01*
X100163390Y-48188095D02*
X100734819Y-48759523D01*
X100734819Y-48759523D02*
X100734819Y-48140476D01*
X99830057Y-47759523D02*
X99782438Y-47711904D01*
X99782438Y-47711904D02*
X99734819Y-47616666D01*
X99734819Y-47616666D02*
X99734819Y-47378571D01*
X99734819Y-47378571D02*
X99782438Y-47283333D01*
X99782438Y-47283333D02*
X99830057Y-47235714D01*
X99830057Y-47235714D02*
X99925295Y-47188095D01*
X99925295Y-47188095D02*
X100020533Y-47188095D01*
X100020533Y-47188095D02*
X100163390Y-47235714D01*
X100163390Y-47235714D02*
X100734819Y-47807142D01*
X100734819Y-47807142D02*
X100734819Y-47188095D01*
X88533333Y-55259819D02*
X88200000Y-54783628D01*
X87961905Y-55259819D02*
X87961905Y-54259819D01*
X87961905Y-54259819D02*
X88342857Y-54259819D01*
X88342857Y-54259819D02*
X88438095Y-54307438D01*
X88438095Y-54307438D02*
X88485714Y-54355057D01*
X88485714Y-54355057D02*
X88533333Y-54450295D01*
X88533333Y-54450295D02*
X88533333Y-54593152D01*
X88533333Y-54593152D02*
X88485714Y-54688390D01*
X88485714Y-54688390D02*
X88438095Y-54736009D01*
X88438095Y-54736009D02*
X88342857Y-54783628D01*
X88342857Y-54783628D02*
X87961905Y-54783628D01*
X88866667Y-54259819D02*
X89533333Y-54259819D01*
X89533333Y-54259819D02*
X89104762Y-55259819D01*
X80938095Y-54229819D02*
X80938095Y-55039342D01*
X80938095Y-55039342D02*
X80985714Y-55134580D01*
X80985714Y-55134580D02*
X81033333Y-55182200D01*
X81033333Y-55182200D02*
X81128571Y-55229819D01*
X81128571Y-55229819D02*
X81319047Y-55229819D01*
X81319047Y-55229819D02*
X81414285Y-55182200D01*
X81414285Y-55182200D02*
X81461904Y-55134580D01*
X81461904Y-55134580D02*
X81509523Y-55039342D01*
X81509523Y-55039342D02*
X81509523Y-54229819D01*
X81938095Y-54325057D02*
X81985714Y-54277438D01*
X81985714Y-54277438D02*
X82080952Y-54229819D01*
X82080952Y-54229819D02*
X82319047Y-54229819D01*
X82319047Y-54229819D02*
X82414285Y-54277438D01*
X82414285Y-54277438D02*
X82461904Y-54325057D01*
X82461904Y-54325057D02*
X82509523Y-54420295D01*
X82509523Y-54420295D02*
X82509523Y-54515533D01*
X82509523Y-54515533D02*
X82461904Y-54658390D01*
X82461904Y-54658390D02*
X81890476Y-55229819D01*
X81890476Y-55229819D02*
X82509523Y-55229819D01*
X111738095Y-91654819D02*
X111738095Y-90654819D01*
X111738095Y-91131009D02*
X112309523Y-91131009D01*
X112309523Y-91654819D02*
X112309523Y-90654819D01*
X113214285Y-90988152D02*
X113214285Y-91654819D01*
X112976190Y-90607200D02*
X112738095Y-91321485D01*
X112738095Y-91321485D02*
X113357142Y-91321485D01*
X74533333Y-45699819D02*
X74200000Y-45223628D01*
X73961905Y-45699819D02*
X73961905Y-44699819D01*
X73961905Y-44699819D02*
X74342857Y-44699819D01*
X74342857Y-44699819D02*
X74438095Y-44747438D01*
X74438095Y-44747438D02*
X74485714Y-44795057D01*
X74485714Y-44795057D02*
X74533333Y-44890295D01*
X74533333Y-44890295D02*
X74533333Y-45033152D01*
X74533333Y-45033152D02*
X74485714Y-45128390D01*
X74485714Y-45128390D02*
X74438095Y-45176009D01*
X74438095Y-45176009D02*
X74342857Y-45223628D01*
X74342857Y-45223628D02*
X73961905Y-45223628D01*
X75390476Y-44699819D02*
X75200000Y-44699819D01*
X75200000Y-44699819D02*
X75104762Y-44747438D01*
X75104762Y-44747438D02*
X75057143Y-44795057D01*
X75057143Y-44795057D02*
X74961905Y-44937914D01*
X74961905Y-44937914D02*
X74914286Y-45128390D01*
X74914286Y-45128390D02*
X74914286Y-45509342D01*
X74914286Y-45509342D02*
X74961905Y-45604580D01*
X74961905Y-45604580D02*
X75009524Y-45652200D01*
X75009524Y-45652200D02*
X75104762Y-45699819D01*
X75104762Y-45699819D02*
X75295238Y-45699819D01*
X75295238Y-45699819D02*
X75390476Y-45652200D01*
X75390476Y-45652200D02*
X75438095Y-45604580D01*
X75438095Y-45604580D02*
X75485714Y-45509342D01*
X75485714Y-45509342D02*
X75485714Y-45271247D01*
X75485714Y-45271247D02*
X75438095Y-45176009D01*
X75438095Y-45176009D02*
X75390476Y-45128390D01*
X75390476Y-45128390D02*
X75295238Y-45080771D01*
X75295238Y-45080771D02*
X75104762Y-45080771D01*
X75104762Y-45080771D02*
X75009524Y-45128390D01*
X75009524Y-45128390D02*
X74961905Y-45176009D01*
X74961905Y-45176009D02*
X74914286Y-45271247D01*
D14*
X69074318Y-71239762D02*
X67804318Y-71239762D01*
X68953365Y-69909285D02*
X69013842Y-69969761D01*
X69013842Y-69969761D02*
X69074318Y-70151190D01*
X69074318Y-70151190D02*
X69074318Y-70272142D01*
X69074318Y-70272142D02*
X69013842Y-70453571D01*
X69013842Y-70453571D02*
X68892889Y-70574523D01*
X68892889Y-70574523D02*
X68771937Y-70635000D01*
X68771937Y-70635000D02*
X68530032Y-70695476D01*
X68530032Y-70695476D02*
X68348603Y-70695476D01*
X68348603Y-70695476D02*
X68106699Y-70635000D01*
X68106699Y-70635000D02*
X67985746Y-70574523D01*
X67985746Y-70574523D02*
X67864794Y-70453571D01*
X67864794Y-70453571D02*
X67804318Y-70272142D01*
X67804318Y-70272142D02*
X67804318Y-70151190D01*
X67804318Y-70151190D02*
X67864794Y-69969761D01*
X67864794Y-69969761D02*
X67925270Y-69909285D01*
X67804318Y-69485952D02*
X67804318Y-68699761D01*
X67804318Y-68699761D02*
X68288127Y-69123095D01*
X68288127Y-69123095D02*
X68288127Y-68941666D01*
X68288127Y-68941666D02*
X68348603Y-68820714D01*
X68348603Y-68820714D02*
X68409080Y-68760238D01*
X68409080Y-68760238D02*
X68530032Y-68699761D01*
X68530032Y-68699761D02*
X68832413Y-68699761D01*
X68832413Y-68699761D02*
X68953365Y-68760238D01*
X68953365Y-68760238D02*
X69013842Y-68820714D01*
X69013842Y-68820714D02*
X69074318Y-68941666D01*
X69074318Y-68941666D02*
X69074318Y-69304523D01*
X69074318Y-69304523D02*
X69013842Y-69425476D01*
X69013842Y-69425476D02*
X68953365Y-69485952D01*
X91457856Y-76574318D02*
X91457856Y-75304318D01*
X91457856Y-75304318D02*
X91941666Y-75304318D01*
X91941666Y-75304318D02*
X92062618Y-75364794D01*
X92062618Y-75364794D02*
X92123095Y-75425270D01*
X92123095Y-75425270D02*
X92183571Y-75546222D01*
X92183571Y-75546222D02*
X92183571Y-75727651D01*
X92183571Y-75727651D02*
X92123095Y-75848603D01*
X92123095Y-75848603D02*
X92062618Y-75909080D01*
X92062618Y-75909080D02*
X91941666Y-75969556D01*
X91941666Y-75969556D02*
X91457856Y-75969556D01*
X92667380Y-76513842D02*
X92848809Y-76574318D01*
X92848809Y-76574318D02*
X93151190Y-76574318D01*
X93151190Y-76574318D02*
X93272142Y-76513842D01*
X93272142Y-76513842D02*
X93332618Y-76453365D01*
X93332618Y-76453365D02*
X93393095Y-76332413D01*
X93393095Y-76332413D02*
X93393095Y-76211461D01*
X93393095Y-76211461D02*
X93332618Y-76090508D01*
X93332618Y-76090508D02*
X93272142Y-76030032D01*
X93272142Y-76030032D02*
X93151190Y-75969556D01*
X93151190Y-75969556D02*
X92909285Y-75909080D01*
X92909285Y-75909080D02*
X92788333Y-75848603D01*
X92788333Y-75848603D02*
X92727856Y-75788127D01*
X92727856Y-75788127D02*
X92667380Y-75667175D01*
X92667380Y-75667175D02*
X92667380Y-75546222D01*
X92667380Y-75546222D02*
X92727856Y-75425270D01*
X92727856Y-75425270D02*
X92788333Y-75364794D01*
X92788333Y-75364794D02*
X92909285Y-75304318D01*
X92909285Y-75304318D02*
X93211666Y-75304318D01*
X93211666Y-75304318D02*
X93393095Y-75364794D01*
X93816428Y-75304318D02*
X94602619Y-75304318D01*
X94602619Y-75304318D02*
X94179285Y-75788127D01*
X94179285Y-75788127D02*
X94360714Y-75788127D01*
X94360714Y-75788127D02*
X94481666Y-75848603D01*
X94481666Y-75848603D02*
X94542142Y-75909080D01*
X94542142Y-75909080D02*
X94602619Y-76030032D01*
X94602619Y-76030032D02*
X94602619Y-76332413D01*
X94602619Y-76332413D02*
X94542142Y-76453365D01*
X94542142Y-76453365D02*
X94481666Y-76513842D01*
X94481666Y-76513842D02*
X94360714Y-76574318D01*
X94360714Y-76574318D02*
X93997857Y-76574318D01*
X93997857Y-76574318D02*
X93876904Y-76513842D01*
X93876904Y-76513842D02*
X93816428Y-76453365D01*
X103304318Y-40343332D02*
X104211461Y-40343332D01*
X104211461Y-40343332D02*
X104392889Y-40403809D01*
X104392889Y-40403809D02*
X104513842Y-40524761D01*
X104513842Y-40524761D02*
X104574318Y-40706190D01*
X104574318Y-40706190D02*
X104574318Y-40827142D01*
X103304318Y-39859523D02*
X103304318Y-39073332D01*
X103304318Y-39073332D02*
X103788127Y-39496666D01*
X103788127Y-39496666D02*
X103788127Y-39315237D01*
X103788127Y-39315237D02*
X103848603Y-39194285D01*
X103848603Y-39194285D02*
X103909080Y-39133809D01*
X103909080Y-39133809D02*
X104030032Y-39073332D01*
X104030032Y-39073332D02*
X104332413Y-39073332D01*
X104332413Y-39073332D02*
X104453365Y-39133809D01*
X104453365Y-39133809D02*
X104513842Y-39194285D01*
X104513842Y-39194285D02*
X104574318Y-39315237D01*
X104574318Y-39315237D02*
X104574318Y-39678094D01*
X104574318Y-39678094D02*
X104513842Y-39799047D01*
X104513842Y-39799047D02*
X104453365Y-39859523D01*
D13*
X2453628Y-21486190D02*
X2929819Y-21486190D01*
X1929819Y-21819523D02*
X2453628Y-21486190D01*
X2453628Y-21486190D02*
X1929819Y-21152857D01*
X2929819Y-20295714D02*
X2929819Y-20867142D01*
X2929819Y-20581428D02*
X1929819Y-20581428D01*
X1929819Y-20581428D02*
X2072676Y-20676666D01*
X2072676Y-20676666D02*
X2167914Y-20771904D01*
X2167914Y-20771904D02*
X2215533Y-20867142D01*
D14*
X74685237Y-61709318D02*
X74685237Y-60439318D01*
X76015714Y-61588365D02*
X75955238Y-61648842D01*
X75955238Y-61648842D02*
X75773809Y-61709318D01*
X75773809Y-61709318D02*
X75652857Y-61709318D01*
X75652857Y-61709318D02*
X75471428Y-61648842D01*
X75471428Y-61648842D02*
X75350476Y-61527889D01*
X75350476Y-61527889D02*
X75289999Y-61406937D01*
X75289999Y-61406937D02*
X75229523Y-61165032D01*
X75229523Y-61165032D02*
X75229523Y-60983603D01*
X75229523Y-60983603D02*
X75289999Y-60741699D01*
X75289999Y-60741699D02*
X75350476Y-60620746D01*
X75350476Y-60620746D02*
X75471428Y-60499794D01*
X75471428Y-60499794D02*
X75652857Y-60439318D01*
X75652857Y-60439318D02*
X75773809Y-60439318D01*
X75773809Y-60439318D02*
X75955238Y-60499794D01*
X75955238Y-60499794D02*
X76015714Y-60560270D01*
X77104285Y-60862651D02*
X77104285Y-61709318D01*
X76801904Y-60378842D02*
X76499523Y-61285984D01*
X76499523Y-61285984D02*
X77285714Y-61285984D01*
X18496667Y-96304318D02*
X18496667Y-97211461D01*
X18496667Y-97211461D02*
X18436190Y-97392889D01*
X18436190Y-97392889D02*
X18315238Y-97513842D01*
X18315238Y-97513842D02*
X18133809Y-97574318D01*
X18133809Y-97574318D02*
X18012857Y-97574318D01*
X19645714Y-96727651D02*
X19645714Y-97574318D01*
X19343333Y-96243842D02*
X19040952Y-97150984D01*
X19040952Y-97150984D02*
X19827143Y-97150984D01*
X41457856Y-31574318D02*
X41457856Y-30304318D01*
X41457856Y-30304318D02*
X41941666Y-30304318D01*
X41941666Y-30304318D02*
X42062618Y-30364794D01*
X42062618Y-30364794D02*
X42123095Y-30425270D01*
X42123095Y-30425270D02*
X42183571Y-30546222D01*
X42183571Y-30546222D02*
X42183571Y-30727651D01*
X42183571Y-30727651D02*
X42123095Y-30848603D01*
X42123095Y-30848603D02*
X42062618Y-30909080D01*
X42062618Y-30909080D02*
X41941666Y-30969556D01*
X41941666Y-30969556D02*
X41457856Y-30969556D01*
X42667380Y-31513842D02*
X42848809Y-31574318D01*
X42848809Y-31574318D02*
X43151190Y-31574318D01*
X43151190Y-31574318D02*
X43272142Y-31513842D01*
X43272142Y-31513842D02*
X43332618Y-31453365D01*
X43332618Y-31453365D02*
X43393095Y-31332413D01*
X43393095Y-31332413D02*
X43393095Y-31211461D01*
X43393095Y-31211461D02*
X43332618Y-31090508D01*
X43332618Y-31090508D02*
X43272142Y-31030032D01*
X43272142Y-31030032D02*
X43151190Y-30969556D01*
X43151190Y-30969556D02*
X42909285Y-30909080D01*
X42909285Y-30909080D02*
X42788333Y-30848603D01*
X42788333Y-30848603D02*
X42727856Y-30788127D01*
X42727856Y-30788127D02*
X42667380Y-30667175D01*
X42667380Y-30667175D02*
X42667380Y-30546222D01*
X42667380Y-30546222D02*
X42727856Y-30425270D01*
X42727856Y-30425270D02*
X42788333Y-30364794D01*
X42788333Y-30364794D02*
X42909285Y-30304318D01*
X42909285Y-30304318D02*
X43211666Y-30304318D01*
X43211666Y-30304318D02*
X43393095Y-30364794D01*
X43876904Y-30425270D02*
X43937380Y-30364794D01*
X43937380Y-30364794D02*
X44058333Y-30304318D01*
X44058333Y-30304318D02*
X44360714Y-30304318D01*
X44360714Y-30304318D02*
X44481666Y-30364794D01*
X44481666Y-30364794D02*
X44542142Y-30425270D01*
X44542142Y-30425270D02*
X44602619Y-30546222D01*
X44602619Y-30546222D02*
X44602619Y-30667175D01*
X44602619Y-30667175D02*
X44542142Y-30848603D01*
X44542142Y-30848603D02*
X43816428Y-31574318D01*
X43816428Y-31574318D02*
X44602619Y-31574318D01*
X101183571Y-8953365D02*
X101123095Y-9013842D01*
X101123095Y-9013842D02*
X100941666Y-9074318D01*
X100941666Y-9074318D02*
X100820714Y-9074318D01*
X100820714Y-9074318D02*
X100639285Y-9013842D01*
X100639285Y-9013842D02*
X100518333Y-8892889D01*
X100518333Y-8892889D02*
X100457856Y-8771937D01*
X100457856Y-8771937D02*
X100397380Y-8530032D01*
X100397380Y-8530032D02*
X100397380Y-8348603D01*
X100397380Y-8348603D02*
X100457856Y-8106699D01*
X100457856Y-8106699D02*
X100518333Y-7985746D01*
X100518333Y-7985746D02*
X100639285Y-7864794D01*
X100639285Y-7864794D02*
X100820714Y-7804318D01*
X100820714Y-7804318D02*
X100941666Y-7804318D01*
X100941666Y-7804318D02*
X101123095Y-7864794D01*
X101123095Y-7864794D02*
X101183571Y-7925270D01*
X101606904Y-7804318D02*
X102393095Y-7804318D01*
X102393095Y-7804318D02*
X101969761Y-8288127D01*
X101969761Y-8288127D02*
X102151190Y-8288127D01*
X102151190Y-8288127D02*
X102272142Y-8348603D01*
X102272142Y-8348603D02*
X102332618Y-8409080D01*
X102332618Y-8409080D02*
X102393095Y-8530032D01*
X102393095Y-8530032D02*
X102393095Y-8832413D01*
X102393095Y-8832413D02*
X102332618Y-8953365D01*
X102332618Y-8953365D02*
X102272142Y-9013842D01*
X102272142Y-9013842D02*
X102151190Y-9074318D01*
X102151190Y-9074318D02*
X101788333Y-9074318D01*
X101788333Y-9074318D02*
X101667380Y-9013842D01*
X101667380Y-9013842D02*
X101606904Y-8953365D01*
X103481666Y-8227651D02*
X103481666Y-9074318D01*
X103179285Y-7743842D02*
X102876904Y-8650984D01*
X102876904Y-8650984D02*
X103663095Y-8650984D01*
D13*
X79238095Y-33204819D02*
X79238095Y-34014342D01*
X79238095Y-34014342D02*
X79285714Y-34109580D01*
X79285714Y-34109580D02*
X79333333Y-34157200D01*
X79333333Y-34157200D02*
X79428571Y-34204819D01*
X79428571Y-34204819D02*
X79619047Y-34204819D01*
X79619047Y-34204819D02*
X79714285Y-34157200D01*
X79714285Y-34157200D02*
X79761904Y-34109580D01*
X79761904Y-34109580D02*
X79809523Y-34014342D01*
X79809523Y-34014342D02*
X79809523Y-33204819D01*
X80333333Y-34204819D02*
X80523809Y-34204819D01*
X80523809Y-34204819D02*
X80619047Y-34157200D01*
X80619047Y-34157200D02*
X80666666Y-34109580D01*
X80666666Y-34109580D02*
X80761904Y-33966723D01*
X80761904Y-33966723D02*
X80809523Y-33776247D01*
X80809523Y-33776247D02*
X80809523Y-33395295D01*
X80809523Y-33395295D02*
X80761904Y-33300057D01*
X80761904Y-33300057D02*
X80714285Y-33252438D01*
X80714285Y-33252438D02*
X80619047Y-33204819D01*
X80619047Y-33204819D02*
X80428571Y-33204819D01*
X80428571Y-33204819D02*
X80333333Y-33252438D01*
X80333333Y-33252438D02*
X80285714Y-33300057D01*
X80285714Y-33300057D02*
X80238095Y-33395295D01*
X80238095Y-33395295D02*
X80238095Y-33633390D01*
X80238095Y-33633390D02*
X80285714Y-33728628D01*
X80285714Y-33728628D02*
X80333333Y-33776247D01*
X80333333Y-33776247D02*
X80428571Y-33823866D01*
X80428571Y-33823866D02*
X80619047Y-33823866D01*
X80619047Y-33823866D02*
X80714285Y-33776247D01*
X80714285Y-33776247D02*
X80761904Y-33728628D01*
X80761904Y-33728628D02*
X80809523Y-33633390D01*
X59479819Y-7173094D02*
X60289342Y-7173094D01*
X60289342Y-7173094D02*
X60384580Y-7125475D01*
X60384580Y-7125475D02*
X60432200Y-7077856D01*
X60432200Y-7077856D02*
X60479819Y-6982618D01*
X60479819Y-6982618D02*
X60479819Y-6792142D01*
X60479819Y-6792142D02*
X60432200Y-6696904D01*
X60432200Y-6696904D02*
X60384580Y-6649285D01*
X60384580Y-6649285D02*
X60289342Y-6601666D01*
X60289342Y-6601666D02*
X59479819Y-6601666D01*
X60479819Y-5601666D02*
X60479819Y-6173094D01*
X60479819Y-5887380D02*
X59479819Y-5887380D01*
X59479819Y-5887380D02*
X59622676Y-5982618D01*
X59622676Y-5982618D02*
X59717914Y-6077856D01*
X59717914Y-6077856D02*
X59765533Y-6173094D01*
X59575057Y-5220713D02*
X59527438Y-5173094D01*
X59527438Y-5173094D02*
X59479819Y-5077856D01*
X59479819Y-5077856D02*
X59479819Y-4839761D01*
X59479819Y-4839761D02*
X59527438Y-4744523D01*
X59527438Y-4744523D02*
X59575057Y-4696904D01*
X59575057Y-4696904D02*
X59670295Y-4649285D01*
X59670295Y-4649285D02*
X59765533Y-4649285D01*
X59765533Y-4649285D02*
X59908390Y-4696904D01*
X59908390Y-4696904D02*
X60479819Y-5268332D01*
X60479819Y-5268332D02*
X60479819Y-4649285D01*
D14*
X38116667Y195681D02*
X38116667Y-711461D01*
X38116667Y-711461D02*
X38056190Y-892889D01*
X38056190Y-892889D02*
X37935238Y-1013842D01*
X37935238Y-1013842D02*
X37753809Y-1074318D01*
X37753809Y-1074318D02*
X37632857Y-1074318D01*
X38660952Y74729D02*
X38721428Y135205D01*
X38721428Y135205D02*
X38842381Y195681D01*
X38842381Y195681D02*
X39144762Y195681D01*
X39144762Y195681D02*
X39265714Y135205D01*
X39265714Y135205D02*
X39326190Y74729D01*
X39326190Y74729D02*
X39386667Y-46222D01*
X39386667Y-46222D02*
X39386667Y-167175D01*
X39386667Y-167175D02*
X39326190Y-348603D01*
X39326190Y-348603D02*
X38600476Y-1074318D01*
X38600476Y-1074318D02*
X39386667Y-1074318D01*
X56183571Y-86453365D02*
X56123095Y-86513842D01*
X56123095Y-86513842D02*
X55941666Y-86574318D01*
X55941666Y-86574318D02*
X55820714Y-86574318D01*
X55820714Y-86574318D02*
X55639285Y-86513842D01*
X55639285Y-86513842D02*
X55518333Y-86392889D01*
X55518333Y-86392889D02*
X55457856Y-86271937D01*
X55457856Y-86271937D02*
X55397380Y-86030032D01*
X55397380Y-86030032D02*
X55397380Y-85848603D01*
X55397380Y-85848603D02*
X55457856Y-85606699D01*
X55457856Y-85606699D02*
X55518333Y-85485746D01*
X55518333Y-85485746D02*
X55639285Y-85364794D01*
X55639285Y-85364794D02*
X55820714Y-85304318D01*
X55820714Y-85304318D02*
X55941666Y-85304318D01*
X55941666Y-85304318D02*
X56123095Y-85364794D01*
X56123095Y-85364794D02*
X56183571Y-85425270D01*
X56606904Y-85304318D02*
X57393095Y-85304318D01*
X57393095Y-85304318D02*
X56969761Y-85788127D01*
X56969761Y-85788127D02*
X57151190Y-85788127D01*
X57151190Y-85788127D02*
X57272142Y-85848603D01*
X57272142Y-85848603D02*
X57332618Y-85909080D01*
X57332618Y-85909080D02*
X57393095Y-86030032D01*
X57393095Y-86030032D02*
X57393095Y-86332413D01*
X57393095Y-86332413D02*
X57332618Y-86453365D01*
X57332618Y-86453365D02*
X57272142Y-86513842D01*
X57272142Y-86513842D02*
X57151190Y-86574318D01*
X57151190Y-86574318D02*
X56788333Y-86574318D01*
X56788333Y-86574318D02*
X56667380Y-86513842D01*
X56667380Y-86513842D02*
X56606904Y-86453365D01*
X57816428Y-85304318D02*
X58663095Y-85304318D01*
X58663095Y-85304318D02*
X58118809Y-86574318D01*
D13*
X80938095Y-44229819D02*
X80938095Y-45039342D01*
X80938095Y-45039342D02*
X80985714Y-45134580D01*
X80985714Y-45134580D02*
X81033333Y-45182200D01*
X81033333Y-45182200D02*
X81128571Y-45229819D01*
X81128571Y-45229819D02*
X81319047Y-45229819D01*
X81319047Y-45229819D02*
X81414285Y-45182200D01*
X81414285Y-45182200D02*
X81461904Y-45134580D01*
X81461904Y-45134580D02*
X81509523Y-45039342D01*
X81509523Y-45039342D02*
X81509523Y-44229819D01*
X81890476Y-44229819D02*
X82509523Y-44229819D01*
X82509523Y-44229819D02*
X82176190Y-44610771D01*
X82176190Y-44610771D02*
X82319047Y-44610771D01*
X82319047Y-44610771D02*
X82414285Y-44658390D01*
X82414285Y-44658390D02*
X82461904Y-44706009D01*
X82461904Y-44706009D02*
X82509523Y-44801247D01*
X82509523Y-44801247D02*
X82509523Y-45039342D01*
X82509523Y-45039342D02*
X82461904Y-45134580D01*
X82461904Y-45134580D02*
X82414285Y-45182200D01*
X82414285Y-45182200D02*
X82319047Y-45229819D01*
X82319047Y-45229819D02*
X82033333Y-45229819D01*
X82033333Y-45229819D02*
X81938095Y-45182200D01*
X81938095Y-45182200D02*
X81890476Y-45134580D01*
X100734819Y-54642857D02*
X100258628Y-54976190D01*
X100734819Y-55214285D02*
X99734819Y-55214285D01*
X99734819Y-55214285D02*
X99734819Y-54833333D01*
X99734819Y-54833333D02*
X99782438Y-54738095D01*
X99782438Y-54738095D02*
X99830057Y-54690476D01*
X99830057Y-54690476D02*
X99925295Y-54642857D01*
X99925295Y-54642857D02*
X100068152Y-54642857D01*
X100068152Y-54642857D02*
X100163390Y-54690476D01*
X100163390Y-54690476D02*
X100211009Y-54738095D01*
X100211009Y-54738095D02*
X100258628Y-54833333D01*
X100258628Y-54833333D02*
X100258628Y-55214285D01*
X99830057Y-54261904D02*
X99782438Y-54214285D01*
X99782438Y-54214285D02*
X99734819Y-54119047D01*
X99734819Y-54119047D02*
X99734819Y-53880952D01*
X99734819Y-53880952D02*
X99782438Y-53785714D01*
X99782438Y-53785714D02*
X99830057Y-53738095D01*
X99830057Y-53738095D02*
X99925295Y-53690476D01*
X99925295Y-53690476D02*
X100020533Y-53690476D01*
X100020533Y-53690476D02*
X100163390Y-53738095D01*
X100163390Y-53738095D02*
X100734819Y-54309523D01*
X100734819Y-54309523D02*
X100734819Y-53690476D01*
X99734819Y-53357142D02*
X99734819Y-52738095D01*
X99734819Y-52738095D02*
X100115771Y-53071428D01*
X100115771Y-53071428D02*
X100115771Y-52928571D01*
X100115771Y-52928571D02*
X100163390Y-52833333D01*
X100163390Y-52833333D02*
X100211009Y-52785714D01*
X100211009Y-52785714D02*
X100306247Y-52738095D01*
X100306247Y-52738095D02*
X100544342Y-52738095D01*
X100544342Y-52738095D02*
X100639580Y-52785714D01*
X100639580Y-52785714D02*
X100687200Y-52833333D01*
X100687200Y-52833333D02*
X100734819Y-52928571D01*
X100734819Y-52928571D02*
X100734819Y-53214285D01*
X100734819Y-53214285D02*
X100687200Y-53309523D01*
X100687200Y-53309523D02*
X100639580Y-53357142D01*
X101659580Y-65642857D02*
X101707200Y-65690476D01*
X101707200Y-65690476D02*
X101754819Y-65833333D01*
X101754819Y-65833333D02*
X101754819Y-65928571D01*
X101754819Y-65928571D02*
X101707200Y-66071428D01*
X101707200Y-66071428D02*
X101611961Y-66166666D01*
X101611961Y-66166666D02*
X101516723Y-66214285D01*
X101516723Y-66214285D02*
X101326247Y-66261904D01*
X101326247Y-66261904D02*
X101183390Y-66261904D01*
X101183390Y-66261904D02*
X100992914Y-66214285D01*
X100992914Y-66214285D02*
X100897676Y-66166666D01*
X100897676Y-66166666D02*
X100802438Y-66071428D01*
X100802438Y-66071428D02*
X100754819Y-65928571D01*
X100754819Y-65928571D02*
X100754819Y-65833333D01*
X100754819Y-65833333D02*
X100802438Y-65690476D01*
X100802438Y-65690476D02*
X100850057Y-65642857D01*
X100850057Y-65261904D02*
X100802438Y-65214285D01*
X100802438Y-65214285D02*
X100754819Y-65119047D01*
X100754819Y-65119047D02*
X100754819Y-64880952D01*
X100754819Y-64880952D02*
X100802438Y-64785714D01*
X100802438Y-64785714D02*
X100850057Y-64738095D01*
X100850057Y-64738095D02*
X100945295Y-64690476D01*
X100945295Y-64690476D02*
X101040533Y-64690476D01*
X101040533Y-64690476D02*
X101183390Y-64738095D01*
X101183390Y-64738095D02*
X101754819Y-65309523D01*
X101754819Y-65309523D02*
X101754819Y-64690476D01*
X100754819Y-63833333D02*
X100754819Y-64023809D01*
X100754819Y-64023809D02*
X100802438Y-64119047D01*
X100802438Y-64119047D02*
X100850057Y-64166666D01*
X100850057Y-64166666D02*
X100992914Y-64261904D01*
X100992914Y-64261904D02*
X101183390Y-64309523D01*
X101183390Y-64309523D02*
X101564342Y-64309523D01*
X101564342Y-64309523D02*
X101659580Y-64261904D01*
X101659580Y-64261904D02*
X101707200Y-64214285D01*
X101707200Y-64214285D02*
X101754819Y-64119047D01*
X101754819Y-64119047D02*
X101754819Y-63928571D01*
X101754819Y-63928571D02*
X101707200Y-63833333D01*
X101707200Y-63833333D02*
X101659580Y-63785714D01*
X101659580Y-63785714D02*
X101564342Y-63738095D01*
X101564342Y-63738095D02*
X101326247Y-63738095D01*
X101326247Y-63738095D02*
X101231009Y-63785714D01*
X101231009Y-63785714D02*
X101183390Y-63833333D01*
X101183390Y-63833333D02*
X101135771Y-63928571D01*
X101135771Y-63928571D02*
X101135771Y-64119047D01*
X101135771Y-64119047D02*
X101183390Y-64214285D01*
X101183390Y-64214285D02*
X101231009Y-64261904D01*
X101231009Y-64261904D02*
X101326247Y-64309523D01*
D14*
X88107856Y-93574318D02*
X88107856Y-92304318D01*
X88107856Y-92304318D02*
X88591666Y-92304318D01*
X88591666Y-92304318D02*
X88712618Y-92364794D01*
X88712618Y-92364794D02*
X88773095Y-92425270D01*
X88773095Y-92425270D02*
X88833571Y-92546222D01*
X88833571Y-92546222D02*
X88833571Y-92727651D01*
X88833571Y-92727651D02*
X88773095Y-92848603D01*
X88773095Y-92848603D02*
X88712618Y-92909080D01*
X88712618Y-92909080D02*
X88591666Y-92969556D01*
X88591666Y-92969556D02*
X88107856Y-92969556D01*
X89317380Y-93513842D02*
X89498809Y-93574318D01*
X89498809Y-93574318D02*
X89801190Y-93574318D01*
X89801190Y-93574318D02*
X89922142Y-93513842D01*
X89922142Y-93513842D02*
X89982618Y-93453365D01*
X89982618Y-93453365D02*
X90043095Y-93332413D01*
X90043095Y-93332413D02*
X90043095Y-93211461D01*
X90043095Y-93211461D02*
X89982618Y-93090508D01*
X89982618Y-93090508D02*
X89922142Y-93030032D01*
X89922142Y-93030032D02*
X89801190Y-92969556D01*
X89801190Y-92969556D02*
X89559285Y-92909080D01*
X89559285Y-92909080D02*
X89438333Y-92848603D01*
X89438333Y-92848603D02*
X89377856Y-92788127D01*
X89377856Y-92788127D02*
X89317380Y-92667175D01*
X89317380Y-92667175D02*
X89317380Y-92546222D01*
X89317380Y-92546222D02*
X89377856Y-92425270D01*
X89377856Y-92425270D02*
X89438333Y-92364794D01*
X89438333Y-92364794D02*
X89559285Y-92304318D01*
X89559285Y-92304318D02*
X89861666Y-92304318D01*
X89861666Y-92304318D02*
X90043095Y-92364794D01*
X91252619Y-93574318D02*
X90526904Y-93574318D01*
X90889761Y-93574318D02*
X90889761Y-92304318D01*
X90889761Y-92304318D02*
X90768809Y-92485746D01*
X90768809Y-92485746D02*
X90647857Y-92606699D01*
X90647857Y-92606699D02*
X90526904Y-92667175D01*
X71956667Y-7654318D02*
X71956667Y-8561461D01*
X71956667Y-8561461D02*
X71896190Y-8742889D01*
X71896190Y-8742889D02*
X71775238Y-8863842D01*
X71775238Y-8863842D02*
X71593809Y-8924318D01*
X71593809Y-8924318D02*
X71472857Y-8924318D01*
X73166190Y-7654318D02*
X72561428Y-7654318D01*
X72561428Y-7654318D02*
X72500952Y-8259080D01*
X72500952Y-8259080D02*
X72561428Y-8198603D01*
X72561428Y-8198603D02*
X72682381Y-8138127D01*
X72682381Y-8138127D02*
X72984762Y-8138127D01*
X72984762Y-8138127D02*
X73105714Y-8198603D01*
X73105714Y-8198603D02*
X73166190Y-8259080D01*
X73166190Y-8259080D02*
X73226667Y-8380032D01*
X73226667Y-8380032D02*
X73226667Y-8682413D01*
X73226667Y-8682413D02*
X73166190Y-8803365D01*
X73166190Y-8803365D02*
X73105714Y-8863842D01*
X73105714Y-8863842D02*
X72984762Y-8924318D01*
X72984762Y-8924318D02*
X72682381Y-8924318D01*
X72682381Y-8924318D02*
X72561428Y-8863842D01*
X72561428Y-8863842D02*
X72500952Y-8803365D01*
X50533571Y-78453365D02*
X50473095Y-78513842D01*
X50473095Y-78513842D02*
X50291666Y-78574318D01*
X50291666Y-78574318D02*
X50170714Y-78574318D01*
X50170714Y-78574318D02*
X49989285Y-78513842D01*
X49989285Y-78513842D02*
X49868333Y-78392889D01*
X49868333Y-78392889D02*
X49807856Y-78271937D01*
X49807856Y-78271937D02*
X49747380Y-78030032D01*
X49747380Y-78030032D02*
X49747380Y-77848603D01*
X49747380Y-77848603D02*
X49807856Y-77606699D01*
X49807856Y-77606699D02*
X49868333Y-77485746D01*
X49868333Y-77485746D02*
X49989285Y-77364794D01*
X49989285Y-77364794D02*
X50170714Y-77304318D01*
X50170714Y-77304318D02*
X50291666Y-77304318D01*
X50291666Y-77304318D02*
X50473095Y-77364794D01*
X50473095Y-77364794D02*
X50533571Y-77425270D01*
X51017380Y-77425270D02*
X51077856Y-77364794D01*
X51077856Y-77364794D02*
X51198809Y-77304318D01*
X51198809Y-77304318D02*
X51501190Y-77304318D01*
X51501190Y-77304318D02*
X51622142Y-77364794D01*
X51622142Y-77364794D02*
X51682618Y-77425270D01*
X51682618Y-77425270D02*
X51743095Y-77546222D01*
X51743095Y-77546222D02*
X51743095Y-77667175D01*
X51743095Y-77667175D02*
X51682618Y-77848603D01*
X51682618Y-77848603D02*
X50956904Y-78574318D01*
X50956904Y-78574318D02*
X51743095Y-78574318D01*
X52166428Y-77304318D02*
X53013095Y-77304318D01*
X53013095Y-77304318D02*
X52468809Y-78574318D01*
D13*
X72357142Y-34169819D02*
X72023809Y-33693628D01*
X71785714Y-34169819D02*
X71785714Y-33169819D01*
X71785714Y-33169819D02*
X72166666Y-33169819D01*
X72166666Y-33169819D02*
X72261904Y-33217438D01*
X72261904Y-33217438D02*
X72309523Y-33265057D01*
X72309523Y-33265057D02*
X72357142Y-33360295D01*
X72357142Y-33360295D02*
X72357142Y-33503152D01*
X72357142Y-33503152D02*
X72309523Y-33598390D01*
X72309523Y-33598390D02*
X72261904Y-33646009D01*
X72261904Y-33646009D02*
X72166666Y-33693628D01*
X72166666Y-33693628D02*
X71785714Y-33693628D01*
X73309523Y-34169819D02*
X72738095Y-34169819D01*
X73023809Y-34169819D02*
X73023809Y-33169819D01*
X73023809Y-33169819D02*
X72928571Y-33312676D01*
X72928571Y-33312676D02*
X72833333Y-33407914D01*
X72833333Y-33407914D02*
X72738095Y-33455533D01*
X73785714Y-34169819D02*
X73976190Y-34169819D01*
X73976190Y-34169819D02*
X74071428Y-34122200D01*
X74071428Y-34122200D02*
X74119047Y-34074580D01*
X74119047Y-34074580D02*
X74214285Y-33931723D01*
X74214285Y-33931723D02*
X74261904Y-33741247D01*
X74261904Y-33741247D02*
X74261904Y-33360295D01*
X74261904Y-33360295D02*
X74214285Y-33265057D01*
X74214285Y-33265057D02*
X74166666Y-33217438D01*
X74166666Y-33217438D02*
X74071428Y-33169819D01*
X74071428Y-33169819D02*
X73880952Y-33169819D01*
X73880952Y-33169819D02*
X73785714Y-33217438D01*
X73785714Y-33217438D02*
X73738095Y-33265057D01*
X73738095Y-33265057D02*
X73690476Y-33360295D01*
X73690476Y-33360295D02*
X73690476Y-33598390D01*
X73690476Y-33598390D02*
X73738095Y-33693628D01*
X73738095Y-33693628D02*
X73785714Y-33741247D01*
X73785714Y-33741247D02*
X73880952Y-33788866D01*
X73880952Y-33788866D02*
X74071428Y-33788866D01*
X74071428Y-33788866D02*
X74166666Y-33741247D01*
X74166666Y-33741247D02*
X74214285Y-33693628D01*
X74214285Y-33693628D02*
X74261904Y-33598390D01*
X88533333Y-45734819D02*
X88200000Y-45258628D01*
X87961905Y-45734819D02*
X87961905Y-44734819D01*
X87961905Y-44734819D02*
X88342857Y-44734819D01*
X88342857Y-44734819D02*
X88438095Y-44782438D01*
X88438095Y-44782438D02*
X88485714Y-44830057D01*
X88485714Y-44830057D02*
X88533333Y-44925295D01*
X88533333Y-44925295D02*
X88533333Y-45068152D01*
X88533333Y-45068152D02*
X88485714Y-45163390D01*
X88485714Y-45163390D02*
X88438095Y-45211009D01*
X88438095Y-45211009D02*
X88342857Y-45258628D01*
X88342857Y-45258628D02*
X87961905Y-45258628D01*
X89009524Y-45734819D02*
X89200000Y-45734819D01*
X89200000Y-45734819D02*
X89295238Y-45687200D01*
X89295238Y-45687200D02*
X89342857Y-45639580D01*
X89342857Y-45639580D02*
X89438095Y-45496723D01*
X89438095Y-45496723D02*
X89485714Y-45306247D01*
X89485714Y-45306247D02*
X89485714Y-44925295D01*
X89485714Y-44925295D02*
X89438095Y-44830057D01*
X89438095Y-44830057D02*
X89390476Y-44782438D01*
X89390476Y-44782438D02*
X89295238Y-44734819D01*
X89295238Y-44734819D02*
X89104762Y-44734819D01*
X89104762Y-44734819D02*
X89009524Y-44782438D01*
X89009524Y-44782438D02*
X88961905Y-44830057D01*
X88961905Y-44830057D02*
X88914286Y-44925295D01*
X88914286Y-44925295D02*
X88914286Y-45163390D01*
X88914286Y-45163390D02*
X88961905Y-45258628D01*
X88961905Y-45258628D02*
X89009524Y-45306247D01*
X89009524Y-45306247D02*
X89104762Y-45353866D01*
X89104762Y-45353866D02*
X89295238Y-45353866D01*
X89295238Y-45353866D02*
X89390476Y-45306247D01*
X89390476Y-45306247D02*
X89438095Y-45258628D01*
X89438095Y-45258628D02*
X89485714Y-45163390D01*
D14*
X100867270Y-37120952D02*
X100806794Y-37241904D01*
X100806794Y-37241904D02*
X100685842Y-37362857D01*
X100685842Y-37362857D02*
X100504413Y-37544285D01*
X100504413Y-37544285D02*
X100443937Y-37665238D01*
X100443937Y-37665238D02*
X100443937Y-37786190D01*
X100746318Y-37725714D02*
X100685842Y-37846666D01*
X100685842Y-37846666D02*
X100564889Y-37967619D01*
X100564889Y-37967619D02*
X100322984Y-38028095D01*
X100322984Y-38028095D02*
X99899651Y-38028095D01*
X99899651Y-38028095D02*
X99657746Y-37967619D01*
X99657746Y-37967619D02*
X99536794Y-37846666D01*
X99536794Y-37846666D02*
X99476318Y-37725714D01*
X99476318Y-37725714D02*
X99476318Y-37483809D01*
X99476318Y-37483809D02*
X99536794Y-37362857D01*
X99536794Y-37362857D02*
X99657746Y-37241904D01*
X99657746Y-37241904D02*
X99899651Y-37181428D01*
X99899651Y-37181428D02*
X100322984Y-37181428D01*
X100322984Y-37181428D02*
X100564889Y-37241904D01*
X100564889Y-37241904D02*
X100685842Y-37362857D01*
X100685842Y-37362857D02*
X100746318Y-37483809D01*
X100746318Y-37483809D02*
X100746318Y-37725714D01*
X99597270Y-36697619D02*
X99536794Y-36637143D01*
X99536794Y-36637143D02*
X99476318Y-36516190D01*
X99476318Y-36516190D02*
X99476318Y-36213809D01*
X99476318Y-36213809D02*
X99536794Y-36092857D01*
X99536794Y-36092857D02*
X99597270Y-36032381D01*
X99597270Y-36032381D02*
X99718222Y-35971904D01*
X99718222Y-35971904D02*
X99839175Y-35971904D01*
X99839175Y-35971904D02*
X100020603Y-36032381D01*
X100020603Y-36032381D02*
X100746318Y-36758095D01*
X100746318Y-36758095D02*
X100746318Y-35971904D01*
D13*
X59523809Y-65978628D02*
X59523809Y-66454819D01*
X59190476Y-65454819D02*
X59523809Y-65978628D01*
X59523809Y-65978628D02*
X59857142Y-65454819D01*
X60142857Y-65550057D02*
X60190476Y-65502438D01*
X60190476Y-65502438D02*
X60285714Y-65454819D01*
X60285714Y-65454819D02*
X60523809Y-65454819D01*
X60523809Y-65454819D02*
X60619047Y-65502438D01*
X60619047Y-65502438D02*
X60666666Y-65550057D01*
X60666666Y-65550057D02*
X60714285Y-65645295D01*
X60714285Y-65645295D02*
X60714285Y-65740533D01*
X60714285Y-65740533D02*
X60666666Y-65883390D01*
X60666666Y-65883390D02*
X60095238Y-66454819D01*
X60095238Y-66454819D02*
X60714285Y-66454819D01*
X60357142Y-80859580D02*
X60309523Y-80907200D01*
X60309523Y-80907200D02*
X60166666Y-80954819D01*
X60166666Y-80954819D02*
X60071428Y-80954819D01*
X60071428Y-80954819D02*
X59928571Y-80907200D01*
X59928571Y-80907200D02*
X59833333Y-80811961D01*
X59833333Y-80811961D02*
X59785714Y-80716723D01*
X59785714Y-80716723D02*
X59738095Y-80526247D01*
X59738095Y-80526247D02*
X59738095Y-80383390D01*
X59738095Y-80383390D02*
X59785714Y-80192914D01*
X59785714Y-80192914D02*
X59833333Y-80097676D01*
X59833333Y-80097676D02*
X59928571Y-80002438D01*
X59928571Y-80002438D02*
X60071428Y-79954819D01*
X60071428Y-79954819D02*
X60166666Y-79954819D01*
X60166666Y-79954819D02*
X60309523Y-80002438D01*
X60309523Y-80002438D02*
X60357142Y-80050057D01*
X61309523Y-80954819D02*
X60738095Y-80954819D01*
X61023809Y-80954819D02*
X61023809Y-79954819D01*
X61023809Y-79954819D02*
X60928571Y-80097676D01*
X60928571Y-80097676D02*
X60833333Y-80192914D01*
X60833333Y-80192914D02*
X60738095Y-80240533D01*
X61880952Y-80383390D02*
X61785714Y-80335771D01*
X61785714Y-80335771D02*
X61738095Y-80288152D01*
X61738095Y-80288152D02*
X61690476Y-80192914D01*
X61690476Y-80192914D02*
X61690476Y-80145295D01*
X61690476Y-80145295D02*
X61738095Y-80050057D01*
X61738095Y-80050057D02*
X61785714Y-80002438D01*
X61785714Y-80002438D02*
X61880952Y-79954819D01*
X61880952Y-79954819D02*
X62071428Y-79954819D01*
X62071428Y-79954819D02*
X62166666Y-80002438D01*
X62166666Y-80002438D02*
X62214285Y-80050057D01*
X62214285Y-80050057D02*
X62261904Y-80145295D01*
X62261904Y-80145295D02*
X62261904Y-80192914D01*
X62261904Y-80192914D02*
X62214285Y-80288152D01*
X62214285Y-80288152D02*
X62166666Y-80335771D01*
X62166666Y-80335771D02*
X62071428Y-80383390D01*
X62071428Y-80383390D02*
X61880952Y-80383390D01*
X61880952Y-80383390D02*
X61785714Y-80431009D01*
X61785714Y-80431009D02*
X61738095Y-80478628D01*
X61738095Y-80478628D02*
X61690476Y-80573866D01*
X61690476Y-80573866D02*
X61690476Y-80764342D01*
X61690476Y-80764342D02*
X61738095Y-80859580D01*
X61738095Y-80859580D02*
X61785714Y-80907200D01*
X61785714Y-80907200D02*
X61880952Y-80954819D01*
X61880952Y-80954819D02*
X62071428Y-80954819D01*
X62071428Y-80954819D02*
X62166666Y-80907200D01*
X62166666Y-80907200D02*
X62214285Y-80859580D01*
X62214285Y-80859580D02*
X62261904Y-80764342D01*
X62261904Y-80764342D02*
X62261904Y-80573866D01*
X62261904Y-80573866D02*
X62214285Y-80478628D01*
X62214285Y-80478628D02*
X62166666Y-80431009D01*
X62166666Y-80431009D02*
X62071428Y-80383390D01*
D14*
X60183571Y-35953365D02*
X60123095Y-36013842D01*
X60123095Y-36013842D02*
X59941666Y-36074318D01*
X59941666Y-36074318D02*
X59820714Y-36074318D01*
X59820714Y-36074318D02*
X59639285Y-36013842D01*
X59639285Y-36013842D02*
X59518333Y-35892889D01*
X59518333Y-35892889D02*
X59457856Y-35771937D01*
X59457856Y-35771937D02*
X59397380Y-35530032D01*
X59397380Y-35530032D02*
X59397380Y-35348603D01*
X59397380Y-35348603D02*
X59457856Y-35106699D01*
X59457856Y-35106699D02*
X59518333Y-34985746D01*
X59518333Y-34985746D02*
X59639285Y-34864794D01*
X59639285Y-34864794D02*
X59820714Y-34804318D01*
X59820714Y-34804318D02*
X59941666Y-34804318D01*
X59941666Y-34804318D02*
X60123095Y-34864794D01*
X60123095Y-34864794D02*
X60183571Y-34925270D01*
X60606904Y-34804318D02*
X61393095Y-34804318D01*
X61393095Y-34804318D02*
X60969761Y-35288127D01*
X60969761Y-35288127D02*
X61151190Y-35288127D01*
X61151190Y-35288127D02*
X61272142Y-35348603D01*
X61272142Y-35348603D02*
X61332618Y-35409080D01*
X61332618Y-35409080D02*
X61393095Y-35530032D01*
X61393095Y-35530032D02*
X61393095Y-35832413D01*
X61393095Y-35832413D02*
X61332618Y-35953365D01*
X61332618Y-35953365D02*
X61272142Y-36013842D01*
X61272142Y-36013842D02*
X61151190Y-36074318D01*
X61151190Y-36074318D02*
X60788333Y-36074318D01*
X60788333Y-36074318D02*
X60667380Y-36013842D01*
X60667380Y-36013842D02*
X60606904Y-35953365D01*
X62602619Y-36074318D02*
X61876904Y-36074318D01*
X62239761Y-36074318D02*
X62239761Y-34804318D01*
X62239761Y-34804318D02*
X62118809Y-34985746D01*
X62118809Y-34985746D02*
X61997857Y-35106699D01*
X61997857Y-35106699D02*
X61876904Y-35167175D01*
X40533571Y-75453365D02*
X40473095Y-75513842D01*
X40473095Y-75513842D02*
X40291666Y-75574318D01*
X40291666Y-75574318D02*
X40170714Y-75574318D01*
X40170714Y-75574318D02*
X39989285Y-75513842D01*
X39989285Y-75513842D02*
X39868333Y-75392889D01*
X39868333Y-75392889D02*
X39807856Y-75271937D01*
X39807856Y-75271937D02*
X39747380Y-75030032D01*
X39747380Y-75030032D02*
X39747380Y-74848603D01*
X39747380Y-74848603D02*
X39807856Y-74606699D01*
X39807856Y-74606699D02*
X39868333Y-74485746D01*
X39868333Y-74485746D02*
X39989285Y-74364794D01*
X39989285Y-74364794D02*
X40170714Y-74304318D01*
X40170714Y-74304318D02*
X40291666Y-74304318D01*
X40291666Y-74304318D02*
X40473095Y-74364794D01*
X40473095Y-74364794D02*
X40533571Y-74425270D01*
X41017380Y-74425270D02*
X41077856Y-74364794D01*
X41077856Y-74364794D02*
X41198809Y-74304318D01*
X41198809Y-74304318D02*
X41501190Y-74304318D01*
X41501190Y-74304318D02*
X41622142Y-74364794D01*
X41622142Y-74364794D02*
X41682618Y-74425270D01*
X41682618Y-74425270D02*
X41743095Y-74546222D01*
X41743095Y-74546222D02*
X41743095Y-74667175D01*
X41743095Y-74667175D02*
X41682618Y-74848603D01*
X41682618Y-74848603D02*
X40956904Y-75574318D01*
X40956904Y-75574318D02*
X41743095Y-75574318D01*
X42347857Y-75574318D02*
X42589761Y-75574318D01*
X42589761Y-75574318D02*
X42710714Y-75513842D01*
X42710714Y-75513842D02*
X42771190Y-75453365D01*
X42771190Y-75453365D02*
X42892142Y-75271937D01*
X42892142Y-75271937D02*
X42952619Y-75030032D01*
X42952619Y-75030032D02*
X42952619Y-74546222D01*
X42952619Y-74546222D02*
X42892142Y-74425270D01*
X42892142Y-74425270D02*
X42831666Y-74364794D01*
X42831666Y-74364794D02*
X42710714Y-74304318D01*
X42710714Y-74304318D02*
X42468809Y-74304318D01*
X42468809Y-74304318D02*
X42347857Y-74364794D01*
X42347857Y-74364794D02*
X42287380Y-74425270D01*
X42287380Y-74425270D02*
X42226904Y-74546222D01*
X42226904Y-74546222D02*
X42226904Y-74848603D01*
X42226904Y-74848603D02*
X42287380Y-74969556D01*
X42287380Y-74969556D02*
X42347857Y-75030032D01*
X42347857Y-75030032D02*
X42468809Y-75090508D01*
X42468809Y-75090508D02*
X42710714Y-75090508D01*
X42710714Y-75090508D02*
X42831666Y-75030032D01*
X42831666Y-75030032D02*
X42892142Y-74969556D01*
X42892142Y-74969556D02*
X42952619Y-74848603D01*
X60183571Y-44753365D02*
X60123095Y-44813842D01*
X60123095Y-44813842D02*
X59941666Y-44874318D01*
X59941666Y-44874318D02*
X59820714Y-44874318D01*
X59820714Y-44874318D02*
X59639285Y-44813842D01*
X59639285Y-44813842D02*
X59518333Y-44692889D01*
X59518333Y-44692889D02*
X59457856Y-44571937D01*
X59457856Y-44571937D02*
X59397380Y-44330032D01*
X59397380Y-44330032D02*
X59397380Y-44148603D01*
X59397380Y-44148603D02*
X59457856Y-43906699D01*
X59457856Y-43906699D02*
X59518333Y-43785746D01*
X59518333Y-43785746D02*
X59639285Y-43664794D01*
X59639285Y-43664794D02*
X59820714Y-43604318D01*
X59820714Y-43604318D02*
X59941666Y-43604318D01*
X59941666Y-43604318D02*
X60123095Y-43664794D01*
X60123095Y-43664794D02*
X60183571Y-43725270D01*
X60606904Y-43604318D02*
X61393095Y-43604318D01*
X61393095Y-43604318D02*
X60969761Y-44088127D01*
X60969761Y-44088127D02*
X61151190Y-44088127D01*
X61151190Y-44088127D02*
X61272142Y-44148603D01*
X61272142Y-44148603D02*
X61332618Y-44209080D01*
X61332618Y-44209080D02*
X61393095Y-44330032D01*
X61393095Y-44330032D02*
X61393095Y-44632413D01*
X61393095Y-44632413D02*
X61332618Y-44753365D01*
X61332618Y-44753365D02*
X61272142Y-44813842D01*
X61272142Y-44813842D02*
X61151190Y-44874318D01*
X61151190Y-44874318D02*
X60788333Y-44874318D01*
X60788333Y-44874318D02*
X60667380Y-44813842D01*
X60667380Y-44813842D02*
X60606904Y-44753365D01*
X61876904Y-43725270D02*
X61937380Y-43664794D01*
X61937380Y-43664794D02*
X62058333Y-43604318D01*
X62058333Y-43604318D02*
X62360714Y-43604318D01*
X62360714Y-43604318D02*
X62481666Y-43664794D01*
X62481666Y-43664794D02*
X62542142Y-43725270D01*
X62542142Y-43725270D02*
X62602619Y-43846222D01*
X62602619Y-43846222D02*
X62602619Y-43967175D01*
X62602619Y-43967175D02*
X62542142Y-44148603D01*
X62542142Y-44148603D02*
X61816428Y-44874318D01*
X61816428Y-44874318D02*
X62602619Y-44874318D01*
X39387619Y-17544080D02*
X38964285Y-17544080D01*
X38964285Y-18209318D02*
X38964285Y-16939318D01*
X38964285Y-16939318D02*
X39569047Y-16939318D01*
X40657618Y-18209318D02*
X40052856Y-18209318D01*
X40052856Y-18209318D02*
X40052856Y-16939318D01*
X41746190Y-18209318D02*
X41020475Y-18209318D01*
X41383332Y-18209318D02*
X41383332Y-16939318D01*
X41383332Y-16939318D02*
X41262380Y-17120746D01*
X41262380Y-17120746D02*
X41141428Y-17241699D01*
X41141428Y-17241699D02*
X41020475Y-17302175D01*
D13*
X74057142Y-40699819D02*
X73723809Y-40223628D01*
X73485714Y-40699819D02*
X73485714Y-39699819D01*
X73485714Y-39699819D02*
X73866666Y-39699819D01*
X73866666Y-39699819D02*
X73961904Y-39747438D01*
X73961904Y-39747438D02*
X74009523Y-39795057D01*
X74009523Y-39795057D02*
X74057142Y-39890295D01*
X74057142Y-39890295D02*
X74057142Y-40033152D01*
X74057142Y-40033152D02*
X74009523Y-40128390D01*
X74009523Y-40128390D02*
X73961904Y-40176009D01*
X73961904Y-40176009D02*
X73866666Y-40223628D01*
X73866666Y-40223628D02*
X73485714Y-40223628D01*
X75009523Y-40699819D02*
X74438095Y-40699819D01*
X74723809Y-40699819D02*
X74723809Y-39699819D01*
X74723809Y-39699819D02*
X74628571Y-39842676D01*
X74628571Y-39842676D02*
X74533333Y-39937914D01*
X74533333Y-39937914D02*
X74438095Y-39985533D01*
X75628571Y-39699819D02*
X75723809Y-39699819D01*
X75723809Y-39699819D02*
X75819047Y-39747438D01*
X75819047Y-39747438D02*
X75866666Y-39795057D01*
X75866666Y-39795057D02*
X75914285Y-39890295D01*
X75914285Y-39890295D02*
X75961904Y-40080771D01*
X75961904Y-40080771D02*
X75961904Y-40318866D01*
X75961904Y-40318866D02*
X75914285Y-40509342D01*
X75914285Y-40509342D02*
X75866666Y-40604580D01*
X75866666Y-40604580D02*
X75819047Y-40652200D01*
X75819047Y-40652200D02*
X75723809Y-40699819D01*
X75723809Y-40699819D02*
X75628571Y-40699819D01*
X75628571Y-40699819D02*
X75533333Y-40652200D01*
X75533333Y-40652200D02*
X75485714Y-40604580D01*
X75485714Y-40604580D02*
X75438095Y-40509342D01*
X75438095Y-40509342D02*
X75390476Y-40318866D01*
X75390476Y-40318866D02*
X75390476Y-40080771D01*
X75390476Y-40080771D02*
X75438095Y-39890295D01*
X75438095Y-39890295D02*
X75485714Y-39795057D01*
X75485714Y-39795057D02*
X75533333Y-39747438D01*
X75533333Y-39747438D02*
X75628571Y-39699819D01*
X6738095Y-1654819D02*
X6738095Y-654819D01*
X6738095Y-1131009D02*
X7309523Y-1131009D01*
X7309523Y-1654819D02*
X7309523Y-654819D01*
X8309523Y-1654819D02*
X7738095Y-1654819D01*
X8023809Y-1654819D02*
X8023809Y-654819D01*
X8023809Y-654819D02*
X7928571Y-797676D01*
X7928571Y-797676D02*
X7833333Y-892914D01*
X7833333Y-892914D02*
X7738095Y-940533D01*
X49357142Y-20659580D02*
X49309523Y-20707200D01*
X49309523Y-20707200D02*
X49166666Y-20754819D01*
X49166666Y-20754819D02*
X49071428Y-20754819D01*
X49071428Y-20754819D02*
X48928571Y-20707200D01*
X48928571Y-20707200D02*
X48833333Y-20611961D01*
X48833333Y-20611961D02*
X48785714Y-20516723D01*
X48785714Y-20516723D02*
X48738095Y-20326247D01*
X48738095Y-20326247D02*
X48738095Y-20183390D01*
X48738095Y-20183390D02*
X48785714Y-19992914D01*
X48785714Y-19992914D02*
X48833333Y-19897676D01*
X48833333Y-19897676D02*
X48928571Y-19802438D01*
X48928571Y-19802438D02*
X49071428Y-19754819D01*
X49071428Y-19754819D02*
X49166666Y-19754819D01*
X49166666Y-19754819D02*
X49309523Y-19802438D01*
X49309523Y-19802438D02*
X49357142Y-19850057D01*
X50309523Y-20754819D02*
X49738095Y-20754819D01*
X50023809Y-20754819D02*
X50023809Y-19754819D01*
X50023809Y-19754819D02*
X49928571Y-19897676D01*
X49928571Y-19897676D02*
X49833333Y-19992914D01*
X49833333Y-19992914D02*
X49738095Y-20040533D01*
X50642857Y-19754819D02*
X51261904Y-19754819D01*
X51261904Y-19754819D02*
X50928571Y-20135771D01*
X50928571Y-20135771D02*
X51071428Y-20135771D01*
X51071428Y-20135771D02*
X51166666Y-20183390D01*
X51166666Y-20183390D02*
X51214285Y-20231009D01*
X51214285Y-20231009D02*
X51261904Y-20326247D01*
X51261904Y-20326247D02*
X51261904Y-20564342D01*
X51261904Y-20564342D02*
X51214285Y-20659580D01*
X51214285Y-20659580D02*
X51166666Y-20707200D01*
X51166666Y-20707200D02*
X51071428Y-20754819D01*
X51071428Y-20754819D02*
X50785714Y-20754819D01*
X50785714Y-20754819D02*
X50690476Y-20707200D01*
X50690476Y-20707200D02*
X50642857Y-20659580D01*
X72357142Y-18699819D02*
X72023809Y-18223628D01*
X71785714Y-18699819D02*
X71785714Y-17699819D01*
X71785714Y-17699819D02*
X72166666Y-17699819D01*
X72166666Y-17699819D02*
X72261904Y-17747438D01*
X72261904Y-17747438D02*
X72309523Y-17795057D01*
X72309523Y-17795057D02*
X72357142Y-17890295D01*
X72357142Y-17890295D02*
X72357142Y-18033152D01*
X72357142Y-18033152D02*
X72309523Y-18128390D01*
X72309523Y-18128390D02*
X72261904Y-18176009D01*
X72261904Y-18176009D02*
X72166666Y-18223628D01*
X72166666Y-18223628D02*
X71785714Y-18223628D01*
X73309523Y-18699819D02*
X72738095Y-18699819D01*
X73023809Y-18699819D02*
X73023809Y-17699819D01*
X73023809Y-17699819D02*
X72928571Y-17842676D01*
X72928571Y-17842676D02*
X72833333Y-17937914D01*
X72833333Y-17937914D02*
X72738095Y-17985533D01*
X73690476Y-17795057D02*
X73738095Y-17747438D01*
X73738095Y-17747438D02*
X73833333Y-17699819D01*
X73833333Y-17699819D02*
X74071428Y-17699819D01*
X74071428Y-17699819D02*
X74166666Y-17747438D01*
X74166666Y-17747438D02*
X74214285Y-17795057D01*
X74214285Y-17795057D02*
X74261904Y-17890295D01*
X74261904Y-17890295D02*
X74261904Y-17985533D01*
X74261904Y-17985533D02*
X74214285Y-18128390D01*
X74214285Y-18128390D02*
X73642857Y-18699819D01*
X73642857Y-18699819D02*
X74261904Y-18699819D01*
D14*
X112183571Y-72953365D02*
X112123095Y-73013842D01*
X112123095Y-73013842D02*
X111941666Y-73074318D01*
X111941666Y-73074318D02*
X111820714Y-73074318D01*
X111820714Y-73074318D02*
X111639285Y-73013842D01*
X111639285Y-73013842D02*
X111518333Y-72892889D01*
X111518333Y-72892889D02*
X111457856Y-72771937D01*
X111457856Y-72771937D02*
X111397380Y-72530032D01*
X111397380Y-72530032D02*
X111397380Y-72348603D01*
X111397380Y-72348603D02*
X111457856Y-72106699D01*
X111457856Y-72106699D02*
X111518333Y-71985746D01*
X111518333Y-71985746D02*
X111639285Y-71864794D01*
X111639285Y-71864794D02*
X111820714Y-71804318D01*
X111820714Y-71804318D02*
X111941666Y-71804318D01*
X111941666Y-71804318D02*
X112123095Y-71864794D01*
X112123095Y-71864794D02*
X112183571Y-71925270D01*
X112606904Y-71804318D02*
X113393095Y-71804318D01*
X113393095Y-71804318D02*
X112969761Y-72288127D01*
X112969761Y-72288127D02*
X113151190Y-72288127D01*
X113151190Y-72288127D02*
X113272142Y-72348603D01*
X113272142Y-72348603D02*
X113332618Y-72409080D01*
X113332618Y-72409080D02*
X113393095Y-72530032D01*
X113393095Y-72530032D02*
X113393095Y-72832413D01*
X113393095Y-72832413D02*
X113332618Y-72953365D01*
X113332618Y-72953365D02*
X113272142Y-73013842D01*
X113272142Y-73013842D02*
X113151190Y-73074318D01*
X113151190Y-73074318D02*
X112788333Y-73074318D01*
X112788333Y-73074318D02*
X112667380Y-73013842D01*
X112667380Y-73013842D02*
X112606904Y-72953365D01*
X114542142Y-71804318D02*
X113937380Y-71804318D01*
X113937380Y-71804318D02*
X113876904Y-72409080D01*
X113876904Y-72409080D02*
X113937380Y-72348603D01*
X113937380Y-72348603D02*
X114058333Y-72288127D01*
X114058333Y-72288127D02*
X114360714Y-72288127D01*
X114360714Y-72288127D02*
X114481666Y-72348603D01*
X114481666Y-72348603D02*
X114542142Y-72409080D01*
X114542142Y-72409080D02*
X114602619Y-72530032D01*
X114602619Y-72530032D02*
X114602619Y-72832413D01*
X114602619Y-72832413D02*
X114542142Y-72953365D01*
X114542142Y-72953365D02*
X114481666Y-73013842D01*
X114481666Y-73013842D02*
X114360714Y-73074318D01*
X114360714Y-73074318D02*
X114058333Y-73074318D01*
X114058333Y-73074318D02*
X113937380Y-73013842D01*
X113937380Y-73013842D02*
X113876904Y-72953365D01*
X66533571Y-95453365D02*
X66473095Y-95513842D01*
X66473095Y-95513842D02*
X66291666Y-95574318D01*
X66291666Y-95574318D02*
X66170714Y-95574318D01*
X66170714Y-95574318D02*
X65989285Y-95513842D01*
X65989285Y-95513842D02*
X65868333Y-95392889D01*
X65868333Y-95392889D02*
X65807856Y-95271937D01*
X65807856Y-95271937D02*
X65747380Y-95030032D01*
X65747380Y-95030032D02*
X65747380Y-94848603D01*
X65747380Y-94848603D02*
X65807856Y-94606699D01*
X65807856Y-94606699D02*
X65868333Y-94485746D01*
X65868333Y-94485746D02*
X65989285Y-94364794D01*
X65989285Y-94364794D02*
X66170714Y-94304318D01*
X66170714Y-94304318D02*
X66291666Y-94304318D01*
X66291666Y-94304318D02*
X66473095Y-94364794D01*
X66473095Y-94364794D02*
X66533571Y-94425270D01*
X67622142Y-94727651D02*
X67622142Y-95574318D01*
X67319761Y-94243842D02*
X67017380Y-95150984D01*
X67017380Y-95150984D02*
X67803571Y-95150984D01*
X68529285Y-94304318D02*
X68650238Y-94304318D01*
X68650238Y-94304318D02*
X68771190Y-94364794D01*
X68771190Y-94364794D02*
X68831666Y-94425270D01*
X68831666Y-94425270D02*
X68892142Y-94546222D01*
X68892142Y-94546222D02*
X68952619Y-94788127D01*
X68952619Y-94788127D02*
X68952619Y-95090508D01*
X68952619Y-95090508D02*
X68892142Y-95332413D01*
X68892142Y-95332413D02*
X68831666Y-95453365D01*
X68831666Y-95453365D02*
X68771190Y-95513842D01*
X68771190Y-95513842D02*
X68650238Y-95574318D01*
X68650238Y-95574318D02*
X68529285Y-95574318D01*
X68529285Y-95574318D02*
X68408333Y-95513842D01*
X68408333Y-95513842D02*
X68347857Y-95453365D01*
X68347857Y-95453365D02*
X68287380Y-95332413D01*
X68287380Y-95332413D02*
X68226904Y-95090508D01*
X68226904Y-95090508D02*
X68226904Y-94788127D01*
X68226904Y-94788127D02*
X68287380Y-94546222D01*
X68287380Y-94546222D02*
X68347857Y-94425270D01*
X68347857Y-94425270D02*
X68408333Y-94364794D01*
X68408333Y-94364794D02*
X68529285Y-94304318D01*
X66533571Y-86453365D02*
X66473095Y-86513842D01*
X66473095Y-86513842D02*
X66291666Y-86574318D01*
X66291666Y-86574318D02*
X66170714Y-86574318D01*
X66170714Y-86574318D02*
X65989285Y-86513842D01*
X65989285Y-86513842D02*
X65868333Y-86392889D01*
X65868333Y-86392889D02*
X65807856Y-86271937D01*
X65807856Y-86271937D02*
X65747380Y-86030032D01*
X65747380Y-86030032D02*
X65747380Y-85848603D01*
X65747380Y-85848603D02*
X65807856Y-85606699D01*
X65807856Y-85606699D02*
X65868333Y-85485746D01*
X65868333Y-85485746D02*
X65989285Y-85364794D01*
X65989285Y-85364794D02*
X66170714Y-85304318D01*
X66170714Y-85304318D02*
X66291666Y-85304318D01*
X66291666Y-85304318D02*
X66473095Y-85364794D01*
X66473095Y-85364794D02*
X66533571Y-85425270D01*
X66956904Y-85304318D02*
X67743095Y-85304318D01*
X67743095Y-85304318D02*
X67319761Y-85788127D01*
X67319761Y-85788127D02*
X67501190Y-85788127D01*
X67501190Y-85788127D02*
X67622142Y-85848603D01*
X67622142Y-85848603D02*
X67682618Y-85909080D01*
X67682618Y-85909080D02*
X67743095Y-86030032D01*
X67743095Y-86030032D02*
X67743095Y-86332413D01*
X67743095Y-86332413D02*
X67682618Y-86453365D01*
X67682618Y-86453365D02*
X67622142Y-86513842D01*
X67622142Y-86513842D02*
X67501190Y-86574318D01*
X67501190Y-86574318D02*
X67138333Y-86574318D01*
X67138333Y-86574318D02*
X67017380Y-86513842D01*
X67017380Y-86513842D02*
X66956904Y-86453365D01*
X68347857Y-86574318D02*
X68589761Y-86574318D01*
X68589761Y-86574318D02*
X68710714Y-86513842D01*
X68710714Y-86513842D02*
X68771190Y-86453365D01*
X68771190Y-86453365D02*
X68892142Y-86271937D01*
X68892142Y-86271937D02*
X68952619Y-86030032D01*
X68952619Y-86030032D02*
X68952619Y-85546222D01*
X68952619Y-85546222D02*
X68892142Y-85425270D01*
X68892142Y-85425270D02*
X68831666Y-85364794D01*
X68831666Y-85364794D02*
X68710714Y-85304318D01*
X68710714Y-85304318D02*
X68468809Y-85304318D01*
X68468809Y-85304318D02*
X68347857Y-85364794D01*
X68347857Y-85364794D02*
X68287380Y-85425270D01*
X68287380Y-85425270D02*
X68226904Y-85546222D01*
X68226904Y-85546222D02*
X68226904Y-85848603D01*
X68226904Y-85848603D02*
X68287380Y-85969556D01*
X68287380Y-85969556D02*
X68347857Y-86030032D01*
X68347857Y-86030032D02*
X68468809Y-86090508D01*
X68468809Y-86090508D02*
X68710714Y-86090508D01*
X68710714Y-86090508D02*
X68831666Y-86030032D01*
X68831666Y-86030032D02*
X68892142Y-85969556D01*
X68892142Y-85969556D02*
X68952619Y-85848603D01*
X112183571Y-63453365D02*
X112123095Y-63513842D01*
X112123095Y-63513842D02*
X111941666Y-63574318D01*
X111941666Y-63574318D02*
X111820714Y-63574318D01*
X111820714Y-63574318D02*
X111639285Y-63513842D01*
X111639285Y-63513842D02*
X111518333Y-63392889D01*
X111518333Y-63392889D02*
X111457856Y-63271937D01*
X111457856Y-63271937D02*
X111397380Y-63030032D01*
X111397380Y-63030032D02*
X111397380Y-62848603D01*
X111397380Y-62848603D02*
X111457856Y-62606699D01*
X111457856Y-62606699D02*
X111518333Y-62485746D01*
X111518333Y-62485746D02*
X111639285Y-62364794D01*
X111639285Y-62364794D02*
X111820714Y-62304318D01*
X111820714Y-62304318D02*
X111941666Y-62304318D01*
X111941666Y-62304318D02*
X112123095Y-62364794D01*
X112123095Y-62364794D02*
X112183571Y-62425270D01*
X112606904Y-62304318D02*
X113393095Y-62304318D01*
X113393095Y-62304318D02*
X112969761Y-62788127D01*
X112969761Y-62788127D02*
X113151190Y-62788127D01*
X113151190Y-62788127D02*
X113272142Y-62848603D01*
X113272142Y-62848603D02*
X113332618Y-62909080D01*
X113332618Y-62909080D02*
X113393095Y-63030032D01*
X113393095Y-63030032D02*
X113393095Y-63332413D01*
X113393095Y-63332413D02*
X113332618Y-63453365D01*
X113332618Y-63453365D02*
X113272142Y-63513842D01*
X113272142Y-63513842D02*
X113151190Y-63574318D01*
X113151190Y-63574318D02*
X112788333Y-63574318D01*
X112788333Y-63574318D02*
X112667380Y-63513842D01*
X112667380Y-63513842D02*
X112606904Y-63453365D01*
X114481666Y-62304318D02*
X114239761Y-62304318D01*
X114239761Y-62304318D02*
X114118809Y-62364794D01*
X114118809Y-62364794D02*
X114058333Y-62425270D01*
X114058333Y-62425270D02*
X113937380Y-62606699D01*
X113937380Y-62606699D02*
X113876904Y-62848603D01*
X113876904Y-62848603D02*
X113876904Y-63332413D01*
X113876904Y-63332413D02*
X113937380Y-63453365D01*
X113937380Y-63453365D02*
X113997857Y-63513842D01*
X113997857Y-63513842D02*
X114118809Y-63574318D01*
X114118809Y-63574318D02*
X114360714Y-63574318D01*
X114360714Y-63574318D02*
X114481666Y-63513842D01*
X114481666Y-63513842D02*
X114542142Y-63453365D01*
X114542142Y-63453365D02*
X114602619Y-63332413D01*
X114602619Y-63332413D02*
X114602619Y-63030032D01*
X114602619Y-63030032D02*
X114542142Y-62909080D01*
X114542142Y-62909080D02*
X114481666Y-62848603D01*
X114481666Y-62848603D02*
X114360714Y-62788127D01*
X114360714Y-62788127D02*
X114118809Y-62788127D01*
X114118809Y-62788127D02*
X113997857Y-62848603D01*
X113997857Y-62848603D02*
X113937380Y-62909080D01*
X113937380Y-62909080D02*
X113876904Y-63030032D01*
D13*
X80938095Y-59229819D02*
X80938095Y-60039342D01*
X80938095Y-60039342D02*
X80985714Y-60134580D01*
X80985714Y-60134580D02*
X81033333Y-60182200D01*
X81033333Y-60182200D02*
X81128571Y-60229819D01*
X81128571Y-60229819D02*
X81319047Y-60229819D01*
X81319047Y-60229819D02*
X81414285Y-60182200D01*
X81414285Y-60182200D02*
X81461904Y-60134580D01*
X81461904Y-60134580D02*
X81509523Y-60039342D01*
X81509523Y-60039342D02*
X81509523Y-59229819D01*
X82414285Y-59229819D02*
X82223809Y-59229819D01*
X82223809Y-59229819D02*
X82128571Y-59277438D01*
X82128571Y-59277438D02*
X82080952Y-59325057D01*
X82080952Y-59325057D02*
X81985714Y-59467914D01*
X81985714Y-59467914D02*
X81938095Y-59658390D01*
X81938095Y-59658390D02*
X81938095Y-60039342D01*
X81938095Y-60039342D02*
X81985714Y-60134580D01*
X81985714Y-60134580D02*
X82033333Y-60182200D01*
X82033333Y-60182200D02*
X82128571Y-60229819D01*
X82128571Y-60229819D02*
X82319047Y-60229819D01*
X82319047Y-60229819D02*
X82414285Y-60182200D01*
X82414285Y-60182200D02*
X82461904Y-60134580D01*
X82461904Y-60134580D02*
X82509523Y-60039342D01*
X82509523Y-60039342D02*
X82509523Y-59801247D01*
X82509523Y-59801247D02*
X82461904Y-59706009D01*
X82461904Y-59706009D02*
X82414285Y-59658390D01*
X82414285Y-59658390D02*
X82319047Y-59610771D01*
X82319047Y-59610771D02*
X82128571Y-59610771D01*
X82128571Y-59610771D02*
X82033333Y-59658390D01*
X82033333Y-59658390D02*
X81985714Y-59706009D01*
X81985714Y-59706009D02*
X81938095Y-59801247D01*
X111738095Y-1654819D02*
X111738095Y-654819D01*
X111738095Y-1131009D02*
X112309523Y-1131009D01*
X112309523Y-1654819D02*
X112309523Y-654819D01*
X112690476Y-654819D02*
X113309523Y-654819D01*
X113309523Y-654819D02*
X112976190Y-1035771D01*
X112976190Y-1035771D02*
X113119047Y-1035771D01*
X113119047Y-1035771D02*
X113214285Y-1083390D01*
X113214285Y-1083390D02*
X113261904Y-1131009D01*
X113261904Y-1131009D02*
X113309523Y-1226247D01*
X113309523Y-1226247D02*
X113309523Y-1464342D01*
X113309523Y-1464342D02*
X113261904Y-1559580D01*
X113261904Y-1559580D02*
X113214285Y-1607200D01*
X113214285Y-1607200D02*
X113119047Y-1654819D01*
X113119047Y-1654819D02*
X112833333Y-1654819D01*
X112833333Y-1654819D02*
X112738095Y-1607200D01*
X112738095Y-1607200D02*
X112690476Y-1559580D01*
X61729819Y-19725594D02*
X62539342Y-19725594D01*
X62539342Y-19725594D02*
X62634580Y-19677975D01*
X62634580Y-19677975D02*
X62682200Y-19630356D01*
X62682200Y-19630356D02*
X62729819Y-19535118D01*
X62729819Y-19535118D02*
X62729819Y-19344642D01*
X62729819Y-19344642D02*
X62682200Y-19249404D01*
X62682200Y-19249404D02*
X62634580Y-19201785D01*
X62634580Y-19201785D02*
X62539342Y-19154166D01*
X62539342Y-19154166D02*
X61729819Y-19154166D01*
X62729819Y-18154166D02*
X62729819Y-18725594D01*
X62729819Y-18439880D02*
X61729819Y-18439880D01*
X61729819Y-18439880D02*
X61872676Y-18535118D01*
X61872676Y-18535118D02*
X61967914Y-18630356D01*
X61967914Y-18630356D02*
X62015533Y-18725594D01*
X62729819Y-17201785D02*
X62729819Y-17773213D01*
X62729819Y-17487499D02*
X61729819Y-17487499D01*
X61729819Y-17487499D02*
X61872676Y-17582737D01*
X61872676Y-17582737D02*
X61967914Y-17677975D01*
X61967914Y-17677975D02*
X62015533Y-17773213D01*
X74533333Y-50699819D02*
X74200000Y-50223628D01*
X73961905Y-50699819D02*
X73961905Y-49699819D01*
X73961905Y-49699819D02*
X74342857Y-49699819D01*
X74342857Y-49699819D02*
X74438095Y-49747438D01*
X74438095Y-49747438D02*
X74485714Y-49795057D01*
X74485714Y-49795057D02*
X74533333Y-49890295D01*
X74533333Y-49890295D02*
X74533333Y-50033152D01*
X74533333Y-50033152D02*
X74485714Y-50128390D01*
X74485714Y-50128390D02*
X74438095Y-50176009D01*
X74438095Y-50176009D02*
X74342857Y-50223628D01*
X74342857Y-50223628D02*
X73961905Y-50223628D01*
X75104762Y-50128390D02*
X75009524Y-50080771D01*
X75009524Y-50080771D02*
X74961905Y-50033152D01*
X74961905Y-50033152D02*
X74914286Y-49937914D01*
X74914286Y-49937914D02*
X74914286Y-49890295D01*
X74914286Y-49890295D02*
X74961905Y-49795057D01*
X74961905Y-49795057D02*
X75009524Y-49747438D01*
X75009524Y-49747438D02*
X75104762Y-49699819D01*
X75104762Y-49699819D02*
X75295238Y-49699819D01*
X75295238Y-49699819D02*
X75390476Y-49747438D01*
X75390476Y-49747438D02*
X75438095Y-49795057D01*
X75438095Y-49795057D02*
X75485714Y-49890295D01*
X75485714Y-49890295D02*
X75485714Y-49937914D01*
X75485714Y-49937914D02*
X75438095Y-50033152D01*
X75438095Y-50033152D02*
X75390476Y-50080771D01*
X75390476Y-50080771D02*
X75295238Y-50128390D01*
X75295238Y-50128390D02*
X75104762Y-50128390D01*
X75104762Y-50128390D02*
X75009524Y-50176009D01*
X75009524Y-50176009D02*
X74961905Y-50223628D01*
X74961905Y-50223628D02*
X74914286Y-50318866D01*
X74914286Y-50318866D02*
X74914286Y-50509342D01*
X74914286Y-50509342D02*
X74961905Y-50604580D01*
X74961905Y-50604580D02*
X75009524Y-50652200D01*
X75009524Y-50652200D02*
X75104762Y-50699819D01*
X75104762Y-50699819D02*
X75295238Y-50699819D01*
X75295238Y-50699819D02*
X75390476Y-50652200D01*
X75390476Y-50652200D02*
X75438095Y-50604580D01*
X75438095Y-50604580D02*
X75485714Y-50509342D01*
X75485714Y-50509342D02*
X75485714Y-50318866D01*
X75485714Y-50318866D02*
X75438095Y-50223628D01*
X75438095Y-50223628D02*
X75390476Y-50176009D01*
X75390476Y-50176009D02*
X75295238Y-50128390D01*
X98238095Y-19979819D02*
X98238095Y-20789342D01*
X98238095Y-20789342D02*
X98285714Y-20884580D01*
X98285714Y-20884580D02*
X98333333Y-20932200D01*
X98333333Y-20932200D02*
X98428571Y-20979819D01*
X98428571Y-20979819D02*
X98619047Y-20979819D01*
X98619047Y-20979819D02*
X98714285Y-20932200D01*
X98714285Y-20932200D02*
X98761904Y-20884580D01*
X98761904Y-20884580D02*
X98809523Y-20789342D01*
X98809523Y-20789342D02*
X98809523Y-19979819D01*
X99761904Y-19979819D02*
X99285714Y-19979819D01*
X99285714Y-19979819D02*
X99238095Y-20456009D01*
X99238095Y-20456009D02*
X99285714Y-20408390D01*
X99285714Y-20408390D02*
X99380952Y-20360771D01*
X99380952Y-20360771D02*
X99619047Y-20360771D01*
X99619047Y-20360771D02*
X99714285Y-20408390D01*
X99714285Y-20408390D02*
X99761904Y-20456009D01*
X99761904Y-20456009D02*
X99809523Y-20551247D01*
X99809523Y-20551247D02*
X99809523Y-20789342D01*
X99809523Y-20789342D02*
X99761904Y-20884580D01*
X99761904Y-20884580D02*
X99714285Y-20932200D01*
X99714285Y-20932200D02*
X99619047Y-20979819D01*
X99619047Y-20979819D02*
X99380952Y-20979819D01*
X99380952Y-20979819D02*
X99285714Y-20932200D01*
X99285714Y-20932200D02*
X99238095Y-20884580D01*
D15*
%TO.C,R15*%
X73976263Y-56170000D02*
X75423737Y-56170000D01*
X73976263Y-58880000D02*
X75423737Y-58880000D01*
%TO.C,A1*%
X2390000Y-42500000D02*
X2390000Y-44990000D01*
X2390000Y-44990000D02*
X3303520Y-44990000D01*
X2390000Y-46337939D02*
X2390000Y-44990000D01*
X2390000Y-48265000D02*
X2390000Y-47262061D01*
X2390000Y-48600000D02*
X3306000Y-48600000D01*
X2390000Y-56400000D02*
X3306000Y-56400000D01*
X2390000Y-56735000D02*
X2390000Y-48265000D01*
X2390000Y-57737939D02*
X2390000Y-56735000D01*
X2390000Y-60010000D02*
X2390000Y-58662060D01*
X2390000Y-60010000D02*
X3303520Y-60010000D01*
X2390000Y-62500000D02*
X2390000Y-60010000D01*
X2810000Y-63079676D02*
X2810000Y-63590000D01*
X2810063Y-42230000D02*
X2453000Y-42230000D01*
X2810063Y-62770000D02*
X2453000Y-62770000D01*
X4930000Y-41890000D02*
X5350000Y-41890000D01*
X4930000Y-42230000D02*
X5350000Y-42230000D01*
X4930000Y-62770000D02*
X5350000Y-62770000D01*
X4930000Y-63110000D02*
X4930000Y-63590000D01*
X4930000Y-63110000D02*
X5350000Y-63110000D01*
X5694000Y-48600000D02*
X6910000Y-48600000D01*
X5694000Y-56400000D02*
X6910000Y-56400000D01*
X5696480Y-44990000D02*
X50303520Y-44990000D01*
X5696480Y-60010000D02*
X50303520Y-60010000D01*
X6910000Y-48896090D02*
X6910000Y-48600000D01*
X6910000Y-53746090D02*
X6910000Y-51253910D01*
X6910000Y-56400000D02*
X6910000Y-56103910D01*
X7470000Y-41890000D02*
X7890000Y-41890000D01*
X7470000Y-42230000D02*
X7890000Y-42230000D01*
X7470000Y-62770000D02*
X7890000Y-62770000D01*
X7470000Y-63110000D02*
X7890000Y-63110000D01*
X10010000Y-41890000D02*
X10430000Y-41890000D01*
X10010000Y-42230000D02*
X10430000Y-42230000D01*
X10010000Y-62770000D02*
X10430000Y-62770000D01*
X10010000Y-63110000D02*
X10430000Y-63110000D01*
X12550000Y-41890000D02*
X12970000Y-41890000D01*
X12550000Y-42230000D02*
X12970000Y-42230000D01*
X12550000Y-62770000D02*
X12970000Y-62770000D01*
X12550000Y-63110000D02*
X12970000Y-63110000D01*
X15090000Y-41890000D02*
X15510000Y-41890000D01*
X15090000Y-42230000D02*
X15510000Y-42230000D01*
X15090000Y-62770000D02*
X15510000Y-62770000D01*
X15090000Y-63110000D02*
X15510000Y-63110000D01*
X17630000Y-41890000D02*
X18050000Y-41890000D01*
X17630000Y-42230000D02*
X18050000Y-42230000D01*
X17630000Y-62770000D02*
X18050000Y-62770000D01*
X17630000Y-63110000D02*
X18050000Y-63110000D01*
X20170000Y-41890000D02*
X20590000Y-41890000D01*
X20170000Y-42230000D02*
X20590000Y-42230000D01*
X20170000Y-62770000D02*
X20590000Y-62770000D01*
X20170000Y-63110000D02*
X20590000Y-63110000D01*
X22710000Y-41890000D02*
X23130000Y-41890000D01*
X22710000Y-42230000D02*
X23130000Y-42230000D01*
X22710000Y-62770000D02*
X23130000Y-62770000D01*
X22710000Y-63110000D02*
X23130000Y-63110000D01*
X25250000Y-41890000D02*
X25670000Y-41890000D01*
X25250000Y-42230000D02*
X25670000Y-42230000D01*
X25250000Y-62770000D02*
X25670000Y-62770000D01*
X25250000Y-63110000D02*
X25670000Y-63110000D01*
X27790000Y-41890000D02*
X28210000Y-41890000D01*
X27790000Y-42230000D02*
X28210000Y-42230000D01*
X27790000Y-62770000D02*
X28210000Y-62770000D01*
X27790000Y-63110000D02*
X28210000Y-63110000D01*
X30330000Y-41890000D02*
X30750000Y-41890000D01*
X30330000Y-42230000D02*
X30750000Y-42230000D01*
X30330000Y-62770000D02*
X30750000Y-62770000D01*
X30330000Y-63110000D02*
X30750000Y-63110000D01*
X32870000Y-41890000D02*
X33290000Y-41890000D01*
X32870000Y-42230000D02*
X33290000Y-42230000D01*
X32870000Y-62770000D02*
X33290000Y-62770000D01*
X32870000Y-63110000D02*
X33290000Y-63110000D01*
X35410000Y-41890000D02*
X35830000Y-41890000D01*
X35410000Y-42230000D02*
X35830000Y-42230000D01*
X35410000Y-62770000D02*
X35830000Y-62770000D01*
X35410000Y-63110000D02*
X35830000Y-63110000D01*
X37950000Y-41890000D02*
X38370000Y-41890000D01*
X37950000Y-42230000D02*
X38370000Y-42230000D01*
X37950000Y-62770000D02*
X38370000Y-62770000D01*
X37950000Y-63110000D02*
X38370000Y-63110000D01*
X40490000Y-41890000D02*
X40910000Y-41890000D01*
X40490000Y-42230000D02*
X40910000Y-42230000D01*
X40490000Y-62770000D02*
X40910000Y-62770000D01*
X40490000Y-63110000D02*
X40910000Y-63110000D01*
X43030000Y-41890000D02*
X43450000Y-41890000D01*
X43030000Y-42230000D02*
X43450000Y-42230000D01*
X43030000Y-62770000D02*
X43450000Y-62770000D01*
X43030000Y-63110000D02*
X43450000Y-63110000D01*
X45570000Y-41890000D02*
X45990000Y-41890000D01*
X45570000Y-42230000D02*
X45990000Y-42230000D01*
X45570000Y-62770000D02*
X45990000Y-62770000D01*
X45570000Y-63110000D02*
X45990000Y-63110000D01*
X48110000Y-41890000D02*
X48530000Y-41890000D01*
X48110000Y-42230000D02*
X48530000Y-42230000D01*
X48110000Y-62770000D02*
X48530000Y-62770000D01*
X48110000Y-63110000D02*
X48530000Y-63110000D01*
X50650000Y-41890000D02*
X51070000Y-41890000D01*
X50650000Y-42230000D02*
X51070000Y-42230000D01*
X50650000Y-62770000D02*
X51070000Y-62770000D01*
X50650000Y-63110000D02*
X51070000Y-63110000D01*
X52696480Y-44990000D02*
X53610000Y-44990000D01*
X52696480Y-60010000D02*
X53610000Y-60010000D01*
X53189937Y-42230000D02*
X53547000Y-42230000D01*
X53189937Y-62770000D02*
X53547000Y-62770000D01*
X53610000Y-46337939D02*
X53610000Y-42500000D01*
X53610000Y-47262061D02*
X53610000Y-48900000D01*
X53610000Y-48900000D02*
X53610000Y-56100000D01*
X53610000Y-56100000D02*
X53610000Y-57737939D01*
X53610000Y-62500000D02*
X53610000Y-58662061D01*
X2390000Y-42500000D02*
G75*
G02*
X2810063Y-41920324I610000J0D01*
G01*
X2810000Y-63079676D02*
G75*
G02*
X2390000Y-62500000I190051J579692D01*
G01*
X53189937Y-41920324D02*
G75*
G02*
X53610069Y-42500000I-189837J-579676D01*
G01*
X53610000Y-62500000D02*
G75*
G02*
X53189937Y-63079676I-610002J1D01*
G01*
%TO.C,R24*%
X63170000Y-25948737D02*
X63170000Y-24501263D01*
X65880000Y-25948737D02*
X65880000Y-24501263D01*
D16*
%TO.C,C42*%
X12100000Y-81500000D02*
X19800000Y-81500000D01*
X14850000Y-88100000D02*
X19800000Y-88100000D01*
D15*
%TO.C,R1*%
X15145000Y-28726263D02*
X15145000Y-30173737D01*
X17855000Y-28726263D02*
X17855000Y-30173737D01*
D16*
%TO.C,C38*%
X52600000Y-96200000D02*
X60300000Y-96200000D01*
X55350000Y-102800000D02*
X60300000Y-102800000D01*
%TO.C,C28*%
X46750000Y-70200000D02*
X54450000Y-70200000D01*
X49500000Y-76800000D02*
X54450000Y-76800000D01*
%TO.C,IC1*%
X10750000Y-20150000D02*
X17250000Y-20150000D01*
X10750000Y-23850000D02*
X10750000Y-20150000D01*
X17250000Y-20150000D02*
X17250000Y-23850000D01*
X17250000Y-23850000D02*
X10750000Y-23850000D01*
X17500000Y-18325000D02*
X17500000Y-19800000D01*
D15*
%TO.C,R11*%
X89423737Y-56170000D02*
X87976263Y-56170000D01*
X89423737Y-58880000D02*
X87976263Y-58880000D01*
%TO.C,U7*%
X77690000Y-26590000D02*
X77690000Y-26805000D01*
X77690000Y-29410000D02*
X77690000Y-29195000D01*
X80000000Y-26590000D02*
X77690000Y-26590000D01*
X80000000Y-26590000D02*
X82310000Y-26590000D01*
X80000000Y-29410000D02*
X77690000Y-29410000D01*
X80000000Y-29410000D02*
X82310000Y-29410000D01*
X82310000Y-26590000D02*
X82310000Y-26805000D01*
X82310000Y-29410000D02*
X82310000Y-29195000D01*
X76900000Y-26805000D02*
X76660000Y-26475000D01*
X77140000Y-26475000D01*
X76900000Y-26805000D01*
G36*
X76900000Y-26805000D02*
G01*
X76660000Y-26475000D01*
X77140000Y-26475000D01*
X76900000Y-26805000D01*
G37*
D16*
%TO.C,PS4*%
X23250000Y-81225000D02*
X23250000Y-88775000D01*
X23250000Y-88775000D02*
X34750000Y-88775000D01*
D17*
X31540000Y-80725000D02*
X31540000Y-80725000D01*
X31540000Y-80825000D02*
X31540000Y-80825000D01*
D16*
X34750000Y-81225000D02*
X23250000Y-81225000D01*
X34750000Y-88775000D02*
X34750000Y-81225000D01*
D17*
X31540000Y-80725000D02*
G75*
G02*
X31540000Y-80825000I0J-50000D01*
G01*
X31540000Y-80825000D02*
G75*
G02*
X31540000Y-80725000I0J50000D01*
G01*
D15*
%TO.C,C14*%
X66211252Y-75640000D02*
X64788748Y-75640000D01*
X66211252Y-78360000D02*
X64788748Y-78360000D01*
D16*
%TO.C,C41*%
X2100000Y-81700000D02*
X9800000Y-81700000D01*
X4850000Y-88300000D02*
X9800000Y-88300000D01*
%TO.C,IC2*%
X22075000Y-19055000D02*
X23925000Y-19055000D01*
X24275000Y-18710000D02*
X32375000Y-18710000D01*
X24275000Y-24560000D02*
X24275000Y-18710000D01*
X32375000Y-18710000D02*
X32375000Y-24560000D01*
X32375000Y-24560000D02*
X24275000Y-24560000D01*
D17*
%TO.C,FL2*%
X87500000Y-64215000D02*
X87500000Y-64215000D01*
X87600000Y-64215000D02*
X87600000Y-64215000D01*
X87500000Y-64215000D02*
G75*
G02*
X87600000Y-64215000I50000J0D01*
G01*
X87600000Y-64215000D02*
G75*
G02*
X87500000Y-64215000I-50000J0D01*
G01*
%TO.C,Q1*%
X85446000Y-26200000D02*
X85446000Y-26200000D01*
X85546000Y-26200000D02*
X85546000Y-26200000D01*
D16*
X89446000Y-25325000D02*
X89446000Y-31675000D01*
D17*
X85446000Y-26200000D02*
G75*
G02*
X85546000Y-26200000I50000J0D01*
G01*
X85546000Y-26200000D02*
G75*
G02*
X85446000Y-26200000I-50000J0D01*
G01*
D15*
%TO.C,U1*%
X79390000Y-46115000D02*
X79390000Y-46330000D01*
X79390000Y-48935000D02*
X79390000Y-48720000D01*
X81700000Y-46115000D02*
X79390000Y-46115000D01*
X81700000Y-46115000D02*
X84010000Y-46115000D01*
X81700000Y-48935000D02*
X79390000Y-48935000D01*
X81700000Y-48935000D02*
X84010000Y-48935000D01*
X84010000Y-46115000D02*
X84010000Y-46330000D01*
X84010000Y-48935000D02*
X84010000Y-48720000D01*
X85040000Y-49050000D02*
X84560000Y-49050000D01*
X84800000Y-48720000D01*
X85040000Y-49050000D01*
G36*
X85040000Y-49050000D02*
G01*
X84560000Y-49050000D01*
X84800000Y-48720000D01*
X85040000Y-49050000D01*
G37*
D16*
%TO.C,C33*%
X108600000Y-82700000D02*
X116300000Y-82700000D01*
X111350000Y-89300000D02*
X116300000Y-89300000D01*
D15*
%TO.C,R5*%
X89423737Y-46170000D02*
X87976263Y-46170000D01*
X89423737Y-48880000D02*
X87976263Y-48880000D01*
D16*
%TO.C,C30*%
X37100000Y-85200000D02*
X44800000Y-85200000D01*
X39850000Y-91800000D02*
X44800000Y-91800000D01*
D15*
%TO.C,R16*%
X72276263Y-26640000D02*
X73723737Y-26640000D01*
X72276263Y-29350000D02*
X73723737Y-29350000D01*
%TO.C,U4*%
X77690000Y-19120000D02*
X77690000Y-19335000D01*
X77690000Y-21940000D02*
X77690000Y-21725000D01*
X80000000Y-19120000D02*
X77690000Y-19120000D01*
X80000000Y-19120000D02*
X82310000Y-19120000D01*
X80000000Y-21940000D02*
X77690000Y-21940000D01*
X80000000Y-21940000D02*
X82310000Y-21940000D01*
X82310000Y-19120000D02*
X82310000Y-19335000D01*
X82310000Y-21940000D02*
X82310000Y-21725000D01*
X76900000Y-19335000D02*
X76660000Y-19005000D01*
X77140000Y-19005000D01*
X76900000Y-19335000D01*
G36*
X76900000Y-19335000D02*
G01*
X76660000Y-19005000D01*
X77140000Y-19005000D01*
X76900000Y-19335000D01*
G37*
%TO.C,R22*%
X96645000Y-47726263D02*
X96645000Y-49173737D01*
X99355000Y-47726263D02*
X99355000Y-49173737D01*
%TO.C,R7*%
X89423737Y-51170000D02*
X87976263Y-51170000D01*
X89423737Y-53880000D02*
X87976263Y-53880000D01*
%TO.C,U2*%
X79390000Y-51115000D02*
X79390000Y-51330000D01*
X79390000Y-53935000D02*
X79390000Y-53720000D01*
X81700000Y-51115000D02*
X79390000Y-51115000D01*
X81700000Y-51115000D02*
X84010000Y-51115000D01*
X81700000Y-53935000D02*
X79390000Y-53935000D01*
X81700000Y-53935000D02*
X84010000Y-53935000D01*
X84010000Y-51115000D02*
X84010000Y-51330000D01*
X84010000Y-53935000D02*
X84010000Y-53720000D01*
X85040000Y-54050000D02*
X84560000Y-54050000D01*
X84800000Y-53720000D01*
X85040000Y-54050000D01*
G36*
X85040000Y-54050000D02*
G01*
X84560000Y-54050000D01*
X84800000Y-53720000D01*
X85040000Y-54050000D01*
G37*
%TO.C,R6*%
X73976263Y-46170000D02*
X75423737Y-46170000D01*
X73976263Y-48880000D02*
X75423737Y-48880000D01*
D16*
%TO.C,IC3*%
X60750000Y-68150000D02*
X67250000Y-68150000D01*
X60750000Y-71850000D02*
X60750000Y-68150000D01*
X67250000Y-68150000D02*
X67250000Y-71850000D01*
X67250000Y-71850000D02*
X60750000Y-71850000D01*
X67500000Y-66325000D02*
X67500000Y-67800000D01*
D17*
%TO.C,PS3*%
X70175000Y-72815000D02*
X89825000Y-72815000D01*
X70175000Y-79865000D02*
X70175000Y-72815000D01*
D16*
X72175000Y-72185000D02*
X72175000Y-72185000D01*
X72175000Y-72185000D02*
X72175000Y-72185000D01*
X72275000Y-72185000D02*
X72275000Y-72185000D01*
D17*
X89825000Y-72815000D02*
X89825000Y-79865000D01*
X89825000Y-79865000D02*
X70175000Y-79865000D01*
D16*
X72175000Y-72185000D02*
G75*
G02*
X72275000Y-72185000I50000J0D01*
G01*
X72275000Y-72185000D02*
G75*
G02*
X72175000Y-72185000I-50000J0D01*
G01*
X72275000Y-72185000D02*
G75*
G02*
X72175000Y-72185000I-50000J0D01*
G01*
%TO.C,J3*%
X105500000Y-21920000D02*
X105500000Y-61420000D01*
X105500000Y-61420000D02*
X117900000Y-61420000D01*
X117900000Y-18580000D02*
X107500000Y-18580000D01*
X117900000Y-61420000D02*
X117900000Y-18580000D01*
D15*
%TO.C,Y1*%
X3475000Y-24210000D02*
X3475000Y-17810000D01*
X8525000Y-24210000D02*
X8525000Y-17810000D01*
X3475000Y-17810000D02*
G75*
G02*
X8525000Y-17810000I2525000J0D01*
G01*
X8525000Y-24210000D02*
G75*
G02*
X3475000Y-24210000I-2525000J0D01*
G01*
D16*
%TO.C,IC4*%
X72675000Y-63055000D02*
X74525000Y-63055000D01*
X74875000Y-62710000D02*
X82975000Y-62710000D01*
X74875000Y-68560000D02*
X74875000Y-62710000D01*
X82975000Y-62710000D02*
X82975000Y-68560000D01*
X82975000Y-68560000D02*
X74875000Y-68560000D01*
%TO.C,J4*%
X20580000Y-92400000D02*
X20580000Y-97000000D01*
X23920000Y-100900000D02*
X42500000Y-100900000D01*
X42500000Y-92400000D02*
X20580000Y-92400000D01*
X42500000Y-100900000D02*
X42500000Y-92400000D01*
D17*
%TO.C,PS2*%
X20500000Y-27450000D02*
X40150000Y-27450000D01*
X20500000Y-34500000D02*
X20500000Y-27450000D01*
D16*
X22500000Y-26820000D02*
X22500000Y-26820000D01*
X22500000Y-26820000D02*
X22500000Y-26820000D01*
X22600000Y-26820000D02*
X22600000Y-26820000D01*
D17*
X40150000Y-27450000D02*
X40150000Y-34500000D01*
X40150000Y-34500000D02*
X20500000Y-34500000D01*
D16*
X22500000Y-26820000D02*
G75*
G02*
X22600000Y-26820000I50000J0D01*
G01*
X22600000Y-26820000D02*
G75*
G02*
X22500000Y-26820000I-50000J0D01*
G01*
X22600000Y-26820000D02*
G75*
G02*
X22500000Y-26820000I-50000J0D01*
G01*
%TO.C,C34*%
X97600000Y-9700000D02*
X105300000Y-9700000D01*
X100350000Y-16300000D02*
X105300000Y-16300000D01*
D15*
%TO.C,U9*%
X77690000Y-34590000D02*
X77690000Y-34805000D01*
X77690000Y-37410000D02*
X77690000Y-37195000D01*
X80000000Y-34590000D02*
X77690000Y-34590000D01*
X80000000Y-34590000D02*
X82310000Y-34590000D01*
X80000000Y-37410000D02*
X77690000Y-37410000D01*
X80000000Y-37410000D02*
X82310000Y-37410000D01*
X82310000Y-34590000D02*
X82310000Y-34805000D01*
X82310000Y-37410000D02*
X82310000Y-37195000D01*
X76900000Y-34805000D02*
X76660000Y-34475000D01*
X77140000Y-34475000D01*
X76900000Y-34805000D01*
G36*
X76900000Y-34805000D02*
G01*
X76660000Y-34475000D01*
X77140000Y-34475000D01*
X76900000Y-34805000D01*
G37*
%TO.C,U12*%
X61075000Y-2825000D02*
X61075000Y-9245000D01*
X61075000Y-9245000D02*
X61545000Y-9245000D01*
X67975000Y-2825000D02*
X67975000Y-9245000D01*
X67975000Y-9245000D02*
X67505000Y-9245000D01*
X61585000Y-10975000D02*
X61115000Y-11315000D01*
X61115000Y-10635000D01*
X61585000Y-10975000D01*
G36*
X61585000Y-10975000D02*
G01*
X61115000Y-11315000D01*
X61115000Y-10635000D01*
X61585000Y-10975000D01*
G37*
D16*
%TO.C,J2*%
X22500000Y-1400000D02*
X54580000Y-1400000D01*
X22500000Y-9900000D02*
X22500000Y-1400000D01*
D17*
X25840000Y-10400000D02*
X25840000Y-10400000D01*
X25840000Y-10500000D02*
X25840000Y-10500000D01*
D16*
X54580000Y-1400000D02*
X54580000Y-9900000D01*
X54580000Y-9900000D02*
X22500000Y-9900000D01*
D17*
X25840000Y-10400000D02*
G75*
G02*
X25840000Y-10500000I0J-50000D01*
G01*
X25840000Y-10500000D02*
G75*
G02*
X25840000Y-10400000I0J50000D01*
G01*
D16*
%TO.C,C37*%
X52600000Y-87200000D02*
X60300000Y-87200000D01*
X55350000Y-93800000D02*
X60300000Y-93800000D01*
D15*
%TO.C,U3*%
X79390000Y-41115000D02*
X79390000Y-41330000D01*
X79390000Y-43935000D02*
X79390000Y-43720000D01*
X81700000Y-41115000D02*
X79390000Y-41115000D01*
X81700000Y-41115000D02*
X84010000Y-41115000D01*
X81700000Y-43935000D02*
X79390000Y-43935000D01*
X81700000Y-43935000D02*
X84010000Y-43935000D01*
X84010000Y-41115000D02*
X84010000Y-41330000D01*
X84010000Y-43935000D02*
X84010000Y-43720000D01*
X85040000Y-44050000D02*
X84560000Y-44050000D01*
X84800000Y-43720000D01*
X85040000Y-44050000D01*
G36*
X85040000Y-44050000D02*
G01*
X84560000Y-44050000D01*
X84800000Y-43720000D01*
X85040000Y-44050000D01*
G37*
%TO.C,R23*%
X96645000Y-53276263D02*
X96645000Y-54723737D01*
X99355000Y-53276263D02*
X99355000Y-54723737D01*
%TO.C,C26*%
X97640000Y-64288748D02*
X97640000Y-65711252D01*
X100360000Y-64288748D02*
X100360000Y-65711252D01*
D17*
%TO.C,PS1*%
X73180000Y-100620000D02*
X73180000Y-100620000D01*
X73280000Y-100620000D02*
X73280000Y-100620000D01*
D16*
X73750000Y-82850000D02*
X105550000Y-82850000D01*
X73750000Y-103150000D02*
X73750000Y-82850000D01*
X105550000Y-82850000D02*
X105550000Y-103150000D01*
X105550000Y-103150000D02*
X73750000Y-103150000D01*
D17*
X73180000Y-100620000D02*
G75*
G02*
X73280000Y-100620000I50000J0D01*
G01*
X73280000Y-100620000D02*
G75*
G02*
X73180000Y-100620000I-50000J0D01*
G01*
D16*
%TO.C,J5*%
X74040000Y-3750000D02*
X74040000Y-8350000D01*
X77380000Y-12250000D02*
X95960000Y-12250000D01*
X95960000Y-3750000D02*
X74040000Y-3750000D01*
X95960000Y-12250000D02*
X95960000Y-3750000D01*
%TO.C,C27*%
X46950000Y-79200000D02*
X54650000Y-79200000D01*
X49700000Y-85800000D02*
X54650000Y-85800000D01*
D15*
%TO.C,R19*%
X72276263Y-34640000D02*
X73723737Y-34640000D01*
X72276263Y-37350000D02*
X73723737Y-37350000D01*
%TO.C,R9*%
X89423737Y-41645000D02*
X87976263Y-41645000D01*
X89423737Y-44355000D02*
X87976263Y-44355000D01*
D17*
%TO.C,Q2*%
X87172000Y-34700000D02*
X87172000Y-34700000D01*
X87272000Y-34700000D02*
X87272000Y-34700000D01*
D16*
X91172000Y-33825000D02*
X91172000Y-40175000D01*
D17*
X87172000Y-34700000D02*
G75*
G02*
X87272000Y-34700000I50000J0D01*
G01*
X87272000Y-34700000D02*
G75*
G02*
X87172000Y-34700000I-50000J0D01*
G01*
D15*
%TO.C,Y2*%
X67210000Y-59975000D02*
X60810000Y-59975000D01*
X67210000Y-65025000D02*
X60810000Y-65025000D01*
X60810000Y-65025000D02*
G75*
G02*
X60810000Y-59975000I0J2525000D01*
G01*
X67210000Y-59975000D02*
G75*
G02*
X67210000Y-65025000I0J-2525000D01*
G01*
%TO.C,C18*%
X66148752Y-79140000D02*
X64726248Y-79140000D01*
X66148752Y-81860000D02*
X64726248Y-81860000D01*
D16*
%TO.C,C31*%
X56600000Y-36700000D02*
X64300000Y-36700000D01*
X59350000Y-43300000D02*
X64300000Y-43300000D01*
%TO.C,C29*%
X36950000Y-76200000D02*
X44650000Y-76200000D01*
X39700000Y-82800000D02*
X44650000Y-82800000D01*
%TO.C,C32*%
X56600000Y-45500000D02*
X64300000Y-45500000D01*
X59350000Y-52100000D02*
X64300000Y-52100000D01*
D17*
%TO.C,FL1*%
X36825000Y-20435000D02*
X36825000Y-20435000D01*
X36925000Y-20435000D02*
X36925000Y-20435000D01*
X36825000Y-20435000D02*
G75*
G02*
X36925000Y-20435000I50000J0D01*
G01*
X36925000Y-20435000D02*
G75*
G02*
X36825000Y-20435000I-50000J0D01*
G01*
D15*
%TO.C,R10*%
X73976263Y-41170000D02*
X75423737Y-41170000D01*
X73976263Y-43880000D02*
X75423737Y-43880000D01*
%TO.C,C13*%
X50711252Y-16640000D02*
X49288748Y-16640000D01*
X50711252Y-19360000D02*
X49288748Y-19360000D01*
%TO.C,R12*%
X72276263Y-19170000D02*
X73723737Y-19170000D01*
X72276263Y-21880000D02*
X73723737Y-21880000D01*
D16*
%TO.C,C35*%
X108600000Y-73700000D02*
X116300000Y-73700000D01*
X111350000Y-80300000D02*
X116300000Y-80300000D01*
%TO.C,C40*%
X62950000Y-96200000D02*
X70650000Y-96200000D01*
X65700000Y-102800000D02*
X70650000Y-102800000D01*
%TO.C,C39*%
X62950000Y-87200000D02*
X70650000Y-87200000D01*
X65700000Y-93800000D02*
X70650000Y-93800000D01*
%TO.C,C36*%
X108600000Y-64200000D02*
X116300000Y-64200000D01*
X111350000Y-70800000D02*
X116300000Y-70800000D01*
D15*
%TO.C,U6*%
X79390000Y-56115000D02*
X79390000Y-56330000D01*
X79390000Y-58935000D02*
X79390000Y-58720000D01*
X81700000Y-56115000D02*
X79390000Y-56115000D01*
X81700000Y-56115000D02*
X84010000Y-56115000D01*
X81700000Y-58935000D02*
X79390000Y-58935000D01*
X81700000Y-58935000D02*
X84010000Y-58935000D01*
X84010000Y-56115000D02*
X84010000Y-56330000D01*
X84010000Y-58935000D02*
X84010000Y-58720000D01*
X85040000Y-59050000D02*
X84560000Y-59050000D01*
X84800000Y-58720000D01*
X85040000Y-59050000D01*
G36*
X85040000Y-59050000D02*
G01*
X84560000Y-59050000D01*
X84800000Y-58720000D01*
X85040000Y-59050000D01*
G37*
%TO.C,U11*%
X63115000Y-16177500D02*
X63330000Y-16177500D01*
X63115000Y-18487500D02*
X63115000Y-16177500D01*
X63115000Y-18487500D02*
X63115000Y-20797500D01*
X63115000Y-20797500D02*
X63330000Y-20797500D01*
X65935000Y-16177500D02*
X65720000Y-16177500D01*
X65935000Y-18487500D02*
X65935000Y-16177500D01*
X65935000Y-18487500D02*
X65935000Y-20797500D01*
X65935000Y-20797500D02*
X65720000Y-20797500D01*
X63330000Y-21587500D02*
X63000000Y-21827500D01*
X63000000Y-21347500D01*
X63330000Y-21587500D01*
G36*
X63330000Y-21587500D02*
G01*
X63000000Y-21827500D01*
X63000000Y-21347500D01*
X63330000Y-21587500D01*
G37*
%TO.C,R8*%
X73976263Y-51170000D02*
X75423737Y-51170000D01*
X73976263Y-53880000D02*
X75423737Y-53880000D01*
%TO.C,U5*%
X89130000Y-17075000D02*
X89130000Y-17545000D01*
X89130000Y-23975000D02*
X89130000Y-23505000D01*
X95550000Y-17075000D02*
X89130000Y-17075000D01*
X95550000Y-23975000D02*
X89130000Y-23975000D01*
X87400000Y-17585000D02*
X87060000Y-17115000D01*
X87740000Y-17115000D01*
X87400000Y-17585000D01*
G36*
X87400000Y-17585000D02*
G01*
X87060000Y-17115000D01*
X87740000Y-17115000D01*
X87400000Y-17585000D01*
G37*
%TD*%
D18*
%TO.C,J3*%
X107500000Y-21920000D03*
D19*
X107500000Y-27000000D03*
X107500000Y-32080000D03*
X107500000Y-37160000D03*
X107500000Y-42240000D03*
X107500000Y-47320000D03*
X107500000Y-52400000D03*
X107500000Y-57480000D03*
%TD*%
D18*
%TO.C,J4*%
X23920000Y-97000000D03*
D19*
X29000000Y-97000000D03*
X34080000Y-97000000D03*
X39160000Y-97000000D03*
%TD*%
D20*
%TO.C,J2*%
X25840000Y-6000000D03*
D21*
X30920000Y-6000000D03*
X36000000Y-6000000D03*
X41080000Y-6000000D03*
X46160000Y-6000000D03*
X51240000Y-6000000D03*
%TD*%
D22*
%TO.C,PS1*%
X75680000Y-100620000D03*
D23*
X78220000Y-100620000D03*
X80760000Y-100620000D03*
X96000000Y-100620000D03*
X101080000Y-100620000D03*
X101080000Y-85380000D03*
X96000000Y-85380000D03*
X80760000Y-85380000D03*
X78220000Y-85380000D03*
%TD*%
D18*
%TO.C,J5*%
X77380000Y-8350000D03*
D19*
X82460000Y-8350000D03*
X87540000Y-8350000D03*
X92620000Y-8350000D03*
%TD*%
M02*
