%TF.GenerationSoftware,KiCad,Pcbnew,9.0.1*%
%TF.CreationDate,2026-04-22T21:30:41-07:00*%
%TF.ProjectId,MainBoard,4d61696e-426f-4617-9264-2e6b69636164,rev?*%
%TF.SameCoordinates,Original*%
%TF.FileFunction,Soldermask,Bot*%
%TF.FilePolarity,Negative*%
%FSLAX46Y46*%
G04 Gerber Fmt 4.6, Leading zero omitted, Abs format (unit mm)*
G04 Created by KiCad (PCBNEW 9.0.1) date 2026-04-22 21:30:41*
%MOMM*%
%LPD*%
G01*
G04 APERTURE LIST*
G04 Aperture macros list*
%AMRoundRect*
0 Rectangle with rounded corners*
0 $1 Rounding radius*
0 $2 $3 $4 $5 $6 $7 $8 $9 X,Y pos of 4 corners*
0 Add a 4 corners polygon primitive as box body*
4,1,4,$2,$3,$4,$5,$6,$7,$8,$9,$2,$3,0*
0 Add four circle primitives for the rounded corners*
1,1,$1+$1,$2,$3*
1,1,$1+$1,$4,$5*
1,1,$1+$1,$6,$7*
1,1,$1+$1,$8,$9*
0 Add four rect primitives between the rounded corners*
20,1,$1+$1,$2,$3,$4,$5,0*
20,1,$1+$1,$4,$5,$6,$7,0*
20,1,$1+$1,$6,$7,$8,$9,0*
20,1,$1+$1,$8,$9,$2,$3,0*%
%AMFreePoly0*
4,1,37,0.603843,0.796157,0.639018,0.796157,0.711114,0.766294,0.766294,0.711114,0.796157,0.639018,0.796157,0.603843,0.800000,0.600000,0.800000,-0.600000,0.796157,-0.603843,0.796157,-0.639018,0.766294,-0.711114,0.711114,-0.766294,0.639018,-0.796157,0.603843,-0.796157,0.600000,-0.800000,0.000000,-0.800000,0.000000,-0.796148,-0.078414,-0.796148,-0.232228,-0.765552,-0.377117,-0.705537,
-0.507515,-0.618408,-0.618408,-0.507515,-0.705537,-0.377117,-0.765552,-0.232228,-0.796148,-0.078414,-0.796148,0.078414,-0.765552,0.232228,-0.705537,0.377117,-0.618408,0.507515,-0.507515,0.618408,-0.377117,0.705537,-0.232228,0.765552,-0.078414,0.796148,0.000000,0.796148,0.000000,0.800000,0.600000,0.800000,0.603843,0.796157,0.603843,0.796157,$1*%
%AMFreePoly1*
4,1,37,0.000000,0.796148,0.078414,0.796148,0.232228,0.765552,0.377117,0.705537,0.507515,0.618408,0.618408,0.507515,0.705537,0.377117,0.765552,0.232228,0.796148,0.078414,0.796148,-0.078414,0.765552,-0.232228,0.705537,-0.377117,0.618408,-0.507515,0.507515,-0.618408,0.377117,-0.705537,0.232228,-0.765552,0.078414,-0.796148,0.000000,-0.796148,0.000000,-0.800000,-0.600000,-0.800000,
-0.603843,-0.796157,-0.639018,-0.796157,-0.711114,-0.766294,-0.766294,-0.711114,-0.796157,-0.639018,-0.796157,-0.603843,-0.800000,-0.600000,-0.800000,0.600000,-0.796157,0.603843,-0.796157,0.639018,-0.766294,0.711114,-0.711114,0.766294,-0.639018,0.796157,-0.603843,0.796157,-0.600000,0.800000,0.000000,0.800000,0.000000,0.796148,0.000000,0.796148,$1*%
G04 Aperture macros list end*
%ADD10C,2.200000*%
%ADD11C,1.850000*%
%ADD12RoundRect,0.200000X0.600000X-0.600000X0.600000X0.600000X-0.600000X0.600000X-0.600000X-0.600000X0*%
%ADD13C,1.600000*%
%ADD14FreePoly0,90.000000*%
%ADD15FreePoly1,90.000000*%
%ADD16C,5.300000*%
%ADD17R,1.665000X1.665000*%
%ADD18C,1.665000*%
%ADD19C,1.725000*%
%ADD20R,2.400000X2.400000*%
%ADD21C,2.400000*%
%ADD22C,1.500000*%
%ADD23R,2.550000X2.550000*%
%ADD24C,2.550000*%
%ADD25R,1.500000X1.500000*%
%ADD26RoundRect,0.250000X-0.412500X-1.100000X0.412500X-1.100000X0.412500X1.100000X-0.412500X1.100000X0*%
%ADD27RoundRect,0.250000X0.400000X1.075000X-0.400000X1.075000X-0.400000X-1.075000X0.400000X-1.075000X0*%
%ADD28RoundRect,0.250000X-1.075000X0.400000X-1.075000X-0.400000X1.075000X-0.400000X1.075000X0.400000X0*%
%ADD29RoundRect,0.250000X-0.400000X-1.075000X0.400000X-1.075000X0.400000X1.075000X-0.400000X1.075000X0*%
%ADD30RoundRect,0.250000X0.412500X1.100000X-0.412500X1.100000X-0.412500X-1.100000X0.412500X-1.100000X0*%
%ADD31RoundRect,0.250000X-1.100000X0.412500X-1.100000X-0.412500X1.100000X-0.412500X1.100000X0.412500X0*%
%ADD32RoundRect,0.250000X0.900000X-1.000000X0.900000X1.000000X-0.900000X1.000000X-0.900000X-1.000000X0*%
%ADD33RoundRect,0.250000X1.100000X-0.412500X1.100000X0.412500X-1.100000X0.412500X-1.100000X-0.412500X0*%
%ADD34RoundRect,0.250000X1.075000X-0.400000X1.075000X0.400000X-1.075000X0.400000X-1.075000X-0.400000X0*%
%ADD35RoundRect,0.250000X1.000000X0.900000X-1.000000X0.900000X-1.000000X-0.900000X1.000000X-0.900000X0*%
G04 APERTURE END LIST*
D10*
%TO.C,A1*%
X4000000Y-55225000D03*
D11*
X7030000Y-54925000D03*
X7030000Y-50075000D03*
D10*
X4000000Y-49775000D03*
D12*
X3870000Y-61390000D03*
D13*
X6410000Y-61390000D03*
D14*
X8950000Y-61390000D03*
D13*
X11490000Y-61390000D03*
X14030000Y-61390000D03*
X16570000Y-61390000D03*
X19110000Y-61390000D03*
D14*
X21650000Y-61390000D03*
D13*
X24190000Y-61390000D03*
X26730000Y-61390000D03*
X29270000Y-61390000D03*
X31810000Y-61390000D03*
D14*
X34350000Y-61390000D03*
D13*
X36890000Y-61390000D03*
X39430000Y-61390000D03*
X41970000Y-61390000D03*
X44510000Y-61390000D03*
D14*
X47050000Y-61390000D03*
D13*
X49590000Y-61390000D03*
X52130000Y-61390000D03*
X52130000Y-43610000D03*
X49590000Y-43610000D03*
D15*
X47050000Y-43610000D03*
D13*
X44510000Y-43610000D03*
X41970000Y-43610000D03*
X39430000Y-43610000D03*
X36890000Y-43610000D03*
D15*
X34350000Y-43610000D03*
D13*
X31810000Y-43610000D03*
X29270000Y-43610000D03*
X26730000Y-43610000D03*
X24190000Y-43610000D03*
D15*
X21650000Y-43610000D03*
D13*
X19110000Y-43610000D03*
X16570000Y-43610000D03*
X14030000Y-43610000D03*
X11490000Y-43610000D03*
D15*
X8950000Y-43610000D03*
D13*
X6410000Y-43610000D03*
X3870000Y-43610000D03*
%TD*%
D16*
%TO.C,H2*%
X7500000Y-97500000D03*
%TD*%
D17*
%TO.C,PS4*%
X31540000Y-83225000D03*
D18*
X29000000Y-83225000D03*
X26460000Y-83225000D03*
%TD*%
D16*
%TO.C,H4*%
X112500000Y-97500000D03*
%TD*%
D19*
%TO.C,PS3*%
X72175000Y-74085000D03*
X74715000Y-74085000D03*
X82335000Y-74085000D03*
X87415000Y-74085000D03*
%TD*%
D20*
%TO.C,J3*%
X107500000Y-21920000D03*
D21*
X107500000Y-27000000D03*
X107500000Y-32080000D03*
X107500000Y-37160000D03*
X107500000Y-42240000D03*
X107500000Y-47320000D03*
X107500000Y-52400000D03*
X107500000Y-57480000D03*
%TD*%
D22*
%TO.C,Y1*%
X6000000Y-23450000D03*
X6000000Y-18570000D03*
%TD*%
D20*
%TO.C,J4*%
X23920000Y-97000000D03*
D21*
X29000000Y-97000000D03*
X34080000Y-97000000D03*
X39160000Y-97000000D03*
%TD*%
D19*
%TO.C,PS2*%
X22500000Y-28720000D03*
X25040000Y-28720000D03*
X32660000Y-28720000D03*
X37740000Y-28720000D03*
%TD*%
D23*
%TO.C,J2*%
X25840000Y-6000000D03*
D24*
X30920000Y-6000000D03*
X36000000Y-6000000D03*
X41080000Y-6000000D03*
X46160000Y-6000000D03*
X51240000Y-6000000D03*
%TD*%
D25*
%TO.C,PS1*%
X75680000Y-100620000D03*
D22*
X78220000Y-100620000D03*
X80760000Y-100620000D03*
X96000000Y-100620000D03*
X101080000Y-100620000D03*
X101080000Y-85380000D03*
X96000000Y-85380000D03*
X80760000Y-85380000D03*
X78220000Y-85380000D03*
%TD*%
D20*
%TO.C,J5*%
X77380000Y-8350000D03*
D21*
X82460000Y-8350000D03*
X87540000Y-8350000D03*
X92620000Y-8350000D03*
%TD*%
D22*
%TO.C,Y2*%
X66450000Y-62500000D03*
X61570000Y-62500000D03*
%TD*%
D16*
%TO.C,H1*%
X7500000Y-7500000D03*
%TD*%
%TO.C,H3*%
X112500000Y-7500000D03*
%TD*%
D26*
%TO.C,C4*%
X22437500Y-36000000D03*
X25562500Y-36000000D03*
%TD*%
D27*
%TO.C,R14*%
X86550000Y-22025000D03*
X83450000Y-22025000D03*
%TD*%
D28*
%TO.C,R3*%
X66000000Y-76000000D03*
X66000000Y-79100000D03*
%TD*%
D29*
%TO.C,R13*%
X83450000Y-18025000D03*
X86550000Y-18025000D03*
%TD*%
D30*
%TO.C,C5*%
X16562500Y-25000000D03*
X13437500Y-25000000D03*
%TD*%
D31*
%TO.C,C16*%
X70000000Y-60437500D03*
X70000000Y-63562500D03*
%TD*%
D26*
%TO.C,C17*%
X71000000Y-71000000D03*
X74125000Y-71000000D03*
%TD*%
D32*
%TO.C,D3*%
X91000000Y-38300000D03*
X91000000Y-34000000D03*
%TD*%
D30*
%TO.C,C1*%
X16562500Y-30000000D03*
X13437500Y-30000000D03*
%TD*%
%TO.C,C2*%
X5562500Y-26000000D03*
X2437500Y-26000000D03*
%TD*%
D26*
%TO.C,C20*%
X71437500Y-77000000D03*
X74562500Y-77000000D03*
%TD*%
%TO.C,C7*%
X22437500Y-32000000D03*
X25562500Y-32000000D03*
%TD*%
D33*
%TO.C,C11*%
X52000000Y-23562500D03*
X52000000Y-20437500D03*
%TD*%
D34*
%TO.C,R25*%
X62890000Y-15225000D03*
X62890000Y-12125000D03*
%TD*%
D30*
%TO.C,C6*%
X4562500Y-16000000D03*
X1437500Y-16000000D03*
%TD*%
D29*
%TO.C,R17*%
X83450000Y-26000000D03*
X86550000Y-26000000D03*
%TD*%
D33*
%TO.C,C15*%
X66000000Y-60062500D03*
X66000000Y-56937500D03*
%TD*%
D27*
%TO.C,R18*%
X86550000Y-30000000D03*
X83450000Y-30000000D03*
%TD*%
D29*
%TO.C,R20*%
X83450000Y-34000000D03*
X86550000Y-34000000D03*
%TD*%
D28*
%TO.C,R2*%
X43000000Y-17000000D03*
X43000000Y-20100000D03*
%TD*%
D33*
%TO.C,C8*%
X23000000Y-19562500D03*
X23000000Y-16437500D03*
%TD*%
%TO.C,C19*%
X62000000Y-60062500D03*
X62000000Y-56937500D03*
%TD*%
D31*
%TO.C,C12*%
X48000000Y-20437500D03*
X48000000Y-23562500D03*
%TD*%
D28*
%TO.C,R4*%
X93000000Y-64450000D03*
X93000000Y-67550000D03*
%TD*%
D31*
%TO.C,C22*%
X84000000Y-63437500D03*
X84000000Y-66562500D03*
%TD*%
D26*
%TO.C,C24*%
X100875000Y-53000000D03*
X104000000Y-53000000D03*
%TD*%
D30*
%TO.C,C25*%
X104000000Y-60000000D03*
X100875000Y-60000000D03*
%TD*%
D31*
%TO.C,C10*%
X38000000Y-17000000D03*
X38000000Y-20125000D03*
%TD*%
%TO.C,C3*%
X19000000Y-16437500D03*
X19000000Y-19562500D03*
%TD*%
D35*
%TO.C,D4*%
X66675000Y-7675000D03*
X62375000Y-7675000D03*
%TD*%
D33*
%TO.C,C9*%
X34000000Y-20125000D03*
X34000000Y-17000000D03*
%TD*%
%TO.C,C23*%
X88000000Y-66562500D03*
X88000000Y-63437500D03*
%TD*%
D32*
%TO.C,D1*%
X91000000Y-22680000D03*
X91000000Y-18380000D03*
%TD*%
%TO.C,D2*%
X91000000Y-30650000D03*
X91000000Y-26350000D03*
%TD*%
D33*
%TO.C,C21*%
X73500000Y-63562500D03*
X73500000Y-60437500D03*
%TD*%
D28*
%TO.C,R26*%
X66525000Y-12125000D03*
X66525000Y-15225000D03*
%TD*%
D27*
%TO.C,R21*%
X86550000Y-38000000D03*
X83450000Y-38000000D03*
%TD*%
M02*
